<svg xmlns="http://www.w3.org/2000/svg" viewBox="0 0 147.72 20.51"><defs><style>.cls-1{fill:#1d1d1b;}</style></defs><title>logo_texto_negro</title><g id="Layer_2" data-name="Layer 2"><g id="Capa_1" data-name="Capa 1"><path class="cls-1" d="M0,15.43V4.28A1,1,0,0,1,1.09,3.2H6.41C10,3.2,11.87,5,11.87,7.77S10,12.34,6.41,12.34H4.26v3.09a1,1,0,0,1-1.1,1.09H1.09A1,1,0,0,1,0,15.43ZM6.25,9.12A1.18,1.18,0,0,0,7.52,7.89,1.18,1.18,0,0,0,6.25,6.64h-2V9.12Z"/><path class="cls-1" d="M24,16.35a4.73,4.73,0,0,1-1.95.43,2.68,2.68,0,0,1-2.42-1.27,5,5,0,0,1-3.28,1.27c-2.43,0-4.05-1.29-4.05-3.24,0-2.11,1.76-3.52,4.42-3.52a7,7,0,0,1,2.07.35v-.23c0-.78-.53-1.21-1.54-1.21a5.12,5.12,0,0,0-2,.43A.87.87,0,0,1,14,8.91l-.29-.57c-.35-.76-.19-1.17.29-1.43A8.13,8.13,0,0,1,17.6,6c2.4,0,5.11,1,5.11,4.45v2.46c0,.18,0,.37.18.37s.31-.1.51-.1.47.22.62.69l.43,1.42C24.67,16,24.41,16.15,24,16.35ZM18.93,13.5v-.9a4.29,4.29,0,0,0-1.43-.31c-.76,0-1.27.42-1.27,1s.51,1,1.29,1A1.38,1.38,0,0,0,18.93,13.5Z"/><path class="cls-1" d="M33.93,7.21l-.49,1.93c-.16.63-.55.76-.92.61a3.78,3.78,0,0,0-1.15-.22,1.47,1.47,0,0,0-1.68,1.6v4.32a1,1,0,0,1-1.06,1.07H26.54a1,1,0,0,1-1.07-1.07V9.92c0-.15-.08-.21-.16-.21s-.49.19-.74.19-.39-.11-.51-.68l-.37-1.74c-.12-.6,0-.88.51-1.13A4.16,4.16,0,0,1,25.84,6a2.92,2.92,0,0,1,2.81,1.52A3.59,3.59,0,0,1,31.74,6a5.15,5.15,0,0,1,1.62.25C33.73,6.37,34.1,6.54,33.93,7.21Z"/><path class="cls-1" d="M44,16a4.87,4.87,0,0,1-2.83.78c-2.15,0-4.35-1.16-4.35-4.2V9.16H36A1,1,0,0,1,34.9,8.09V7.23A1,1,0,0,1,36,6.17h.82V3.85c0-.67.39-1,1.07-1.06l2-.25c.67-.08,1.06.39,1.06,1.07V6.17h1.81a1,1,0,0,1,1.06,1.06v.86a1,1,0,0,1-1.06,1.07H41v2.93c0,.92.45,1.15,1,1.15a1.54,1.54,0,0,0,.75-.27c.56-.35.8-.06,1,.35l.72,1.7C44.63,15.55,44.24,15.8,44,16Z"/><path class="cls-1" d="M45.25,2.42a2.43,2.43,0,1,1,2.43,2.42A2.42,2.42,0,0,1,45.25,2.42Zm.32,13V7.23a1,1,0,0,1,1.07-1.06h2.09a1,1,0,0,1,1.06,1.06v8.22a1,1,0,0,1-1.06,1.07H46.64A1,1,0,0,1,45.57,15.45Z"/><path class="cls-1" d="M63.77,16.35a4.64,4.64,0,0,1-2,.43,2.66,2.66,0,0,1-2.5-1.45A4.33,4.33,0,0,1,56,16.78a5.13,5.13,0,0,1-5.1-5.39A5.12,5.12,0,0,1,56,6a4.73,4.73,0,0,1,2.22.54V3.24c0-.7.37-1,1.06-1.07l2.07-.26c.7-.09,1.07.38,1.07,1.06v9.94c0,.18,0,.37.18.37s.31-.1.54-.1.49.22.61.69l.41,1.42C64.38,16,64.14,16.15,63.77,16.35Zm-5.35-5a1.69,1.69,0,1,0-3.38,0,1.7,1.7,0,0,0,1.68,1.83A1.76,1.76,0,0,0,58.42,11.39Z"/><path class="cls-1" d="M64.36,11.39c0-3.11,2.42-5.39,5.8-5.39S76,8.28,76,11.39s-2.42,5.39-5.8,5.39S64.36,14.51,64.36,11.39Zm7.48,0a1.69,1.69,0,1,0-3.36,0,1.69,1.69,0,1,0,3.36,0Z"/><path class="cls-1" d="M81.78,15.43V4.28A1,1,0,0,1,82.87,3.2h5.2c4.37,0,7.07,2.66,7.07,6.64s-2.7,6.68-7.07,6.68h-5.2A1,1,0,0,1,81.78,15.43Zm6.11-2.36c1.68,0,2.91-1.12,2.91-3.21s-1.23-3.22-2.91-3.22H86v6.43Z"/><path class="cls-1" d="M95.65,2.42a2.43,2.43,0,1,1,2.44,2.42A2.43,2.43,0,0,1,95.65,2.42Zm.33,13V7.23a1,1,0,0,1,1.07-1.06h2.09a1,1,0,0,1,1.06,1.06v8.22a1,1,0,0,1-1.06,1.07H97.05A1,1,0,0,1,96,15.45Z"/><path class="cls-1" d="M114.14,7.48l-.37,1.74c-.12.57-.37.66-.51.68s-.54-.19-.74-.19-.17.06-.17.21v5.26c0,3.55-2.56,5.33-6,5.33a7.26,7.26,0,0,1-4.75-1.62.91.91,0,0,1-.09-1.37l.82-1a.89.89,0,0,1,1.38-.09,4.94,4.94,0,0,0,2.68,1c1,0,2.17-.45,2.17-1.52V15a4.85,4.85,0,0,1-2.46.66,4.69,4.69,0,0,1-4.77-4.82A4.69,4.69,0,0,1,106.1,6a4.93,4.93,0,0,1,3.24,1.23A3,3,0,0,1,112,6a4.18,4.18,0,0,1,1.66.35C114.16,6.6,114.26,6.88,114.14,7.48Zm-5.27,3.34a1.71,1.71,0,1,0-3.42,0,1.71,1.71,0,1,0,3.42,0Z"/><path class="cls-1" d="M114.12,2.42a2.43,2.43,0,1,1,2.44,2.42A2.43,2.43,0,0,1,114.12,2.42Zm.32,13V7.23a1,1,0,0,1,1.07-1.06h2.09a1,1,0,0,1,1.07,1.06v8.22a1,1,0,0,1-1.07,1.07h-2.09A1,1,0,0,1,114.44,15.45Z"/><path class="cls-1" d="M128.87,16a4.82,4.82,0,0,1-2.83.78c-2.15,0-4.34-1.16-4.34-4.2V9.16h-.82a1,1,0,0,1-1.07-1.07V7.23a1,1,0,0,1,1.07-1.06h.82V3.85c0-.67.39-1,1.06-1.06l2-.25c.68-.08,1.07.39,1.07,1.07V6.17h1.8a1,1,0,0,1,1.07,1.06v.86a1,1,0,0,1-1.07,1.07h-1.8v2.93c0,.92.45,1.15,1,1.15a1.54,1.54,0,0,0,.76-.27c.55-.35.8-.06,1,.35l.72,1.7C129.55,15.55,129.16,15.8,128.87,16Z"/><path class="cls-1" d="M141.21,16.35a4.73,4.73,0,0,1-2,.43,2.68,2.68,0,0,1-2.42-1.27,5,5,0,0,1-3.28,1.27c-2.44,0-4.05-1.29-4.05-3.24,0-2.11,1.76-3.52,4.42-3.52a7,7,0,0,1,2.07.35v-.23c0-.78-.53-1.21-1.54-1.21a5.12,5.12,0,0,0-2,.43.88.88,0,0,1-1.34-.45l-.28-.57c-.35-.76-.19-1.17.28-1.43A8.2,8.2,0,0,1,134.77,6c2.4,0,5.11,1,5.11,4.45v2.46c0,.18,0,.37.18.37s.31-.1.51-.1.47.22.62.69l.43,1.42C141.84,16,141.58,16.15,141.21,16.35ZM136.1,13.5v-.9a4.29,4.29,0,0,0-1.43-.31c-.76,0-1.27.42-1.27,1s.51,1,1.29,1A1.38,1.38,0,0,0,136.1,13.5Z"/><path class="cls-1" d="M141.64,13.14V3.2c0-.68.39-1,1.06-1.07l2.09-.25c.68-.08,1.07.39,1.07,1.07v9.78c0,.2,0,.39.2.39l.37-.09c.37-.08.6.06.76.66l.45,1.6c.21.65,0,.82-.41,1a4.19,4.19,0,0,1-2,.45C142.85,16.78,141.64,15.55,141.64,13.14Z"/></g></g></svg>