<svg xmlns="http://www.w3.org/2000/svg" viewBox="0 0 184.9 31.89"><defs><style>.cls-1{fill:#ee720e;}</style></defs><title>logo_horizontal_naranja</title><g id="Layer_2" data-name="Layer 2"><g id="Capa_1" data-name="Capa 1"><path class="cls-1" d="M37.18,21.12V10a1,1,0,0,1,1.08-1.09h5.33c3.54,0,5.45,1.83,5.45,4.58S47.2,18,43.59,18H41.44v3.1a1,1,0,0,1-1.11,1.09H38.26A1,1,0,0,1,37.18,21.12Zm6.25-6.31a1.24,1.24,0,1,0,0-2.48h-2v2.48Z"/><path class="cls-1" d="M61.21,22a4.66,4.66,0,0,1-1.94.43,2.68,2.68,0,0,1-2.42-1.27,5,5,0,0,1-3.28,1.27c-2.44,0-4.06-1.29-4.06-3.24,0-2.11,1.76-3.52,4.43-3.52a7.08,7.08,0,0,1,2.07.35v-.23c0-.78-.54-1.21-1.54-1.21a5.23,5.23,0,0,0-2,.43.87.87,0,0,1-1.33-.45L50.84,14c-.35-.76-.18-1.17.29-1.44a8.3,8.3,0,0,1,3.65-.9c2.4,0,5.1.94,5.1,4.45V18.6c0,.18,0,.37.18.37s.31-.1.52-.1.47.22.61.69L61.62,21C61.85,21.69,61.58,21.84,61.21,22Zm-5.1-2.85v-.9A4.35,4.35,0,0,0,54.67,18c-.75,0-1.27.41-1.27,1s.52,1,1.3,1A1.38,1.38,0,0,0,56.11,19.19Z"/><path class="cls-1" d="M71.11,12.9l-.49,1.93c-.17.63-.56.76-.92.61a3.78,3.78,0,0,0-1.15-.22,1.47,1.47,0,0,0-1.68,1.6v4.32a1,1,0,0,1-1.07,1.07H63.71a1,1,0,0,1-1.06-1.07V15.61c0-.15-.09-.21-.17-.21s-.49.19-.74.19-.38-.11-.51-.68l-.37-1.74c-.12-.6,0-.88.52-1.13A4.11,4.11,0,0,1,63,11.69a2.91,2.91,0,0,1,2.81,1.52,3.61,3.61,0,0,1,3.1-1.52,5,5,0,0,1,1.62.25C70.9,12.06,71.27,12.23,71.11,12.9Z"/><path class="cls-1" d="M81.13,21.69a4.85,4.85,0,0,1-2.83.78c-2.15,0-4.34-1.17-4.34-4.2V14.85h-.82a1,1,0,0,1-1.07-1.07v-.86a1,1,0,0,1,1.07-1.06H74V9.54c0-.68.39-1,1.06-1.07l2-.24c.68-.08,1.07.39,1.07,1.06v2.57h1.8A1,1,0,0,1,81,12.92v.86a1,1,0,0,1-1.07,1.07h-1.8v2.93c0,.92.45,1.15,1,1.15a1.58,1.58,0,0,0,.76-.27c.55-.35.8-.06,1,.35l.72,1.7C81.81,21.24,81.42,21.49,81.13,21.69Z"/><path class="cls-1" d="M82.42,8.11a2.43,2.43,0,1,1,2.44,2.41A2.43,2.43,0,0,1,82.42,8.11Zm.33,13V12.92a1,1,0,0,1,1.06-1.06H85.9A1,1,0,0,1,87,12.92v8.22a1,1,0,0,1-1.07,1.07H83.81A1,1,0,0,1,82.75,21.14Z"/><path class="cls-1" d="M101,22a4.67,4.67,0,0,1-2,.43A2.65,2.65,0,0,1,96.5,21a4.34,4.34,0,0,1-3.3,1.45,5.13,5.13,0,0,1-5.1-5.39,5.12,5.12,0,0,1,5.1-5.39,4.66,4.66,0,0,1,2.21.54V8.93c0-.7.37-1,1.07-1.07l2.07-.27c.69-.08,1.06.39,1.06,1.07V18.6c0,.18,0,.37.19.37s.31-.1.53-.1.49.22.62.69l.41,1.42C101.56,21.69,101.31,21.84,101,22Zm-5.35-5a1.72,1.72,0,0,0-1.7-1.82,1.7,1.7,0,0,0-1.68,1.82,1.7,1.7,0,0,0,1.68,1.83A1.76,1.76,0,0,0,95.6,17.08Z"/><path class="cls-1" d="M101.54,17.08c0-3.11,2.42-5.39,5.8-5.39s5.8,2.28,5.8,5.39-2.42,5.39-5.8,5.39S101.54,20.2,101.54,17.08Zm7.48,0a1.69,1.69,0,1,0-3.36,0,1.69,1.69,0,1,0,3.36,0Z"/><path class="cls-1" d="M119,21.12V10A1,1,0,0,1,120,8.88h5.21c4.36,0,7.07,2.67,7.07,6.64s-2.71,6.69-7.07,6.69H120A1,1,0,0,1,119,21.12Zm6.1-2.36c1.68,0,2.91-1.13,2.91-3.22s-1.23-3.21-2.91-3.21h-1.84v6.43Z"/><path class="cls-1" d="M132.83,8.11a2.43,2.43,0,1,1,2.44,2.41A2.43,2.43,0,0,1,132.83,8.11Zm.33,13V12.92a1,1,0,0,1,1.06-1.06h2.09a1,1,0,0,1,1.07,1.06v8.22a1,1,0,0,1-1.07,1.07h-2.09A1,1,0,0,1,133.16,21.14Z"/><path class="cls-1" d="M151.31,13.17l-.37,1.74c-.12.57-.37.66-.51.68s-.53-.19-.74-.19-.16.06-.16.21v5.26c0,3.55-2.56,5.33-6,5.33a7.27,7.27,0,0,1-4.76-1.62.91.91,0,0,1-.08-1.37l.82-1a.88.88,0,0,1,1.37-.08,5,5,0,0,0,2.69,1c1,0,2.17-.45,2.17-1.52v-.88a4.9,4.9,0,0,1-2.46.65,4.69,4.69,0,0,1-4.77-4.81,4.69,4.69,0,0,1,4.77-4.82,4.9,4.9,0,0,1,3.24,1.23,3,3,0,0,1,2.64-1.23,4.18,4.18,0,0,1,1.66.35C151.33,12.29,151.44,12.57,151.31,13.17Zm-5.26,3.34a1.74,1.74,0,0,0-1.73-1.83,1.72,1.72,0,0,0-1.7,1.83,1.72,1.72,0,1,0,3.43,0Z"/><path class="cls-1" d="M151.29,8.11a2.43,2.43,0,1,1,2.44,2.41A2.43,2.43,0,0,1,151.29,8.11Zm.33,13V12.92a1,1,0,0,1,1.07-1.06h2.09a1,1,0,0,1,1.06,1.06v8.22a1,1,0,0,1-1.06,1.07h-2.09A1,1,0,0,1,151.62,21.14Z"/><path class="cls-1" d="M166.05,21.69a4.87,4.87,0,0,1-2.83.78c-2.15,0-4.35-1.17-4.35-4.2V14.85h-.82A1,1,0,0,1,157,13.78v-.86a1,1,0,0,1,1.06-1.06h.82V9.54c0-.68.39-1,1.07-1.07L162,8.23c.68-.08,1.06.39,1.06,1.06v2.57h1.81a1,1,0,0,1,1.06,1.06v.86a1,1,0,0,1-1.06,1.07h-1.81v2.93c0,.92.46,1.15,1,1.15a1.61,1.61,0,0,0,.76-.27c.55-.35.79-.06,1,.35l.72,1.7C166.72,21.24,166.33,21.49,166.05,21.69Z"/><path class="cls-1" d="M178.38,22a4.66,4.66,0,0,1-1.94.43A2.68,2.68,0,0,1,174,21.2a5,5,0,0,1-3.28,1.27c-2.44,0-4.06-1.29-4.06-3.24,0-2.11,1.76-3.52,4.43-3.52a7.08,7.08,0,0,1,2.07.35v-.23c0-.78-.54-1.21-1.54-1.21a5.23,5.23,0,0,0-2,.43.87.87,0,0,1-1.33-.45L168,14c-.35-.76-.18-1.17.29-1.44a8.3,8.3,0,0,1,3.65-.9c2.4,0,5.1.94,5.1,4.45V18.6c0,.18,0,.37.18.37s.31-.1.52-.1.47.22.61.69l.43,1.42C179,21.69,178.75,21.84,178.38,22Zm-5.1-2.85v-.9a4.34,4.34,0,0,0-1.43-.31c-.76,0-1.28.41-1.28,1s.52,1,1.3,1A1.38,1.38,0,0,0,173.28,19.19Z"/><path class="cls-1" d="M178.81,18.82V8.88c0-.67.39-1,1.07-1.06L182,7.57c.67-.08,1.06.39,1.06,1.07v9.77c0,.21,0,.39.21.39l.37-.08c.37-.08.59.06.76.66l.45,1.6c.2.65,0,.81-.41,1a4.22,4.22,0,0,1-2,.45C180,22.47,178.81,21.24,178.81,18.82Z"/><path class="cls-1" d="M16,0A15.92,15.92,0,0,0,0,15.86c0,6.26,3.32,9.39,5.75,11.68.38.36.74.7,1.06,1a15.2,15.2,0,0,1,1,1.23c.33.51.61,1.36,1.08,1.7a.16.16,0,0,0,.09,0,1.56,1.56,0,0,0,1,.36,1.71,1.71,0,0,0,1.73-1.68V22.29A11.93,11.93,0,0,0,14,23.34a7.18,7.18,0,0,0,2.18.37,7.6,7.6,0,0,0,3.07-.63,7.86,7.86,0,0,0,2.5-1.68,8,8,0,0,0,1.7-2.49,7.81,7.81,0,0,0,0-6.1,8,8,0,0,0-4.2-4.18,7.69,7.69,0,0,0-5.32-.27,10.45,10.45,0,0,0-2.22,1,2.91,2.91,0,0,0-.73-1A1.5,1.5,0,0,0,10,8,1.73,1.73,0,0,0,8.26,9.7V24.51c-2.16-2-4.32-4.21-4.32-8.65A12,12,0,1,1,16,27.8a2,2,0,1,0,0,3.91A15.86,15.86,0,1,0,16,0ZM12,14.14a4.61,4.61,0,0,1,2.39-2.37,4.22,4.22,0,0,1,1.73-.36,4.3,4.3,0,0,1,1.76.36,4.35,4.35,0,0,1,1.42,1,4.13,4.13,0,0,1,1,1.41,4.33,4.33,0,0,1,.34,1.72,4.4,4.4,0,0,1-.34,1.75,4.13,4.13,0,0,1-1,1.41,4.32,4.32,0,0,1-1.42.95,4.63,4.63,0,0,1-1.76.33A4.55,4.55,0,0,1,14.42,20,4.43,4.43,0,0,1,13,19a4.49,4.49,0,0,1-1-1.41,4.41,4.41,0,0,1-.35-1.75A4.34,4.34,0,0,1,12,14.14Z"/></g></g></svg>