<svg xmlns="http://www.w3.org/2000/svg" viewBox="0 0 89.39 89.89"><defs><style>.cls-1{fill:#1d1d1b;}</style></defs><title>logo_at</title><g id="Layer_2" data-name="Layer 2"><g id="Capa_1" data-name="Capa 1"><path class="cls-1" d="M44.7,0A44.75,44.75,0,0,0,0,44.7C0,62.35,9.31,71.18,16.11,77.63c1.07,1,2.08,2,3,2.9A41.9,41.9,0,0,1,21.76,84c.95,1.45,1.72,3.85,3,4.79a.53.53,0,0,0,.25.1,4.48,4.48,0,0,0,2.83,1,4.78,4.78,0,0,0,4.85-4.74V62.83a32.84,32.84,0,0,0,6.4,3,19.53,19.53,0,0,0,6.13,1,21.29,21.29,0,0,0,8.59-1.75A22.26,22.26,0,0,0,65.62,53.29a21.84,21.84,0,0,0,0-17.18A22.2,22.2,0,0,0,53.85,24.34a21.29,21.29,0,0,0-8.59-1.76,20.78,20.78,0,0,0-6.31,1,29,29,0,0,0-6.22,2.8,8,8,0,0,0-2-2.71,4.29,4.29,0,0,0-2.81-1.09,4.85,4.85,0,0,0-4.74,4.75V69.09C17.09,63.34,11,57.21,11,44.7A33.66,33.66,0,1,1,44.7,78.36a5.52,5.52,0,1,0,0,11A44.7,44.7,0,0,0,44.7,0Zm-11,39.86a13,13,0,0,1,2.71-4,12.79,12.79,0,0,1,4-2.7,11.85,11.85,0,0,1,4.84-1,12.12,12.12,0,0,1,4.94,1,12.86,12.86,0,0,1,4,2.7,12.19,12.19,0,0,1,2.66,4,12.51,12.51,0,0,1,.95,4.84,12.79,12.79,0,0,1-.95,4.94,12.19,12.19,0,0,1-2.66,4,12.38,12.38,0,0,1-4,2.65,12.61,12.61,0,0,1-4.94.95,12.47,12.47,0,0,1-8.83-3.6,13,13,0,0,1-2.71-4,12.28,12.28,0,0,1-1-4.94A12,12,0,0,1,33.72,39.86Z"/></g></g></svg>