<svg xmlns="http://www.w3.org/2000/svg" viewBox="0 0 184.4 31.89"><defs><style>.cls-1{fill:#fff;}</style></defs><title>logo_horizontal_blanco</title><g id="Layer_2" data-name="Layer 2"><g id="Capa_1" data-name="Capa 1"><path class="cls-1" d="M36.68,21.12V10a1,1,0,0,1,1.09-1.09H43.1c3.54,0,5.45,1.83,5.45,4.58S46.7,18,43.1,18H40.94v3.1a1,1,0,0,1-1.1,1.09H37.77A1,1,0,0,1,36.68,21.12Zm6.25-6.31a1.24,1.24,0,1,0,0-2.48h-2v2.48Z"/><path class="cls-1" d="M60.72,22a4.73,4.73,0,0,1-1.95.43,2.71,2.71,0,0,1-2.42-1.27,5,5,0,0,1-3.27,1.27c-2.44,0-4.06-1.29-4.06-3.24,0-2.11,1.76-3.52,4.42-3.52a7,7,0,0,1,2.07.35v-.23c0-.78-.53-1.21-1.53-1.21a5.18,5.18,0,0,0-2,.43.87.87,0,0,1-1.33-.45L50.35,14c-.35-.76-.18-1.17.29-1.44a8.29,8.29,0,0,1,3.64-.9c2.4,0,5.11.94,5.11,4.45V18.6c0,.18,0,.37.18.37s.31-.1.51-.1.48.22.62.69L61.13,21C61.35,21.69,61.09,21.84,60.72,22Zm-5.1-2.85v-.9A4.35,4.35,0,0,0,54.18,18c-.76,0-1.27.41-1.27,1s.51,1,1.29,1A1.4,1.4,0,0,0,55.62,19.19Z"/><path class="cls-1" d="M70.62,12.9l-.5,1.93c-.16.63-.55.76-.92.61a3.78,3.78,0,0,0-1.15-.22,1.47,1.47,0,0,0-1.68,1.6v4.32a1,1,0,0,1-1.06,1.07H63.22a1,1,0,0,1-1.07-1.07V15.61c0-.15-.08-.21-.16-.21s-.49.19-.74.19-.39-.11-.51-.68l-.37-1.74c-.12-.6,0-.88.51-1.13a4.16,4.16,0,0,1,1.64-.35,2.91,2.91,0,0,1,2.81,1.52,3.6,3.6,0,0,1,3.09-1.52,4.87,4.87,0,0,1,1.62.25C70.41,12.06,70.78,12.23,70.62,12.9Z"/><path class="cls-1" d="M80.64,21.69a4.87,4.87,0,0,1-2.83.78c-2.15,0-4.35-1.17-4.35-4.2V14.85h-.82a1,1,0,0,1-1.06-1.07v-.86a1,1,0,0,1,1.06-1.06h.82V9.54c0-.68.39-1,1.07-1.07l2-.24c.68-.08,1.07.39,1.07,1.06v2.57h1.8a1,1,0,0,1,1.06,1.06v.86a1,1,0,0,1-1.06,1.07h-1.8v2.93c0,.92.45,1.15,1,1.15a1.61,1.61,0,0,0,.76-.27c.55-.35.8-.06,1,.35l.72,1.7C81.31,21.24,80.92,21.49,80.64,21.69Z"/><path class="cls-1" d="M81.93,8.11a2.43,2.43,0,1,1,2.44,2.41A2.42,2.42,0,0,1,81.93,8.11Zm.32,13V12.92a1,1,0,0,1,1.07-1.06h2.09a1,1,0,0,1,1.07,1.06v8.22a1,1,0,0,1-1.07,1.07H83.32A1,1,0,0,1,82.25,21.14Z"/><path class="cls-1" d="M100.45,22a4.6,4.6,0,0,1-1.94.43A2.67,2.67,0,0,1,96,21a4.3,4.3,0,0,1-3.29,1.45,5.14,5.14,0,0,1-5.11-5.39,5.13,5.13,0,0,1,5.11-5.39,4.72,4.72,0,0,1,2.21.54V8.93c0-.7.37-1,1.06-1.07l2.07-.27c.7-.08,1.07.39,1.07,1.07V18.6c0,.18,0,.37.18.37s.31-.1.54-.1.49.22.61.69l.41,1.42C101.07,21.69,100.82,21.84,100.45,22Zm-5.35-5a1.69,1.69,0,1,0-3.38,0,1.7,1.7,0,0,0,1.68,1.83A1.75,1.75,0,0,0,95.1,17.08Z"/><path class="cls-1" d="M101.05,17.08c0-3.11,2.41-5.39,5.79-5.39s5.8,2.28,5.8,5.39-2.41,5.39-5.8,5.39S101.05,20.2,101.05,17.08Zm7.48,0a1.69,1.69,0,1,0-3.37,0,1.69,1.69,0,1,0,3.37,0Z"/><path class="cls-1" d="M118.46,21.12V10a1,1,0,0,1,1.09-1.09h5.2c4.37,0,7.07,2.67,7.07,6.64s-2.7,6.69-7.07,6.69h-5.2A1,1,0,0,1,118.46,21.12Zm6.11-2.36c1.68,0,2.91-1.13,2.91-3.22s-1.23-3.21-2.91-3.21h-1.84v6.43Z"/><path class="cls-1" d="M132.34,8.11a2.43,2.43,0,1,1,2.43,2.41A2.42,2.42,0,0,1,132.34,8.11Zm.32,13V12.92a1,1,0,0,1,1.07-1.06h2.09a1,1,0,0,1,1.07,1.06v8.22a1,1,0,0,1-1.07,1.07h-2.09A1,1,0,0,1,132.66,21.14Z"/><path class="cls-1" d="M150.82,13.17l-.37,1.74c-.12.57-.37.66-.51.68s-.53-.19-.74-.19-.16.06-.16.21v5.26c0,3.55-2.56,5.33-6,5.33a7.26,7.26,0,0,1-4.75-1.62.91.91,0,0,1-.08-1.37l.82-1c.34-.41.77-.53,1.37-.08a5,5,0,0,0,2.68,1c1,0,2.18-.45,2.18-1.52v-.88a4.9,4.9,0,0,1-2.46.65A4.69,4.69,0,0,1,138,16.51a4.69,4.69,0,0,1,4.78-4.82A4.87,4.87,0,0,1,146,12.92a3,3,0,0,1,2.65-1.23,4.18,4.18,0,0,1,1.66.35C150.84,12.29,150.94,12.57,150.82,13.17Zm-5.27,3.34a1.71,1.71,0,1,0-3.42,0,1.71,1.71,0,1,0,3.42,0Z"/><path class="cls-1" d="M150.8,8.11a2.43,2.43,0,1,1,2.44,2.41A2.43,2.43,0,0,1,150.8,8.11Zm.33,13V12.92a1,1,0,0,1,1.06-1.06h2.09a1,1,0,0,1,1.07,1.06v8.22a1,1,0,0,1-1.07,1.07h-2.09A1,1,0,0,1,151.13,21.14Z"/><path class="cls-1" d="M165.55,21.69a4.81,4.81,0,0,1-2.82.78c-2.16,0-4.35-1.17-4.35-4.2V14.85h-.82a1,1,0,0,1-1.06-1.07v-.86a1,1,0,0,1,1.06-1.06h.82V9.54c0-.68.39-1,1.07-1.07l2.05-.24c.67-.08,1.06.39,1.06,1.06v2.57h1.8a1,1,0,0,1,1.07,1.06v.86a1,1,0,0,1-1.07,1.07h-1.8v2.93c0,.92.45,1.15,1,1.15a1.54,1.54,0,0,0,.76-.27c.56-.35.8-.06,1,.35l.71,1.7C166.23,21.24,165.84,21.49,165.55,21.69Z"/><path class="cls-1" d="M177.89,22a4.73,4.73,0,0,1-1.95.43,2.71,2.71,0,0,1-2.42-1.27,5,5,0,0,1-3.27,1.27c-2.44,0-4.06-1.29-4.06-3.24,0-2.11,1.76-3.52,4.42-3.52a7,7,0,0,1,2.07.35v-.23c0-.78-.53-1.21-1.53-1.21a5.18,5.18,0,0,0-2,.43.87.87,0,0,1-1.33-.45l-.29-.57c-.35-.76-.18-1.17.29-1.44a8.29,8.29,0,0,1,3.64-.9c2.4,0,5.11.94,5.11,4.45V18.6c0,.18,0,.37.18.37s.31-.1.51-.1.48.22.62.69L178.3,21C178.52,21.69,178.26,21.84,177.89,22Zm-5.1-2.85v-.9a4.41,4.41,0,0,0-1.44-.31c-.76,0-1.27.41-1.27,1s.51,1,1.29,1A1.4,1.4,0,0,0,172.79,19.19Z"/><path class="cls-1" d="M178.32,18.82V8.88c0-.67.39-1,1.06-1.06l2.1-.25c.67-.08,1.06.39,1.06,1.07v9.77c0,.21,0,.39.21.39l.36-.08c.37-.08.6.06.76.66l.45,1.6c.21.65,0,.81-.41,1a4.15,4.15,0,0,1-2,.45C179.53,22.47,178.32,21.24,178.32,18.82Z"/><path class="cls-1" d="M15.94,0A15.91,15.91,0,0,0,0,15.86c0,6.26,3.32,9.39,5.75,11.68.38.36.74.7,1.06,1a13.72,13.72,0,0,1,1,1.23c.34.51.62,1.36,1.09,1.7a.16.16,0,0,0,.09,0,1.56,1.56,0,0,0,1,.36,1.63,1.63,0,0,0,1.23-.51,1.61,1.61,0,0,0,.49-1.17V22.29A11.93,11.93,0,0,0,14,23.34a7.24,7.24,0,0,0,2.19.37,7.55,7.55,0,0,0,3.06-.63,7.9,7.9,0,0,0,2.51-1.68,8.13,8.13,0,0,0,1.69-2.49,7.7,7.7,0,0,0,0-6.1,7.95,7.95,0,0,0-4.2-4.18,7.69,7.69,0,0,0-5.32-.27,10.92,10.92,0,0,0-2.22,1,2.89,2.89,0,0,0-.72-1A1.52,1.52,0,0,0,10,8a1.64,1.64,0,0,0-1.19.51A1.6,1.6,0,0,0,8.25,9.7V24.51c-2.15-2-4.31-4.21-4.31-8.65a12,12,0,1,1,12,11.94,2,2,0,1,0,0,3.91A15.86,15.86,0,1,0,15.94,0ZM12,14.14a4.49,4.49,0,0,1,1-1.41,4.35,4.35,0,0,1,1.42-1,4.22,4.22,0,0,1,1.73-.36,4.33,4.33,0,0,1,1.76.36,4.45,4.45,0,0,1,1.42,1,4.28,4.28,0,0,1,1,1.41,4.51,4.51,0,0,1,.34,1.72,4.59,4.59,0,0,1-.34,1.75,4.28,4.28,0,0,1-1,1.41,4.43,4.43,0,0,1-1.42.95,4.67,4.67,0,0,1-1.76.33A4.55,4.55,0,0,1,14.42,20,4.32,4.32,0,0,1,13,19a4.49,4.49,0,0,1-1-1.41,4.25,4.25,0,0,1-.36-1.75A4.18,4.18,0,0,1,12,14.14Z"/></g></g></svg>