<?xml version="1.0" encoding="utf-8"?>
<!DOCTYPE svg PUBLIC "-//W3C//DTD SVG 1.1//EN" "http://www.w3.org/Graphics/SVG/1.1/DTD/svg11.dtd">
<svg version="1.1" id="Layer_1" xmlns="http://www.w3.org/2000/svg" xmlns:xlink="http://www.w3.org/1999/xlink" x="0px" y="0px"
	 viewBox="0 0 800 600" enable-background="new 0 0 800 600" xml:space="preserve">
<path fill="#FFFFFF" stroke="#FFFFFF" stroke-width="2" stroke-miterlimit="10" d="M236.672,161.731
	c55.715,45.85,109.191,94.236,165.242,139.708c0,0.427,0,0.854,0,1.281c-56.271,46.075-110.385,94.594-166.375,140.99
	c-0.751-23.929,1.508-51.267-1.131-73.06c-61.494,0-122.987,0-184.482,0c0-45.715,0-91.429,0-137.144c61.495,0,122.988,0,184.482,0
	c0.378,0,0.754,0,1.131,0C236.294,210.007,234.033,183.095,236.672,161.731z"/>
<g>
	<path fill="#FFFFFF" d="M757.328,36.63c0.678,0.084,0.418,1.104,0.457,1.829c-0.152,0-0.305,0-0.457,0
		C757.328,37.849,757.328,37.24,757.328,36.63z"/>
	<path fill="#FFFFFF" d="M757.785,40.288c0.152,0,0.306,0,0.458,0c0,0.914,0,1.829,0,2.743c-0.152,0-0.306,0-0.458,0
		c0-0.457,0-0.914,0-1.372C757.785,41.203,757.785,40.745,757.785,40.288z"/>
	<path fill="#FFFFFF" d="M757.328,41.659c0.152,0,0.305,0,0.457,0c0,0.458,0,0.915,0,1.372s0,0.915,0,1.371
		C756.775,44.346,757.591,42.463,757.328,41.659z"/>
	<path fill="#FFFFFF" d="M757.785,43.031c0.152,0,0.306,0,0.458,0c0,0.915,0,1.829,0,2.743c-0.152,0-0.306,0-0.458,0
		c0-0.457,0-0.914,0-1.372S757.785,43.488,757.785,43.031z"/>
	<path fill="#FFFFFF" d="M757.785,45.773c0.152,0,0.306,0,0.458,0c0,0.762,0,1.524,0,2.286
		C757.251,48.137,758.035,46.439,757.785,45.773z"/>
	<path fill="#FFFFFF" d="M482.559,68.176c67.207-0.762,137.613-0.762,204.82,0c-0.456,0-0.914,0-1.371,0
		c-66.597,0-133.192,0-199.791,0C484.997,68.176,483.777,68.176,482.559,68.176z"/>
	<path fill="#FFFFFF" d="M474.786,68.633c0.057-1.01,1.939-0.193,2.743-0.457c0,0.152,0,0.305,0,0.457
		C476.615,68.633,475.701,68.633,474.786,68.633z"/>
	<path fill="#FFFFFF" d="M477.529,68.633c0-0.152,0-0.304,0-0.457c0.763,0,1.524,0,2.286,0c0,0.152,0,0.305,0,0.457
		C479.054,68.633,478.292,68.633,477.529,68.633z"/>
	<path fill="#FFFFFF" d="M479.815,68.633c0-0.152,0-0.304,0-0.457c0.915,0,1.829,0,2.743,0c1.219,0,2.438,0,3.657,0
		c0,0.152,0,0.305,0,0.457C484.082,68.633,481.949,68.633,479.815,68.633z"/>
	<path fill="#FFFFFF" d="M486.216,68.633c0-0.152,0-0.304,0-0.457c66.599,0,133.194,0,199.791,0c0,0.152,0,0.305,0,0.457
		C619.409,68.633,552.813,68.633,486.216,68.633z"/>
	<path fill="#FFFFFF" d="M686.007,68.633c0-0.152,0-0.304,0-0.457c0.458,0,0.915,0,1.372,0c0.152,0,0.304,0,0.456,0
		c0,0.152,0,0.305,0,0.457C687.227,68.633,686.617,68.633,686.007,68.633z"/>
	<path fill="#FFFFFF" d="M687.836,68.633c0-0.152,0-0.304,0-0.457c0.724,0.038,1.744-0.22,1.828,0.457
		C689.055,68.633,688.445,68.633,687.836,68.633z"/>
	<path fill="#FFFFFF" d="M460.614,142.241c0,111.097,0,222.194,0,333.29c0,0.304,0,0.609,0,0.915
		C459.852,366.111,459.852,252.572,460.614,142.241z"/>
	<path fill="#FFFFFF" d="M577.196,232.307c0.762,0,1.523,0,2.285,0c0,0.152,0,0.304,0,0.457
		C578.817,232.514,577.119,233.298,577.196,232.307z"/>
	<path fill="#FFFFFF" d="M579.482,232.764c0-0.152,0-0.305,0-0.457c1.524,0,3.049,0,4.571,0c0,0.152,0,0.304,0,0.457
		C582.529,232.764,581.006,232.764,579.482,232.764z"/>
	<path fill="#FFFFFF" d="M584.054,232.764c0-0.152,0-0.305,0-0.457c0.762,0,1.524,0,2.286,0
		C586.416,233.298,584.719,232.514,584.054,232.764z"/>
	<path fill="#FFFFFF" d="M703.381,452.672c0.152,0,0.305,0,0.457,0c0,3.048,0,6.095,0,9.144c0,0.914,0,1.828,0,2.743
		c0,1.676,0,3.352,0,5.029c-0.152,0-0.305,0-0.457,0C703.381,463.949,703.381,458.31,703.381,452.672z"/>
	<path fill="#FFFFFF" d="M703.838,461.815c0.749-0.075,0.749,2.818,0,2.743C703.838,463.644,703.838,462.729,703.838,461.815z"/>
	<path fill="#FFFFFF" d="M703.381,469.588c0,0.762,0,1.523,0,2.284c0,0.611,0,1.22,0,1.829c-0.152,0-0.305,0-0.458,0
		C703.206,472.462,702.343,470.073,703.381,469.588z"/>
	<path fill="#FFFFFF" d="M703.381,469.588c0.152,0,0.305,0,0.457,0c0,0.762,0,1.523,0,2.284c-0.152,0-0.305,0-0.457,0
		C703.381,471.111,703.381,470.35,703.381,469.588z"/>
	<path fill="#FFFFFF" d="M703.381,471.873c0.152,0,0.305,0,0.457,0c-0.272,0.947,0.564,3.003-0.457,3.2c0-0.456,0-0.914,0-1.371
		C703.381,473.093,703.381,472.483,703.381,471.873z"/>
	<path fill="#FFFFFF" d="M702.923,476.445c0.153,0,0.305,0,0.457,0c-0.038,0.724,0.218,1.743-0.457,1.829
		C702.923,477.664,702.923,477.055,702.923,476.445z"/>
	<path fill="#FFFFFF" d="M460.614,478.274c0.151,0,0.304,0,0.456,0c0,0.609,0,1.219,0,1.828
		C460.449,479.961,460.692,478.958,460.614,478.274z"/>
	<path fill="#FFFFFF" d="M473.872,489.247c0.762,0,1.523,0,2.287,0c0,0.151,0,0.304,0,0.456
		C475.493,489.454,473.795,490.238,473.872,489.247z"/>
	<path fill="#FFFFFF" d="M481.188,489.704c0-0.152,0-0.305,0-0.456c67.054,0,134.108,0,201.161,0c0,0.151,0,0.304,0,0.456
		C615.296,489.704,548.241,489.704,481.188,489.704z"/>
	<path fill="#FFFFFF" d="M687.836,489.704c0-0.152,0-0.305,0-0.456c0.762,0,1.523,0,2.285,0
		C690.197,490.238,688.5,489.454,687.836,489.704z"/>
	<path fill="#FFFFFF" d="M479.357,489.704c0.61,0,1.22,0,1.83,0c67.054,0,134.108,0,201.161,0c0.914,0,1.83,0,2.744,0
		C617.581,490.466,546.869,490.466,479.357,489.704z"/>
	<path fill="#FFFFFF" d="M578.568,517.592c-0.328-0.741,2.155-0.741,1.828,0C579.786,517.592,579.177,517.592,578.568,517.592z"/>
	<path fill="#FFFFFF" d="M573.996,518.049c0.142-0.62,1.145-0.379,1.828-0.456C575.741,518.27,574.719,518.011,573.996,518.049z"/>
	<path fill="#FFFFFF" d="M554.337,536.337c0,0.61,0,1.219,0,1.828c-0.152,0-0.305,0-0.457,0
		C553.918,537.441,553.66,536.42,554.337,536.337z"/>
	<path fill="#FFFFFF" d="M603.256,538.622c0.62,0.143,0.38,1.145,0.457,1.83c-0.152,0-0.305,0-0.457,0
		C603.256,539.842,603.256,539.231,603.256,538.622z"/>
	<path fill="#FFFFFF" d="M603.256,540.452c0.152,0,0.305,0,0.457,0c0,0.762,0,1.524,0,2.285c-0.152,0-0.305,0-0.457,0
		C603.256,541.976,603.256,541.214,603.256,540.452z"/>
	<path fill="#FFFFFF" d="M603.256,543.194c0.152,0,0.305,0,0.457,0c0,0.763,0,1.525,0,2.286c-0.152,0-0.305,0-0.457,0
		C603.256,544.719,603.256,543.957,603.256,543.194z"/>
	<path fill="#FFFFFF" d="M553.88,544.566c0.677,0.084,0.418,1.104,0.457,1.828C553.717,546.253,553.958,545.25,553.88,544.566z"/>
	<path fill="#FFFFFF" d="M603.256,545.48c0.152,0,0.305,0,0.457,0c-0.038,0.724,0.219,1.744-0.457,1.828
		C603.256,546.699,603.256,546.09,603.256,545.48z"/>
	<path fill="#FFFFFF" d="M757.785,562.396c0.152,0,0.306,0,0.458,0c0,0.609,0,1.218,0,1.828c-0.152,0-0.306,0-0.458,0
		C757.785,563.616,757.785,563.006,757.785,562.396z"/>
	<path fill="#FFFFFF" d="M574.91,567.883c0.61,0,1.22,0,1.828,0c0,0.152,0,0.305,0,0.457
		C576.016,568.302,574.996,568.56,574.91,567.883z"/>
	<path fill="#FFFFFF" d="M576.738,568.34c0-0.152,0-0.305,0-0.457c1.067,0,2.134,0,3.202,0c0,0.152,0,0.305,0,0.457
		C578.872,568.34,577.806,568.34,576.738,568.34z"/>
	<path fill="#FFFFFF" d="M579.94,568.34c0-0.152,0-0.305,0-0.457c0.762,0,1.524,0,2.285,0
		C582.303,568.874,580.604,568.09,579.94,568.34z"/>
	<path fill="#FFFFFF" d="M717.096,599.429c0.059-1.01,1.939-0.194,2.743-0.457c0,0.152,0,0.305,0,0.457c-0.456,0-0.914,0-1.371,0
		C718.01,599.429,717.552,599.429,717.096,599.429z"/>
	<path fill="#FFFFFF" d="M722.582,599.429c0-0.152,0-0.305,0-0.457c0.61,0,1.219,0,1.829,0
		C724.327,599.648,723.305,599.391,722.582,599.429z"/>
	<path fill="#FFFFFF" d="M444.612,599.886c0-0.151,0-0.304,0-0.456c89.609,0,179.217,0,268.826,0c0,0.152,0,0.305,0,0.456
		C623.829,599.886,534.222,599.886,444.612,599.886z"/>
	<path fill="#FFFFFF" d="M713.438,599.886c0-0.151,0-0.304,0-0.456c0.762,0,1.523,0,2.285,0c0,0.152,0,0.305,0,0.456
		C714.962,599.886,714.2,599.886,713.438,599.886z"/>
	<path fill="#FFFFFF" d="M715.725,599.886c0-0.151,0-0.304,0-0.456c0.457,0,0.915,0,1.371,0s0.914,0,1.372,0
		c0,0.152,0,0.305,0,0.456C717.552,599.886,716.638,599.886,715.725,599.886z"/>
	<path fill="#FFFFFF" d="M718.468,599.886c0-0.151,0-0.304,0-0.456c0.456,0,0.914,0,1.371,0c0.305,0,0.61,0,0.915,0
		C720.832,600.42,719.131,599.636,718.468,599.886z"/>
	<path fill="#FFFFFF" d="M443.698,599.886c0.305,0,0.609,0,0.914,0c89.609,0,179.217,0,268.826,0c0.762,0,1.523,0,2.285,0
		C626.112,600.647,533.308,600.647,443.698,599.886z"/>
	<path fill="#FFFFFF" d="M419.01,12.856c0.961-0.563,1.783-1.265,2.743-1.829c-0.256,0.658-0.714,1.115-1.373,1.371
		c-1.715,1.332-3.238,2.856-4.571,4.572c-0.256,0.658-0.713,1.116-1.371,1.371c0.563-0.96,1.266-1.782,1.828-2.743
		C417.373,14.878,418.288,13.964,419.01,12.856z"/>
	<path fill="#FFFFFF" d="M416.266,15.6c0.722-1.107,1.636-2.022,2.743-2.743C418.288,13.964,417.373,14.878,416.266,15.6z"/>
	<path fill="#FFFFFF" d="M743.612,12.399c0.152,0,0.305,0,0.457,0c0.203,0.407,0.401,0.817,0.915,0.914
		c0.161,0.601,0.805,0.72,0.914,1.373C744.943,14.117,744.181,13.356,743.612,12.399z"/>
	<path fill="#FFFFFF" d="M745.898,14.686c-0.109-0.653-0.753-0.772-0.914-1.373c1.41,1.028,2.63,2.247,3.657,3.658
		c-0.37-0.086-0.456-0.458-0.914-0.457C747.314,15.708,746.705,15.098,745.898,14.686z"/>
	<path fill="#FFFFFF" d="M747.728,16.514c0.458-0.001,0.544,0.37,0.914,0.457c0.162,0.6,0.805,0.719,0.915,1.371
		C748.749,17.93,748.141,17.32,747.728,16.514z"/>
	<path fill="#FFFFFF" d="M752.299,22.458c0.874,0.956,1.475,2.183,1.83,3.657C753.255,25.159,752.654,23.931,752.299,22.458z"/>
	<path fill="#FFFFFF" d="M751.841,580.228c0.154-1.066,0.471-1.97,1.372-2.285c-0.242,0.367-0.478,0.742-0.458,1.37
		C752.26,579.426,752.447,580.221,751.841,580.228z"/>
	<path fill="#FFFFFF" d="M746.813,586.171c0.568-0.956,1.329-1.72,2.285-2.285c-0.135,0.931-1.236,0.895-1.37,1.828
		C747.356,585.8,747.271,586.172,746.813,586.171z"/>
	<path fill="#FFFFFF" d="M744.526,588.456c0.957-0.567,1.72-1.328,2.286-2.285c0.458,0.001,0.544-0.371,0.915-0.457
		c-1.18,1.563-2.552,2.935-4.115,4.114C743.774,589.228,744.417,589.108,744.526,588.456z"/>
	<path fill="#FFFFFF" d="M741.784,591.199c0.721-1.107,1.635-2.022,2.742-2.743c-0.109,0.652-0.752,0.771-0.914,1.371
		c-0.657,0.257-1.115,0.714-1.371,1.371C742.089,591.199,741.937,591.199,741.784,591.199z"/>
	<path fill="#FFFFFF" d="M421.753,592.113c-0.414-0.806-1.023-1.414-1.829-1.828c-0.413-0.806-1.022-1.415-1.828-1.829
		c-0.256-0.658-0.714-1.116-1.373-1.371c0-0.151,0-0.304,0-0.456c2.021,1.637,3.849,3.466,5.488,5.485
		C422.058,592.113,421.905,592.113,421.753,592.113z"/>
	<path fill="#FFFFFF" d="M409.409,27.487c0.505-1.779,1.264-3.309,2.285-4.572C411.188,24.694,410.429,26.223,409.409,27.487z"/>
	<path fill="#FFFFFF" d="M415.809,16.972c1.333-1.716,2.856-3.24,4.571-4.572C419.049,14.115,417.524,15.639,415.809,16.972z"/>
	<path fill="#FFFFFF" d="M426.325,8.285c0.955-0.873,2.182-1.474,3.657-1.829C429.025,7.329,427.799,7.93,426.325,8.285z"/>
	<path fill="#FFFFFF" d="M748.642,16.972c-1.027-1.411-2.246-2.631-3.657-3.658c-0.514-0.097-0.712-0.507-0.915-0.914
		c2.78,1.639,5.017,3.822,6.401,6.858c-0.408-0.203-0.817-0.401-0.914-0.915C749.446,17.69,748.804,17.572,748.642,16.972z"/>
	<path fill="#FFFFFF" d="M739.498,9.199c-1.169-0.052-1.6-0.838-2.285-1.371C738.279,7.98,739.183,8.296,739.498,9.199z"/>
	<path fill="#FFFFFF" d="M462.442,73.663c0.658,0.104,0.158,1.364,0.915,1.371c-0.129,0.739,0.431,0.788,0.456,1.373
		C462.858,75.99,462.42,75.056,462.442,73.663z"/>
	<path fill="#FFFFFF" d="M465.186,78.234c1.18,1.563,2.552,2.934,4.114,4.115c0.408,0.203,0.817,0.402,0.914,0.914
		c-2.525-1.436-4.506-3.417-5.942-5.943C464.678,77.522,465.088,77.722,465.186,78.234z"/>
	<path fill="#FFFFFF" d="M479.815,91.036c24.015,19.417,46.864,40.002,70.863,59.435c0,0.152,0,0.304,0,0.457
		C526.759,131.262,503.292,111.146,479.815,91.036z"/>
	<path fill="#FFFFFF" d="M553.423,153.213c2.01,1.342,3.897,2.808,5.486,4.572C556.799,156.541,554.958,155.03,553.423,153.213z"/>
	<path fill="#FFFFFF" d="M566.681,164.186c0.153,0,0.304,0,0.458,0c0.205,1.319,1.966,1.081,2.285,2.285
		C568.246,165.973,567.227,165.316,566.681,164.186z"/>
	<path fill="#FFFFFF" d="M583.597,176.072c0.932-0.134,0.896-1.237,1.829-1.371c-0.546,1.13-1.566,1.788-2.744,2.287
		C582.885,176.58,583.084,176.169,583.597,176.072z"/>
	<path fill="#FFFFFF" d="M588.627,171.5c2.952-2.077,5.45-4.607,8.229-6.858c0.932-0.135,0.896-1.237,1.829-1.372
		c-3.678,3.79-7.94,6.995-11.886,10.515C587.107,172.725,588.316,172.563,588.627,171.5z"/>
	<path fill="#FFFFFF" d="M601.885,160.071c6.009-4.658,11.481-9.853,17.373-14.63c0.933-0.134,0.896-1.237,1.828-1.371
		c-6.725,6.379-14.067,12.144-21.03,18.288C600.364,161.294,601.575,161.134,601.885,160.071z"/>
	<path fill="#FFFFFF" d="M622.458,142.698c9.577-8.102,18.949-16.407,28.803-24.231c-9.328,8.503-19.271,16.391-28.803,24.688
		C622.458,143.003,622.458,142.851,622.458,142.698z"/>
	<path fill="#FFFFFF" d="M654.004,116.181c7.047-6.518,14.811-12.315,21.944-18.746c0.152,0,0.305,0,0.457,0
		C669.23,103.977,661.664,110.126,654.004,116.181z"/>
	<path fill="#FFFFFF" d="M687.836,87.835c0.807-0.413,1.416-1.023,1.828-1.828c0.152,0,0.305,0,0.457,0
		c-1.832,2.13-3.961,3.962-6.4,5.485C684.829,90.01,686.507,89.099,687.836,87.835z"/>
	<path fill="#FFFFFF" d="M690.121,86.007c0.568-0.956,1.329-1.719,2.286-2.287c-0.162,0.601-0.806,0.72-0.915,1.373
		C690.893,85.254,690.773,85.897,690.121,86.007z"/>
	<path fill="#FFFFFF" d="M691.493,85.092c0.109-0.653,0.753-0.771,0.914-1.373c2.478-2.095,4.763-4.38,6.859-6.858
		c0.369-0.086,0.455-0.458,0.914-0.457C697.475,79.492,694.58,82.387,691.493,85.092z"/>
	<path fill="#FFFFFF" d="M699.267,76.863c0.413-0.806,1.021-1.416,1.828-1.829c-0.162,0.601-0.806,0.719-0.914,1.373
		C699.722,76.403,699.636,76.775,699.267,76.863z"/>
	<path fill="#FFFFFF" d="M701.095,74.119c-0.135-0.933-1.237-0.896-1.371-1.829c0.806,0.413,1.416,1.022,1.829,1.829
		C701.399,74.119,701.247,74.119,701.095,74.119z"/>
	<path fill="#FFFFFF" d="M690.579,69.091c0.856,0.668,3.03,0.018,3.658,0.914C692.682,70.037,691.046,70.148,690.579,69.091z"/>
	<path fill="#FFFFFF" d="M699.267,72.292c0.151,0,0.304,0,0.456,0c0.135,0.932,1.237,0.896,1.372,1.829
		C700.288,73.706,699.679,73.097,699.267,72.292z"/>
	<path fill="#FFFFFF" d="M697.437,78.234c1.027-1.412,2.247-2.631,3.658-3.658c0,0.152,0,0.304,0,0.457
		c-0.807,0.414-1.415,1.023-1.828,1.829C698.333,76.997,698.368,78.1,697.437,78.234z"/>
	<path fill="#FFFFFF" d="M693.779,81.892c1.41-1.028,2.631-2.247,3.657-3.657c0.932-0.134,0.896-1.237,1.83-1.372
		c-2.097,2.477-4.382,4.763-6.859,6.858C692.541,82.789,693.645,82.824,693.779,81.892z"/>
	<path fill="#FFFFFF" d="M689.664,86.007c1.181-1.563,2.552-2.935,4.115-4.115c-0.135,0.932-1.238,0.896-1.372,1.828
		c-0.956,0.568-1.718,1.33-2.286,2.287C689.969,86.007,689.816,86.007,689.664,86.007z"/>
	<path fill="#FFFFFF" d="M688.293,86.921c0.601-0.162,0.719-0.805,1.37-0.914c-0.413,0.805-1.021,1.416-1.828,1.828
		C687.923,87.465,688.295,87.379,688.293,86.921z"/>
	<path fill="#FFFFFF" d="M683.263,91.492c1.371-1.829,3.41-2.991,5.03-4.571c0.002,0.458-0.371,0.544-0.457,0.914
		c-1.329,1.264-3.007,2.175-4.114,3.657C683.569,91.492,683.415,91.492,683.263,91.492z"/>
	<path fill="#FFFFFF" d="M678.235,95.607c0.732-1.706,2.794-2.083,4.113-3.2C681.485,93.98,679.548,94.482,678.235,95.607z"/>
	<path fill="#FFFFFF" d="M621.086,143.613c17.949-15.73,36.164-31.196,54.863-46.177c-7.134,6.43-14.898,12.228-21.945,18.746
		c-0.896,0.778-2.284,1.067-2.743,2.285c-9.853,7.825-19.226,16.13-28.802,24.231C621.857,142.859,621.738,143.502,621.086,143.613z
		"/>
	<path fill="#FFFFFF" d="M619.715,144.526c0.6-0.161,0.719-0.804,1.37-0.914c0.653-0.11,0.772-0.753,1.372-0.914
		c0,0.152,0,0.304,0,0.457c-0.602,0.161-0.719,0.805-1.372,0.914c-0.932,0.135-0.895,1.237-1.828,1.371
		C619.345,145.07,619.717,144.984,619.715,144.526z"/>
	<path fill="#FFFFFF" d="M601.885,160.071c5.658-5.466,11.936-10.314,17.83-15.545c0.002,0.458-0.37,0.544-0.457,0.915
		C613.366,150.218,607.894,155.413,601.885,160.071z"/>
	<path fill="#FFFFFF" d="M598.685,162.814c0.412-0.806,1.022-1.416,1.828-1.829C600.101,161.791,599.491,162.401,598.685,162.814z"
		/>
	<path fill="#FFFFFF" d="M597.313,163.729c0.601-0.162,0.72-0.805,1.371-0.914c0.806-0.413,1.416-1.023,1.829-1.829
		c0.601-0.162,0.72-0.805,1.37-0.914c-0.309,1.062-1.519,1.224-1.829,2.286c-0.601,0.162-0.719,0.805-1.37,0.914
		c-0.933,0.135-0.896,1.237-1.829,1.372C596.942,164.272,597.313,164.188,597.313,163.729z"/>
	<path fill="#FFFFFF" d="M588.627,171.5c2.529-2.955,5.856-5.115,8.686-7.771c0.002,0.458-0.37,0.544-0.456,0.915
		C594.077,166.894,591.578,169.423,588.627,171.5z"/>
	<path fill="#FFFFFF" d="M585.426,174.243c0.413-0.805,1.021-1.415,1.829-1.828C586.842,173.222,586.231,173.831,585.426,174.243z"
		/>
	<path fill="#FFFFFF" d="M583.597,176.072c0.413-0.806,1.022-1.416,1.829-1.829c0.806-0.413,1.416-1.022,1.829-1.828
		c0.601-0.162,0.718-0.805,1.37-0.915c-0.309,1.063-1.519,1.225-1.828,2.286c-0.602,0.162-0.719,0.805-1.371,0.915
		C584.493,174.835,584.529,175.938,583.597,176.072z"/>
	<path fill="#FFFFFF" d="M579.94,174.701c-1.313-1.125-3.252-1.626-4.116-3.201C577.146,172.617,579.207,172.995,579.94,174.701z"/>
	<path fill="#FFFFFF" d="M569.424,166.471c-0.319-1.206-2.082-0.967-2.285-2.285c1.178,0.499,2.196,1.155,2.743,2.285
		C569.729,166.471,569.577,166.471,569.424,166.471z"/>
	<path fill="#FFFFFF" d="M558.909,157.786c-1.588-1.764-3.477-3.229-5.486-4.572c-0.659-0.255-1.115-0.713-1.371-1.371
		c2.663,1.754,5.285,3.552,7.313,5.943C559.213,157.786,559.061,157.786,558.909,157.786z"/>
	<path fill="#FFFFFF" d="M550.679,150.471c-23.999-19.432-46.849-40.018-70.863-59.435c-0.658-0.256-1.116-0.714-1.372-1.372
		C503.115,109.341,526.737,130.064,550.679,150.471z"/>
	<path fill="#FFFFFF" d="M470.214,83.263c-0.097-0.512-0.507-0.711-0.914-0.914c-0.086-0.37-0.458-0.456-0.456-0.915
		c0.806,0.413,1.415,1.023,1.828,1.829C470.519,83.263,470.366,83.263,470.214,83.263z"/>
	<path fill="#FFFFFF" d="M469.3,82.349c-1.563-1.18-2.935-2.552-4.114-4.115c1.498,0.789,2.159,2.412,3.657,3.2
		C468.842,81.894,469.213,81.979,469.3,82.349z"/>
	<path fill="#FFFFFF" d="M462.442,73.663c0.335-0.427,0.831-0.693,1.371-0.915c-0.384,0.531-0.604,1.226-0.456,2.285
		C462.601,75.027,463.101,73.766,462.442,73.663z"/>
	<path fill="#FFFFFF" d="M698.809,486.503c1.704-0.886,2.169-3.013,3.2-4.571c-0.261,2.481-1.648,3.838-3.2,5.029
		c-0.153,0-0.306,0-0.458,0C698.268,486.571,698.529,486.529,698.809,486.503z"/>
	<path fill="#FFFFFF" d="M699.267,144.526c0.315-0.903,1.219-1.218,2.285-1.371c0,0.152,0,0.304,0,0.457
		C700.415,143.541,700.136,144.33,699.267,144.526z"/>
	<path fill="#FFFFFF" d="M695.15,147.727c0.545-1.131,1.565-1.788,2.742-2.287c-0.317,1.206-2.081,0.967-2.284,2.287
		C695.456,147.727,695.305,147.727,695.15,147.727z"/>
	<path fill="#FFFFFF" d="M693.323,149.099c0.931-0.134,0.896-1.237,1.829-1.371c-0.876,1.258-1.942,2.326-3.201,3.2
		C692.085,149.995,693.188,150.031,693.323,149.099z"/>
	<path fill="#FFFFFF" d="M690.121,152.298c0.874-1.259,1.94-2.326,3.2-3.2c-0.135,0.932-1.237,0.896-1.371,1.829
		C691.02,151.062,691.055,152.164,690.121,152.298z"/>
	<path fill="#FFFFFF" d="M684.636,156.871c1.165-1.73,3.113-2.677,4.571-4.115c-0.085,0.371-0.457,0.456-0.456,0.915
		c-0.407,0.203-0.816,0.402-0.914,0.915c-0.896,0.778-2.285,1.067-2.743,2.285C684.94,156.871,684.788,156.871,684.636,156.871z"/>
	<path fill="#FFFFFF" d="M674.12,165.557c2.46-2.568,5.207-4.852,8.229-6.858c-0.205,1.32-1.967,1.081-2.285,2.286
		c-2.01,1.343-3.897,2.808-5.486,4.572C674.425,165.557,674.272,165.557,674.12,165.557z"/>
	<path fill="#FFFFFF" d="M617.429,213.105c16.84-14.859,34.077-29.319,51.662-43.433c-0.204,1.319-1.966,1.081-2.285,2.285
		c-6.729,5.31-13.33,10.749-19.659,16.459c-0.897,0.779-2.284,1.068-2.742,2.287C635.1,197.857,626.6,205.815,617.429,213.105z"/>
	<path fill="#FFFFFF" d="M616.058,214.02c0.6-0.162,0.719-0.805,1.371-0.914c-0.414,0.806-1.022,1.416-1.828,1.829
		C615.687,214.563,616.06,214.478,616.058,214.02z"/>
	<path fill="#FFFFFF" d="M610.571,219.048c1.575-1.93,3.698-3.312,5.486-5.03c0.002,0.459-0.371,0.544-0.456,0.915
		C613.883,216.265,612.454,217.884,610.571,219.048z"/>
	<path fill="#FFFFFF" d="M563.938,227.278c-0.113-0.497-0.909-0.311-0.915-0.915c1.067,0.153,1.97,0.468,2.286,1.371
		C564.941,227.493,564.567,227.258,563.938,227.278z"/>
	<path fill="#FFFFFF" d="M555.709,221.334c-0.66-1.321-2.199-1.764-3.2-2.743c-0.414-0.806-1.024-1.416-1.829-1.829
		c-0.087-0.37-0.459-0.456-0.457-0.915c1.92,1.891,4.293,3.327,5.943,5.487C556.014,221.334,555.861,221.334,555.709,221.334z"/>
	<path fill="#FFFFFF" d="M550.679,216.763c-0.932-0.135-0.896-1.237-1.828-1.372c0-0.152,0-0.304,0-0.457
		c0.601,0.162,0.72,0.805,1.372,0.914C550.221,216.307,550.593,216.393,550.679,216.763z"/>
	<path fill="#FFFFFF" d="M548.851,214.933c-0.932-0.134-0.896-1.237-1.829-1.371c-0.932-0.135-0.896-1.237-1.828-1.371
		c-0.458-1.219-1.845-1.507-2.744-2.287c-0.204-1.319-1.966-1.081-2.285-2.285C543.331,209.786,546.313,212.137,548.851,214.933z"/>
	<path fill="#FFFFFF" d="M532.393,201.218c-1.091-0.739-2.016-1.642-3.201-2.285c0-0.152,0-0.304,0-0.458
		C530.328,199.32,531.771,199.857,532.393,201.218z"/>
	<path fill="#FFFFFF" d="M526.448,196.188c-12.928-10.236-24.941-21.388-37.946-31.546c-0.319-1.206-2.082-0.967-2.287-2.286
		C500.021,173.24,513.25,184.699,526.448,196.188z"/>
	<path fill="#FFFFFF" d="M483.473,160.528c-0.204-1.319-1.968-1.081-2.285-2.286c1.177,0.499,2.197,1.155,2.742,2.286
		C483.777,160.528,483.625,160.528,483.473,160.528z"/>
	<path fill="#FFFFFF" d="M460.614,142.241c1.196,0.478,1.902,1.45,2.743,2.285c-1.225-0.269-2.678-2.655-2.287,0.457
		c0,110.182,0,220.365,0,330.546c-0.152,0-0.305,0-0.456,0C460.614,364.435,460.614,253.337,460.614,142.241z"/>
	<path fill="#FFFFFF" d="M702.466,143.155c2.232-1.361,1.372,12.884,1.372,18.745c0,95.928,0,196.143,0,290.772
		c-0.152,0-0.305,0-0.457,0c0-75.194,0-155.055,0-231.795c0-26.129,1.486-51.996,0-76.809
		C703.334,143.304,703.188,143.197,702.466,143.155z"/>
	<path fill="#FFFFFF" d="M480.73,158.242c0.152,0,0.305,0,0.457,0c0.317,1.206,2.081,0.967,2.285,2.286
		C482.295,160.03,481.274,159.373,480.73,158.242z"/>
	<path fill="#FFFFFF" d="M488.502,164.644c13.005,10.159,25.019,21.31,37.947,31.546c0.658,0.256,1.115,0.713,1.372,1.371
		C514.197,187.104,501.454,175.769,488.502,164.644z"/>
	<path fill="#FFFFFF" d="M529.191,198.933c1.186,0.643,2.11,1.546,3.201,2.285c0.768,1.519,3.025,1.546,3.657,3.201
		C533.495,202.858,531.051,201.188,529.191,198.933z"/>
	<path fill="#FFFFFF" d="M539.707,207.618c0.152,0,0.305,0,0.457,0c0.318,1.206,2.081,0.967,2.285,2.285
		C541.272,209.406,540.252,208.749,539.707,207.618z"/>
	<path fill="#FFFFFF" d="M545.193,212.191c0.932,0.134,0.896,1.237,1.828,1.371c0.087,0.37,0.459,0.456,0.457,0.915
		C546.523,213.908,545.76,213.147,545.193,212.191z"/>
	<path fill="#FFFFFF" d="M547.479,214.477c0.002-0.459-0.37-0.544-0.457-0.915c0.933,0.134,0.897,1.237,1.829,1.371
		c0,0.152,0,0.304,0,0.457C548.197,215.281,548.08,214.638,547.479,214.477z"/>
	<path fill="#FFFFFF" d="M548.851,215.391c0.932,0.135,0.896,1.237,1.828,1.372c0.087,0.37,0.459,0.456,0.457,0.914
		C550.18,217.109,549.418,216.347,548.851,215.391z"/>
	<path fill="#FFFFFF" d="M551.137,217.677c0.001-0.458-0.369-0.544-0.457-0.914c0.807,0.413,1.416,1.023,1.829,1.829
		C551.856,218.481,551.737,217.838,551.137,217.677z"/>
	<path fill="#FFFFFF" d="M552.509,218.592c1.001,0.979,2.538,1.422,3.2,2.743C554.296,220.766,553.256,219.826,552.509,218.592z"/>
	<path fill="#FFFFFF" d="M563.938,227.278c0.63-0.02,1.004,0.215,1.371,0.457c0.104,0.658,1.364,0.159,1.371,0.914
		C565.286,228.671,564.354,228.233,563.938,227.278z"/>
	<path fill="#FFFFFF" d="M597.313,228.649c0.952-0.572,1.928-1.12,2.743-1.829C600.039,228.329,598.756,228.568,597.313,228.649z"/>
	<path fill="#FFFFFF" d="M610.571,219.048c1.883-1.165,3.312-2.783,5.029-4.115c0.806-0.413,1.414-1.023,1.828-1.829
		c9.171-7.29,17.671-15.247,26.976-22.402c-11.921,10.329-23.806,20.695-36.118,30.632
		C608.604,220.129,610.366,220.368,610.571,219.048z"/>
	<path fill="#FFFFFF" d="M647.145,188.416c6.33-5.709,12.931-11.149,19.661-16.459C660.545,177.738,653.892,183.123,647.145,188.416
		z"/>
	<path fill="#FFFFFF" d="M674.577,165.557c1.589-1.764,3.476-3.229,5.486-4.572C678.528,162.802,676.687,164.313,674.577,165.557z"
		/>
	<path fill="#FFFFFF" d="M685.093,156.871c0.457-1.218,1.846-1.507,2.743-2.285C687.29,155.715,686.27,156.373,685.093,156.871z"/>
	<path fill="#FFFFFF" d="M690.121,152.298c0.933-0.135,0.896-1.237,1.829-1.371c-0.088,0.371-0.458,0.456-0.457,0.915
		c-0.96,0.563-1.782,1.266-2.743,1.829c-0.001-0.458,0.372-0.544,0.457-0.915C689.578,152.669,689.663,152.297,690.121,152.298z"/>
	<path fill="#FFFFFF" d="M691.493,151.842c-0.001-0.458,0.371-0.544,0.457-0.915c1.26-0.874,2.326-1.942,3.2-3.2
		c0.152,0,0.305,0,0.457,0C694.429,149.29,693.056,150.662,691.493,151.842z"/>
	<path fill="#FFFFFF" d="M696.522,487.418c0.363-0.452,2.149-1.742,2.286-0.915c-0.279,0.026-0.541,0.068-0.458,0.458
		C697.944,487.315,697.318,487.452,696.522,487.418z"/>
	<path fill="#FFFFFF" d="M557.994,527.65c0.031-1.341,1.045-1.698,1.828-2.285c0,0.151,0,0.304,0,0.456
		C558.75,525.968,558.8,527.236,557.994,527.65z"/>
	<path fill="#FFFFFF" d="M555.709,551.424c0.68,0.388,0.661,1.472,0.914,2.286C555.944,553.321,555.64,552.56,555.709,551.424z"/>
	<path fill="#FFFFFF" d="M557.08,554.624c0.496,0.113,0.311,0.91,0.914,0.914c-0.128,0.738,0.433,0.787,0.457,1.371
		C557.548,556.594,557.232,555.69,557.08,554.624z"/>
	<path fill="#FFFFFF" d="M560.28,559.196c1.027,1.41,2.246,2.631,3.657,3.657c0.407,0.202,0.817,0.401,0.915,0.914
		c-2.37-1.287-4.198-3.116-5.487-5.485c0.152,0,0.305,0,0.457,0C559.91,558.652,560.281,558.737,560.28,559.196z"/>
	<path fill="#FFFFFF" d="M566.225,564.682c0.368,0.243,0.741,0.479,1.371,0.458c0.126,0.94,1.703,0.431,1.829,1.372
		C568.098,566.161,566.795,565.788,566.225,564.682z"/>
	<path fill="#FFFFFF" d="M594.57,562.854c1.168-1.271,2.386-2.489,3.657-3.657C597.512,560.92,596.294,562.139,594.57,562.854z"/>
	<path fill="#FFFFFF" d="M600.056,556.453c0.535-0.685,0.568-1.87,1.371-2.286C601.274,555.233,600.959,556.137,600.056,556.453z"/>
	<path fill="#FFFFFF" d="M589.083,519.878c1.168,0.203,2.103,0.641,2.743,1.371C590.658,521.046,589.725,520.608,589.083,519.878z"
		/>
	<path fill="#FFFFFF" d="M598.685,527.65c0.533,0.687,1.321,1.117,1.371,2.285C599.152,529.62,598.837,528.717,598.685,527.65z"/>
	<path fill="#FFFFFF" d="M594.112,562.854c1.179-1.563,2.551-2.935,4.115-4.113c0,0.151,0,0.304,0,0.456
		c-1.271,1.168-2.49,2.387-3.659,3.657C594.416,562.854,594.264,562.854,594.112,562.854z"/>
	<path fill="#FFFFFF" d="M566.225,564.682c-0.113-0.495-0.909-0.308-0.914-0.914c1.065,0.153,1.969,0.47,2.285,1.372
		C566.966,565.16,566.591,564.925,566.225,564.682z"/>
	<path fill="#FFFFFF" d="M563.938,562.854c-1.411-1.026-2.63-2.246-3.657-3.657C561.691,560.224,562.911,561.442,563.938,562.854z"
		/>
	<path fill="#FFFFFF" d="M557.994,555.538c1.157,0.368,1.166,1.883,1.828,2.744c-0.152,0-0.305,0-0.457,0
		c-0.394-0.369-0.271-1.253-0.914-1.372C558.427,556.325,557.866,556.277,557.994,555.538z"/>
	<path fill="#FFFFFF" d="M556.166,531.766c0.203-1.169,0.641-2.103,1.37-2.744C557.334,530.189,556.896,531.124,556.166,531.766z"/>
	<path fill="#FFFFFF" d="M559.823,525.364c0.933-0.136,0.897-1.238,1.829-1.371c-0.414,0.806-1.023,1.415-1.829,1.828
		C559.823,525.669,559.823,525.517,559.823,525.364z"/>
	<path fill="#FFFFFF" d="M408.951,573.826c0.679,0.387,0.661,1.473,0.915,2.286C409.187,575.724,408.883,574.961,408.951,573.826z"
		/>
	<path fill="#FFFFFF" d="M411.237,578.855c0.803,0.416,0.836,1.602,1.372,2.284C411.706,580.825,411.39,579.922,411.237,578.855z"/>
	<path fill="#FFFFFF" d="M420.838,591.656c-1.603-1.294-3.229-2.563-4.115-4.571c0.658,0.255,1.115,0.712,1.372,1.37
		c0.412,0.807,1.021,1.416,1.828,1.829C420.085,590.885,420.729,591.004,420.838,591.656z"/>
	<path fill="#FFFFFF" d="M427.695,595.771c-1.442-0.081-2.727-0.322-2.743-1.83C425.768,594.651,426.743,595.2,427.695,595.771z"/>
	<path fill="#FFFFFF" d="M735.84,595.314c0.953-0.572,1.929-1.12,2.744-1.829C738.567,594.993,737.283,595.233,735.84,595.314z"/>
	<path fill="#FFFFFF" d="M743.612,589.827c1.564-1.18,2.936-2.552,4.115-4.114c0.37-0.087,0.455-0.459,0.914-0.457
		c-1.755,2.208-3.819,4.105-5.943,5.943c-0.152,0-0.305,0-0.457,0C742.497,590.541,742.955,590.084,743.612,589.827z"/>
	<path fill="#FFFFFF" d="M747.728,585.713c0.135-0.933,1.236-0.896,1.37-1.828c0.203-0.409,0.402-0.817,0.915-0.915
		c-0.268,0.951-0.961,1.479-1.371,2.285C748.183,585.254,748.098,585.626,747.728,585.713z"/>
	<path fill="#FFFFFF" d="M752.755,579.313c-0.02-0.628,0.217-1.004,0.458-1.37c0.496-0.114,0.31-0.91,0.915-0.915
		C753.977,578.094,753.66,578.997,752.755,579.313z"/>
	<path fill="#FFFFFF" d="M419.924,590.285c-0.806-0.413-1.415-1.022-1.828-1.829C418.901,588.869,419.511,589.479,419.924,590.285z"
		/>
	<path fill="#FFFFFF" d="M420.838,591.656c-0.11-0.653-0.753-0.772-0.915-1.371c0.807,0.414,1.416,1.022,1.829,1.828
		C421.382,592.027,421.297,591.655,420.838,591.656z"/>
	<path fill="#FFFFFF" d="M724.411,2.799c4.436,1.507,8.607,3.28,12.802,5.029c0.686,0.534,1.116,1.32,2.284,1.371
		c1.109,1.329,3.164,1.712,4.114,3.201c0.568,0.957,1.33,1.718,2.287,2.287c0.806,0.412,1.414,1.022,1.828,1.828
		c0.413,0.806,1.022,1.416,1.829,1.829c0.097,0.514,0.507,0.713,0.914,0.915c0.492,1.185,1.651,1.699,1.828,3.201
		c0.355,1.474,0.956,2.701,1.83,3.657c1.72,2.7,2.504,6.335,2.743,10.516c0.263,0.804-0.554,2.686,0.456,2.743
		c0,0.763,0,1.524,0,2.286c0.264,0.804-0.553,2.687,0.457,2.744c0,0.457,0,0.914,0,1.372c0.251,0.665-0.534,2.362,0.457,2.286
		c0,170.372,0,340.768,0,511.136c-0.991-0.077-0.208,1.621-0.457,2.286c-1.011,0.057-0.193,1.938-0.457,2.742
		c-0.114,5.221-1.883,8.783-3.199,12.802c-0.605,0.005-0.418,0.801-0.915,0.915c-0.901,0.315-1.218,1.219-1.372,2.285
		c-0.298,1.224-1.308,1.737-1.828,2.743c-0.513,0.098-0.712,0.507-0.915,0.915c-0.956,0.566-1.718,1.329-2.285,2.285
		c-0.566,0.957-1.329,1.719-2.286,2.285c-1.107,0.721-2.021,1.636-2.742,2.743c-0.683,1.147-2.053,1.606-3.2,2.286
		c-0.814,0.709-1.791,1.257-2.744,1.829c-3.26,1.614-6.748,3.005-11.429,3.2c-0.805,0.262-2.687-0.554-2.743,0.456
		c-0.61,0-1.219,0-1.83,0c-0.803,0.263-2.686-0.552-2.743,0.457c-0.457,0-0.914,0-1.371,0c-0.763,0-1.524,0-2.285,0
		c-89.609,0-179.217,0-268.826,0c-0.609,0-1.22,0-1.828,0c-0.197-1.022-2.255-0.186-3.2-0.457c-4.816-0.213-8.348-1.711-11.888-3.2
		c-0.952-0.571-1.927-1.12-2.743-1.829c-1.416-0.107-1.775-1.272-2.742-1.829c-1.638-2.019-3.468-3.849-5.488-5.485
		c-1.781-1.419-2.487-3.912-4.113-5.488c-0.537-0.684-0.569-1.869-1.372-2.284c-0.204-1.169-0.641-2.102-1.371-2.743
		c-0.253-0.813-0.234-1.899-0.914-2.286c-0.813-2.541-1.625-5.082-2.743-7.315c-0.001-176.935-0.001-353.856-0.001-530.793
		c1.232-2.578,1.655-5.965,3.201-8.229c1.02-1.265,1.778-2.793,2.285-4.572c0.519-1.92,1.914-2.963,2.743-4.572
		c0.658-0.256,1.115-0.713,1.37-1.371c1.717-1.332,3.24-2.856,4.572-4.572c0.658-0.256,1.115-0.714,1.372-1.371
		c1.609-0.83,2.652-2.225,4.571-2.743c1.474-0.355,2.702-0.956,3.657-1.829c2.359-1.908,6.368-2.167,9.145-3.657
		C534.223,2.799,629.313,2.799,724.411,2.799z M482.559,68.176c-0.914,0-1.828,0-2.743,0c-0.762,0-1.523,0-2.286,0
		c-0.804,0.263-2.687-0.553-2.743,0.457c-0.305,0-0.61,0-0.914,0c-0.946,0.272-3.004-0.565-3.2,0.457
		c-0.538,0.071-1.298-0.079-1.372,0.457c-2.698,0.196-3.767,2.023-5.485,3.201c-0.541,0.222-1.036,0.487-1.372,0.915
		c-0.021,1.394,0.417,2.328,1.372,2.743c0.356,0.101,0.531,0.383,0.457,0.915c1.437,2.525,3.417,4.507,5.942,5.943
		c0.152,0,0.305,0,0.457,0c2.433,2.292,5.305,4.144,7.771,6.401c0.257,0.659,0.714,1.115,1.372,1.372
		c23.477,20.109,46.943,40.226,70.863,59.892c0.652,0.109,0.771,0.752,1.372,0.914c0.256,0.658,0.713,1.115,1.371,1.371
		c1.535,1.817,3.377,3.328,5.486,4.572c0.151,0,0.304,0,0.456,0c2.257,2.317,5.061,4.083,7.315,6.401
		c0.546,1.13,1.565,1.787,2.743,2.285c0.152,0,0.304,0,0.456,0c1.821,1.836,3.925,3.39,5.944,5.029
		c0.863,1.574,2.801,2.075,4.114,3.201c0.628,1.049,1.884,1.47,2.743,2.287c1.178-0.499,2.198-1.155,2.744-2.287
		c0.653-0.109,0.771-0.753,1.371-0.915c3.946-3.521,8.208-6.726,11.887-10.515c0.653-0.109,0.771-0.752,1.37-0.914
		c6.962-6.145,14.306-11.908,21.031-18.288c0.653-0.109,0.772-0.753,1.372-0.914c9.532-8.298,19.476-16.186,28.802-24.688
		c0.458-1.218,1.846-1.507,2.743-2.285c7.66-6.056,15.229-12.204,22.403-18.746c0.043-1.175,1.784-0.654,1.829-1.829
		c1.313-1.125,3.25-1.626,4.114-3.2c0.513-0.097,0.712-0.507,0.914-0.915c0.152,0,0.305,0,0.457,0
		c2.438-1.523,4.567-3.355,6.4-5.485c0.653-0.11,0.771-0.754,1.371-0.915c3.087-2.705,5.981-5.6,8.687-8.687
		c0.109-0.653,0.754-0.771,0.915-1.372c0-0.152,0-0.304,0-0.457c0.279-0.025,0.541-0.068,0.457-0.457
		c-0.414-0.806-1.022-1.416-1.83-1.829c-0.151,0-0.304,0-0.456,0c-1.258-1.181-2.878-1.998-5.027-2.287
		c-0.629-0.896-2.803-0.246-3.659-0.914c-0.101-0.357-0.383-0.532-0.915-0.457c-0.084-0.676-1.104-0.418-1.828-0.457
		c-0.152,0-0.305,0-0.457,0C620.172,67.415,549.766,67.415,482.559,68.176z M460.614,476.445c0,0.609,0,1.218,0,1.829
		c0.078,0.684-0.164,1.686,0.456,1.828c0.104,0.355,0.013,0.901,0.458,0.915c0.295,5.343,4.839,6.438,9.143,7.771
		c0.058,1.01,1.939,0.194,2.743,0.458c0.152,0,0.305,0,0.457,0c-0.077,0.991,1.622,0.207,2.286,0.456c1.066,0,2.133,0,3.2,0
		c67.512,0.762,138.224,0.762,205.735,0c0.914,0,1.829,0,2.743,0c0.664-0.25,2.361,0.535,2.285-0.456
		c0.537-0.072,1.298,0.077,1.371-0.458c1.996-0.138,3.792-0.476,5.029-1.371c0.796,0.034,1.422-0.102,1.828-0.456
		c0.152,0,0.305,0,0.458,0c1.552-1.191,2.939-2.548,3.199-5.029c0.113-1.411,0.463-2.585,0.915-3.657
		c0.676-0.086,0.419-1.105,0.457-1.83c0-0.457,0-0.914,0-1.371c1.021-0.197,0.185-2.253,0.457-3.2c0-0.762,0-1.523,0-2.284
		c0-1.679,0-3.354,0-5.029c0.749,0.075,0.749-2.818,0-2.743c0-3.049,0-6.097,0-9.144c0-94.629,0-194.844,0-290.772
		c0-5.86,0.86-20.105-1.372-18.744c-0.305,0-0.609,0-0.914,0c-1.066,0.153-1.97,0.469-2.285,1.371
		c-0.119,0.643-1.004,0.521-1.372,0.915c-1.178,0.499-2.198,1.155-2.742,2.287c-0.933,0.135-0.896,1.236-1.829,1.371
		c-1.26,0.875-2.326,1.941-3.201,3.201c-0.458-0.001-0.543,0.37-0.915,0.457c-1.457,1.437-3.406,2.385-4.571,4.115
		c-0.361,1.011-1.599,1.145-2.285,1.829c-3.023,2.006-5.77,4.289-8.229,6.858c-1.552,1.497-3.135,2.961-5.029,4.115
		c-17.584,14.114-34.822,28.574-51.662,43.433c-0.653,0.109-0.771,0.752-1.37,0.914c-1.79,1.716-3.911,3.099-5.487,5.03
		c-0.205,1.319-1.967,1.081-2.286,2.286c-2.89,1.681-4.945,4.198-8.229,5.486c-0.813,0.709-1.791,1.257-2.743,1.829
		c-3.213,1.512-6.241,3.208-10.973,3.201c-3.048,0-6.096,0-9.144,0c-4.353-0.22-7.448-1.695-10.516-3.201
		c-0.007-0.754-1.269-0.256-1.37-0.914c-0.316-0.903-1.221-1.219-2.286-1.371c-2.557-1.407-4.827-3.098-6.858-5.029
		c-1.65-2.16-4.023-3.596-5.943-5.487c-0.652-0.109-0.771-0.752-1.372-0.914c-2.538-2.796-5.52-5.148-8.687-7.315
		c-0.152,0-0.305,0-0.457,0c-1.109-1.176-2.412-2.161-3.657-3.2c-0.632-1.655-2.89-1.683-3.657-3.201
		c-0.621-1.361-2.063-1.898-3.2-2.743c-0.653-0.11-0.772-0.752-1.371-0.915c-0.257-0.659-0.714-1.115-1.372-1.371
		c-13.199-11.489-26.427-22.95-40.233-33.832c-0.687-0.685-1.925-0.818-2.286-1.829c-0.545-1.13-1.565-1.788-2.742-2.286
		c-0.152,0-0.305,0-0.456,0c-5.613-4.75-11.273-9.453-17.374-13.716c-0.841-0.835-1.545-1.808-2.743-2.285
		C459.852,252.572,459.852,366.111,460.614,476.445z M578.568,517.592c-0.915,0-1.83,0-2.744,0
		c-0.684,0.078-1.687-0.164-1.828,0.456c-0.355,0.103-0.901,0.014-0.914,0.458c-4.852,0.785-8.583,2.693-11.43,5.486
		c-0.932,0.134-0.896,1.236-1.829,1.371c-0.784,0.587-1.798,0.944-1.828,2.285c-0.025,0.584-0.586,0.634-0.456,1.371
		c-0.731,0.642-1.169,1.575-1.371,2.744c-0.802,0.875-0.971,2.383-1.372,3.657c-0.356,0.1-0.531,0.383-0.457,0.914
		c-0.677,0.084-0.419,1.104-0.456,1.828c0,2.135,0,4.268,0,6.402c0.078,0.684-0.164,1.687,0.456,1.828
		c0.103,0.355,0.013,0.902,0.457,0.914c-0.141,1.818,1.057,2.297,0.914,4.115c-0.068,1.135,0.236,1.897,0.915,2.285
		c0.356,0.102,0.531,0.383,0.457,0.915c0.152,1.065,0.468,1.969,1.371,2.285c0.643,0.119,0.521,1.003,0.914,1.372
		c1.289,2.368,3.117,4.198,5.487,5.485c0.151,0,0.304,0,0.456,0c0.005,0.605,0.801,0.419,0.914,0.915
		c0.571,1.105,1.875,1.479,3.201,1.829c2.03-0.049,2.683,1.279,5.029,0.914c0.025,0.279,0.068,0.541,0.457,0.457
		c0.084,0.677,1.104,0.418,1.828,0.456c1.067,0,2.134,0,3.2,0c0.665-0.249,2.363,0.536,2.286-0.456
		c0.278-0.025,0.541-0.068,0.457-0.457c4.953-0.379,8.576-2.092,11.43-4.572c0.152,0,0.305,0,0.457,0
		c1.725-0.715,2.943-1.934,3.657-3.657c0-0.152,0-0.305,0-0.457c1.235-0.138,0.819-1.922,1.829-2.285
		c0.902-0.316,1.218-1.22,1.37-2.286c0.06-2.533,1.656-3.525,1.372-6.4c0.278-0.026,0.54-0.068,0.457-0.458
		c0.676-0.084,0.418-1.104,0.456-1.828c0-0.762,0-1.524,0-2.286c0-0.152,0-0.304,0-0.456c0-0.763,0-1.524,0-2.285
		c-0.077-0.686,0.163-1.687-0.456-1.83c-0.072-0.538,0.078-1.297-0.457-1.371c-0.586-2.766-1.255-5.45-2.743-7.314
		c-0.052-1.169-0.838-1.6-1.371-2.285c-1.531-2.889-3.774-5.064-6.858-6.401c-0.641-0.731-1.575-1.169-2.743-1.371
		c-0.775-0.899-2.126-1.227-3.657-1.371c0.076-0.991-1.622-0.208-2.286-0.457c-0.058-1.01-1.939-0.194-2.743-0.456
		C580.724,516.851,578.24,516.851,578.568,517.592z"/>
	<path fill="#FFFFFF" d="M757.785,40.288c0,0.457,0,0.914,0,1.371c-0.152,0-0.304,0-0.456,0c0-0.762,0-1.524,0-2.287
		c0-0.304,0-0.61,0-0.914c0.152,0,0.304,0,0.456,0C757.785,39.069,757.785,39.678,757.785,40.288z"/>
	<path fill="#FFFFFF" d="M470.671,69.091c0.197-1.022,2.254-0.185,3.2-0.457c0,0.152,0,0.305,0,0.457c-0.152,0-0.305,0-0.457,0
		C472.5,69.091,471.586,69.091,470.671,69.091z"/>
	<path fill="#FFFFFF" d="M689.664,68.633c0.532-0.074,0.814,0.101,0.915,0.457c-0.804-0.263-2.686,0.553-2.743-0.457
		C688.445,68.633,689.055,68.633,689.664,68.633z"/>
	<path fill="#FFFFFF" d="M702.923,476.445c0-0.915,0-1.83,0-2.744c0.153,0,0.305,0,0.457,0c0,0.457,0,0.914,0,1.371s0,0.914,0,1.372
		C703.229,476.445,703.076,476.445,702.923,476.445z"/>
	<path fill="#FFFFFF" d="M461.07,477.359c0,0.304,0,0.61,0,0.915c-0.152,0-0.305,0-0.456,0c0-0.611,0-1.22,0-1.829
		c0-0.306,0-0.611,0-0.915c0.151,0,0.304,0,0.456,0C461.07,476.14,461.07,476.75,461.07,477.359z"/>
	<path fill="#FFFFFF" d="M461.07,477.359c1.031,0.34,0.18,2.563,0.458,3.658c-0.445-0.014-0.354-0.56-0.458-0.915
		c0-0.609,0-1.219,0-1.828C461.07,477.97,461.07,477.664,461.07,477.359z"/>
	<path fill="#FFFFFF" d="M470.671,488.789c0.915,0,1.829,0,2.743,0c0,0.152,0,0.306,0,0.458
		C472.611,488.983,470.729,489.799,470.671,488.789z"/>
	<path fill="#FFFFFF" d="M686.465,489.247c0.782-1.048,3.489-0.17,5.028-0.458c-0.072,0.536-0.834,0.386-1.372,0.458
		c-0.762,0-1.523,0-2.284,0C687.379,489.247,686.922,489.247,686.465,489.247z"/>
	<path fill="#FFFFFF" d="M686.465,489.247c0.457,0,0.914,0,1.371,0c0,0.151,0,0.304,0,0.456c-0.914,0-1.829,0-2.743,0
		s-1.83,0-2.744,0c0-0.152,0-0.305,0-0.456C683.722,489.247,685.093,489.247,686.465,489.247z"/>
	<path fill="#FFFFFF" d="M583.14,518.049c0.664,0.25,2.362-0.534,2.286,0.458c-0.947-0.272-3.004,0.564-3.2-0.458
		C582.529,518.049,582.835,518.049,583.14,518.049z"/>
	<path fill="#FFFFFF" d="M603.256,545.48c0,0.609,0,1.219,0,1.828c0.085,0.39-0.179,0.432-0.456,0.457
		c0.287-1.389-0.586-3.938,0.456-4.572C603.256,543.957,603.256,544.719,603.256,545.48z"/>
	<path fill="#FFFFFF" d="M757.785,562.396c0,0.609,0,1.218,0,1.828c-0.152,0-0.304,0-0.456,0c0.264-0.804-0.553-2.686,0.456-2.742
		C757.785,561.787,757.785,562.092,757.785,562.396z"/>
	<path fill="#FFFFFF" d="M721.668,598.972c0.058-1.011,1.939-0.194,2.743-0.457c0,0.153,0,0.306,0,0.457c-0.61,0-1.219,0-1.829,0
		C722.277,598.972,721.973,598.972,721.668,598.972z"/>
	<path fill="#FFFFFF" d="M442.782,599.429c0.61,0,1.221,0,1.828,0c0,0.152,0,0.305,0,0.456c-0.304,0-0.609,0-0.914,0
		c-0.663-0.25-2.363,0.535-2.286-0.456C441.867,599.429,442.326,599.429,442.782,599.429z"/>
	<path fill="#FFFFFF" d="M474.786,68.633c0.915,0,1.829,0,2.743,0c0.763,0,1.524,0,2.286,0c-1.081,1.052-4.104,0.164-5.943,0.457
		c0-0.152,0-0.305,0-0.457C474.176,68.633,474.481,68.633,474.786,68.633z"/>
	<path fill="#FFFFFF" d="M470.671,69.091c0.915,0,1.829,0,2.743,0c-0.486,1.038-2.874,0.174-4.114,0.457
		C469.374,69.012,470.134,69.162,470.671,69.091z"/>
	<path fill="#FFFFFF" d="M701.552,143.155c0.305,0,0.609,0,0.914,0c0.722,0.042,0.868,0.149,0.915,0.914
		c1.486,24.812,0,50.679,0,76.809c0,76.739,0,156.6,0,231.795c-1.067-102.106-0.152-206.19-0.458-309.06c-0.456,0-0.914,0-1.37,0
		C701.552,143.459,701.552,143.308,701.552,143.155z"/>
	<path fill="#FFFFFF" d="M473.414,488.789c1.241,0.283,3.628-0.58,4.115,0.458c-0.456,0-0.914,0-1.37,0c-0.764,0-1.525,0-2.287,0
		c-0.152,0-0.305,0-0.456,0C473.414,489.095,473.414,488.941,473.414,488.789z"/>
	<path fill="#FFFFFF" d="M554.794,535.423c-0.278,1.093,0.574,3.316-0.457,3.657c0-0.305,0-0.61,0-0.915c0-0.609,0-1.218,0-1.828
		C554.263,535.806,554.438,535.522,554.794,535.423z"/>
	<path fill="#FFFFFF" d="M603.256,538.622c0,0.609,0,1.22,0,1.83c0,0.762,0,1.524,0,2.285c-1.049-0.932-0.166-3.796-0.456-5.487
		C603.336,537.325,603.184,538.085,603.256,538.622z"/>
	<path fill="#FFFFFF" d="M574.453,567.426c2.743,0,5.487,0,8.229,0c0.085,0.388-0.179,0.431-0.456,0.456c-0.762,0-1.524,0-2.285,0
		c-1.068,0-2.135,0-3.202,0c-0.609,0-1.219,0-1.828,0C574.521,567.967,574.479,567.705,574.453,567.426z"/>
	<path fill="#FFFFFF" d="M477.529,489.247c1.219,0,2.438,0,3.658,0c0,0.151,0,0.304,0,0.456c-0.61,0-1.22,0-1.83,0
		c-1.067,0-2.134,0-3.2,0c0-0.152,0-0.305,0-0.456C476.615,489.247,477.071,489.247,477.529,489.247z"/>
	<path fill="#FFFFFF" d="M575.824,517.592c0.914,0,1.829,0,2.743,0c0.61,0,1.219,0,1.829,0c0.804,0.263,2.686-0.553,2.743,0.456
		c-0.305,0-0.61,0-0.914,0c-3.553-0.352-5.807,0.594-9.144,0.458c0.013-0.445,0.559-0.355,0.914-0.458
		C574.719,518.011,575.741,518.27,575.824,517.592z"/>
	<path fill="#FFFFFF" d="M554.337,539.079c-0.354,3.251,0.691,5.1,0.456,8.229c-0.443-0.012-0.354-0.559-0.456-0.914
		c-0.039-0.724,0.22-1.744-0.457-1.828c0-2.134,0-4.267,0-6.402c0.152,0,0.305,0,0.457,0
		C554.337,538.47,554.337,538.774,554.337,539.079z"/>
	<path fill="#FFFFFF" d="M758.243,559.196c0,1.066,0,2.134,0,3.2c-0.152,0-0.306,0-0.458,0c0-0.305,0-0.61,0-0.914
		C758.035,560.817,757.251,559.119,758.243,559.196z"/>
	<path fill="#FFFFFF" d="M719.839,598.972c0.61,0,1.22,0,1.829,0c0.305,0,0.61,0,0.914,0c0,0.152,0,0.305,0,0.457
		c-0.609,0-1.219,0-1.828,0c-0.305,0-0.609,0-0.915,0C719.839,599.276,719.839,599.124,719.839,598.972z"/>
	<path fill="#FFFFFF" d="M757.328,36.63c0,0.61,0,1.219,0,1.829c0,0.304,0,0.61,0,0.914c-1.011-0.057-0.193-1.939-0.457-2.743
		C757.023,36.63,757.176,36.63,757.328,36.63z"/>
	<path fill="#FFFFFF" d="M577.196,231.85c3.048,0,6.096,0,9.144,0c0,0.152,0,0.304,0,0.457c-0.762,0-1.524,0-2.286,0
		c-1.524,0-3.047,0-4.571,0c-0.763,0-1.524,0-2.285,0C577.196,232.154,577.196,232.002,577.196,231.85z"/>
	<path fill="#FFFFFF" d="M439.583,598.972c0.946,0.271,3.002-0.565,3.199,0.457c-0.456,0-0.915,0-1.371,0
		C440.727,599.351,439.725,599.592,439.583,598.972z"/>
</g>
</svg>
