<?xml version="1.0" encoding="utf-8"?>
<!-- Generator: Adobe Illustrator 15.1.0, SVG Export Plug-In . SVG Version: 6.00 Build 0)  -->
<!DOCTYPE svg PUBLIC "-//W3C//DTD SVG 1.1//EN" "http://www.w3.org/Graphics/SVG/1.1/DTD/svg11.dtd">
<svg version="1.1" id="Layer_1" xmlns="http://www.w3.org/2000/svg" xmlns:xlink="http://www.w3.org/1999/xlink" x="0px" y="0px"
	 width="370px" height="627px" viewBox="0 0 370 627" enable-background="new 0 0 370 627" xml:space="preserve">
<g>
	<path fill="#FFF8F5" d="M369.039,35.558c0.712,0.089,0.439,1.161,0.48,1.922c-0.16,0-0.32,0-0.48,0
		C369.039,36.839,369.039,36.199,369.039,35.558z"/>
	<path fill="#FFF8F5" d="M369.52,39.402c0.16,0,0.32,0,0.48,0c0,0.961,0,1.922,0,2.883c-0.16,0-0.32,0-0.48,0
		c0-0.48,0-0.961,0-1.441C369.52,40.364,369.52,39.883,369.52,39.402z"/>
	<path fill="#F3762B" d="M369.039,40.844c0.16,0,0.32,0,0.48,0c0,0.48,0,0.961,0,1.441s0,0.961,0,1.441
		C368.458,43.667,369.314,41.688,369.039,40.844z"/>
	<path fill="#FBCDB1" d="M369.52,42.285c0.16,0,0.32,0,0.48,0c0,0.961,0,1.922,0,2.883c-0.16,0-0.32,0-0.48,0
		c0-0.48,0-0.961,0-1.442S369.52,42.766,369.52,42.285z"/>
	<path fill="#F69961" d="M369.52,45.168c0.16,0,0.32,0,0.48,0c0,0.801,0,1.602,0,2.402C368.958,47.652,369.782,45.867,369.52,45.168
		z"/>
	<path fill="#F3762B" d="M80.247,68.714c70.637-0.801,144.636-0.801,215.272,0c-0.479,0-0.961,0-1.44,0
		c-69.996,0-139.99,0-209.987,0C82.81,68.714,81.528,68.714,80.247,68.714z"/>
	<path fill="#F3762B" d="M72.078,69.194c0.06-1.062,2.038-0.204,2.883-0.48c0,0.16,0,0.32,0,0.48
		C74,69.194,73.039,69.194,72.078,69.194z"/>
	<path fill="#F69961" d="M74.961,69.194c0-0.16,0-0.32,0-0.48c0.801,0,1.602,0,2.403,0c0,0.16,0,0.32,0,0.48
		C76.563,69.194,75.762,69.194,74.961,69.194z"/>
	<path fill="#FBCDB1" d="M77.364,69.194c0-0.16,0-0.32,0-0.48c0.961,0,1.922,0,2.883,0c1.282,0,2.563,0,3.844,0
		c0,0.16,0,0.32,0,0.48C81.849,69.194,79.606,69.194,77.364,69.194z"/>
	<path fill="#FFF8F5" d="M84.091,69.194c0-0.16,0-0.32,0-0.48c69.997,0,139.991,0,209.987,0c0,0.16,0,0.32,0,0.48
		C224.081,69.194,154.087,69.194,84.091,69.194z"/>
	<path fill="#FBCDB1" d="M294.078,69.194c0-0.16,0-0.32,0-0.48c0.48,0,0.961,0,1.441,0c0.16,0,0.319,0,0.479,0c0,0.16,0,0.32,0,0.48
		C295.359,69.194,294.719,69.194,294.078,69.194z"/>
	<path fill="#F69961" d="M296,69.194c0-0.16,0-0.32,0-0.48c0.761,0.04,1.833-0.231,1.922,0.48
		C297.281,69.194,296.641,69.194,296,69.194z"/>
	<path fill="#F3762B" d="M57.182,146.558c0,116.766,0,233.533,0,350.298c0,0.319,0,0.641,0,0.961
		C56.381,381.854,56.381,262.52,57.182,146.558z"/>
	<path fill="#FFF8F5" d="M179.714,241.22c0.801,0,1.602,0,2.402,0c0,0.16,0,0.32,0,0.48
		C181.418,241.438,179.633,242.262,179.714,241.22z"/>
	<path fill="#FBCDB1" d="M182.117,241.701c0-0.16,0-0.32,0-0.48c1.602,0,3.204,0,4.805,0c0,0.16,0,0.32,0,0.48
		C185.32,241.701,183.719,241.701,182.117,241.701z"/>
	<path fill="#FFF8F5" d="M186.922,241.701c0-0.16,0-0.32,0-0.48c0.801,0,1.602,0,2.402,0
		C189.404,242.262,187.62,241.438,186.922,241.701z"/>
	<path fill="#FBCDB1" d="M312.338,472.831c0.16,0,0.32,0,0.48,0c0,3.203,0,6.406,0,9.61c0,0.961,0,1.922,0,2.883
		c0,1.762,0,3.522,0,5.286c-0.16,0-0.32,0-0.48,0C312.338,484.684,312.338,478.757,312.338,472.831z"/>
	<path fill="#F3762B" d="M312.818,482.441c0.787-0.079,0.787,2.962,0,2.883C312.818,484.363,312.818,483.402,312.818,482.441z"/>
	<path fill="#FFF8F5" d="M312.338,490.61c0,0.801,0,1.602,0,2.401c0,0.642,0,1.281,0,1.922c-0.16,0-0.32,0-0.48,0
		C312.154,493.631,311.247,491.121,312.338,490.61z"/>
	<path fill="#F69961" d="M312.338,490.61c0.16,0,0.32,0,0.48,0c0,0.801,0,1.602,0,2.401c-0.16,0-0.32,0-0.48,0
		C312.338,492.212,312.338,491.411,312.338,490.61z"/>
	<path fill="#F3762B" d="M312.338,493.013c0.16,0,0.32,0,0.48,0c-0.286,0.995,0.594,3.156-0.48,3.363c0-0.479,0-0.961,0-1.441
		C312.338,494.294,312.338,493.653,312.338,493.013z"/>
	<path fill="#F3762B" d="M311.857,497.817c0.16,0,0.319,0,0.479,0c-0.04,0.761,0.229,1.833-0.479,1.923
		C311.857,499.099,311.857,498.458,311.857,497.817z"/>
	<path fill="#F3762B" d="M57.182,499.74c0.16,0,0.32,0,0.48,0c0,0.641,0,1.281,0,1.922C57.01,501.513,57.264,500.459,57.182,499.74z
		"/>
	<path fill="#F3762B" d="M71.117,511.272c0.801,0,1.602,0,2.403,0c0,0.159,0,0.319,0,0.479
		C72.821,511.49,71.036,512.314,71.117,511.272z"/>
	<path fill="#FFF8F5" d="M78.805,511.753c0-0.16,0-0.32,0-0.479c70.476,0,140.953,0,211.427,0c0,0.159,0,0.319,0,0.479
		C219.758,511.753,149.281,511.753,78.805,511.753z"/>
	<path fill="#F3762B" d="M296,511.753c0-0.16,0-0.32,0-0.479c0.801,0,1.602,0,2.402,0C298.482,512.314,296.698,511.49,296,511.753z"
		/>
	<path fill="#F3762B" d="M76.883,511.753c0.641,0,1.281,0,1.922,0c70.476,0,140.953,0,211.427,0c0.961,0,1.924,0,2.885,0
		C222.16,512.554,147.84,512.554,76.883,511.753z"/>
	<path fill="#F3762B" d="M181.156,541.064c-0.344-0.779,2.266-0.779,1.922,0C182.437,541.064,181.796,541.064,181.156,541.064z"/>
	<path fill="#F3762B" d="M176.351,541.545c0.149-0.652,1.203-0.398,1.922-0.479C178.184,541.776,177.111,541.505,176.351,541.545z"
		/>
	<path fill="#F3762B" d="M155.688,560.766c0,0.642,0,1.281,0,1.922c-0.16,0-0.32,0-0.48,0
		C155.248,561.927,154.977,560.854,155.688,560.766z"/>
	<path fill="#F3762B" d="M207.104,563.168c0.652,0.149,0.399,1.203,0.48,1.923c-0.16,0-0.32,0-0.48,0
		C207.104,564.449,207.104,563.809,207.104,563.168z"/>
	<path fill="#F69961" d="M207.104,565.091c0.16,0,0.32,0,0.48,0c0,0.801,0,1.603,0,2.402c-0.16,0-0.32,0-0.48,0
		C207.104,566.692,207.104,565.892,207.104,565.091z"/>
	<path fill="#F69961" d="M207.104,567.974c0.16,0,0.32,0,0.48,0c0,0.802,0,1.603,0,2.402c-0.16,0-0.32,0-0.48,0
		C207.104,569.575,207.104,568.774,207.104,567.974z"/>
	<path fill="#F3762B" d="M155.208,569.415c0.711,0.089,0.44,1.161,0.48,1.922C155.036,571.188,155.29,570.134,155.208,569.415z"/>
	<path fill="#F3762B" d="M207.104,570.376c0.16,0,0.32,0,0.48,0c-0.04,0.761,0.23,1.833-0.48,1.922
		C207.104,571.657,207.104,571.017,207.104,570.376z"/>
	<path fill="#FFF8F5" d="M369.52,588.155c0.16,0,0.32,0,0.48,0c0,0.641,0,1.28,0,1.922c-0.16,0-0.32,0-0.48,0
		C369.52,589.438,369.52,588.796,369.52,588.155z"/>
	<path fill="#F3762B" d="M177.312,593.922c0.641,0,1.282,0,1.922,0c0,0.16,0,0.32,0,0.48
		C178.473,594.362,177.401,594.633,177.312,593.922z"/>
	<path fill="#F69961" d="M179.234,594.402c0-0.16,0-0.32,0-0.48c1.121,0,2.242,0,3.364,0c0,0.16,0,0.32,0,0.48
		C181.476,594.402,180.355,594.402,179.234,594.402z"/>
	<path fill="#F3762B" d="M182.598,594.402c0-0.16,0-0.32,0-0.48c0.801,0,1.602,0,2.402,0
		C185.081,594.964,183.296,594.14,182.598,594.402z"/>
	<path fill="#F3762B" d="M326.753,627.077c0.062-1.062,2.039-0.204,2.884-0.48c0,0.16,0,0.32,0,0.48c-0.479,0-0.961,0-1.441,0
		C327.714,627.077,327.232,627.077,326.753,627.077z"/>
	<path fill="#FFF8F5" d="M332.52,627.077c0-0.16,0-0.32,0-0.48c0.642,0,1.281,0,1.922,0
		C334.354,627.309,333.279,627.037,332.52,627.077z"/>
	<path fill="#F3762B" d="M40.364,627.558c0-0.159,0-0.319,0-0.479c94.183,0,188.363,0,282.545,0c0,0.16,0,0.32,0,0.479
		C228.727,627.558,134.547,627.558,40.364,627.558z"/>
	<path fill="#F69961" d="M322.909,627.558c0-0.159,0-0.319,0-0.479c0.801,0,1.602,0,2.401,0c0,0.16,0,0.32,0,0.479
		C324.511,627.558,323.71,627.558,322.909,627.558z"/>
	<path fill="#FBCDB1" d="M325.313,627.558c0-0.159,0-0.319,0-0.479c0.479,0,0.961,0,1.44,0s0.961,0,1.442,0c0,0.16,0,0.32,0,0.479
		C327.232,627.558,326.271,627.558,325.313,627.558z"/>
	<path fill="#FFF8F5" d="M328.195,627.558c0-0.159,0-0.319,0-0.479c0.479,0,0.961,0,1.441,0c0.319,0,0.641,0,0.961,0
		C330.68,628.119,328.893,627.295,328.195,627.558z"/>
	<path fill="#FFF8F5" d="M39.403,627.558c0.32,0,0.641,0,0.961,0c94.183,0,188.363,0,282.545,0c0.801,0,1.602,0,2.401,0
		C231.127,628.358,133.586,628.358,39.403,627.558z"/>
	<path fill="#FBCDB1" d="M13.455,10.571c1.01-0.592,1.874-1.33,2.883-1.922c-0.269,0.692-0.75,1.172-1.442,1.441
		c-1.803,1.4-3.405,3.002-4.805,4.805c-0.269,0.692-0.75,1.173-1.441,1.441c0.592-1.009,1.33-1.873,1.922-2.883
		C11.735,12.696,12.696,11.735,13.455,10.571z"/>
	<path fill="#FFF8F5" d="M10.571,13.454c0.758-1.164,1.719-2.125,2.883-2.883C12.696,11.735,11.735,12.696,10.571,13.454z"/>
	<path fill="#F3762B" d="M354.623,10.09c0.16,0,0.32,0,0.48,0c0.213,0.428,0.422,0.859,0.961,0.961
		c0.17,0.631,0.847,0.756,0.961,1.442C356.021,11.896,355.221,11.096,354.623,10.09z"/>
	<path fill="#F69961" d="M357.025,12.493c-0.114-0.686-0.791-0.811-0.961-1.442c1.482,1.08,2.765,2.361,3.845,3.844
		c-0.39-0.091-0.479-0.482-0.961-0.48C358.514,13.568,357.873,12.927,357.025,12.493z"/>
	<path fill="#F3762B" d="M358.948,14.415c0.481-0.001,0.571,0.389,0.961,0.48c0.17,0.631,0.846,0.756,0.961,1.441
		C360.021,15.903,359.382,15.262,358.948,14.415z"/>
	<path fill="#F3762B" d="M363.753,20.662c0.918,1.004,1.55,2.294,1.923,3.844C364.758,23.501,364.126,22.211,363.753,20.662z"/>
	<path fill="#F3762B" d="M363.271,606.896c0.162-1.121,0.494-2.07,1.441-2.402c-0.254,0.387-0.501,0.78-0.48,1.44
		C363.712,606.054,363.908,606.89,363.271,606.896z"/>
	<path fill="#F3762B" d="M357.986,613.143c0.598-1.005,1.397-1.807,2.402-2.401c-0.142,0.979-1.3,0.94-1.44,1.922
		C358.559,612.753,358.469,613.144,357.986,613.143z"/>
	<path fill="#F69961" d="M355.584,615.545c1.006-0.597,1.807-1.396,2.402-2.402c0.481,0.001,0.572-0.39,0.962-0.479
		c-1.24,1.643-2.683,3.084-4.325,4.324C354.793,616.355,355.469,616.23,355.584,615.545z"/>
	<path fill="#F3762B" d="M352.701,618.428c0.758-1.164,1.719-2.125,2.883-2.883c-0.115,0.686-0.791,0.811-0.961,1.441
		c-0.691,0.27-1.172,0.75-1.441,1.44C353.021,618.428,352.861,618.428,352.701,618.428z"/>
	<path fill="#F3762B" d="M16.338,619.389c-0.435-0.847-1.075-1.486-1.922-1.922c-0.434-0.847-1.075-1.486-1.922-1.922
		c-0.269-0.692-0.75-1.173-1.442-1.441c0-0.159,0-0.319,0-0.479c2.123,1.721,4.045,3.644,5.767,5.766
		C16.658,619.389,16.498,619.389,16.338,619.389z"/>
	<path fill="#F3762B" d="M3.364,25.948c0.532-1.87,1.329-3.477,2.402-4.805C5.234,23.012,4.437,24.619,3.364,25.948z"/>
	<path fill="#F3762B" d="M10.091,14.896c1.4-1.803,3.002-3.405,4.805-4.805C13.496,11.894,11.894,13.495,10.091,14.896z"/>
	<path fill="#F3762B" d="M21.143,5.766c1.004-0.917,2.294-1.549,3.844-1.922C23.982,4.761,22.692,5.393,21.143,5.766z"/>
	<path fill="#FFF8F5" d="M359.909,14.896c-1.08-1.483-2.361-2.765-3.845-3.844c-0.539-0.102-0.748-0.533-0.961-0.961
		c2.922,1.723,5.272,4.017,6.728,7.208c-0.429-0.213-0.858-0.422-0.961-0.961C360.755,15.651,360.079,15.527,359.909,14.896z"/>
	<path fill="#FFF8F5" d="M350.299,6.727c-1.229-0.054-1.682-0.881-2.402-1.441C349.018,5.446,349.967,5.778,350.299,6.727z"/>
	<path fill="#F3762B" d="M59.104,74.48c0.692,0.109,0.167,1.434,0.961,1.441c-0.135,0.776,0.454,0.828,0.48,1.442
		C59.541,76.927,59.081,75.945,59.104,74.48z"/>
	<path fill="#F3762B" d="M61.987,79.285c1.24,1.643,2.682,3.084,4.325,4.325c0.428,0.213,0.859,0.422,0.961,0.961
		c-2.655-1.509-4.737-3.592-6.247-6.247C61.454,78.537,61.885,78.746,61.987,79.285z"/>
	<path fill="#F3762B" d="M77.364,92.74c25.241,20.408,49.255,42.044,74.48,62.468c0,0.16,0,0.32,0,0.48
		C126.703,135.019,102.038,113.876,77.364,92.74z"/>
	<path fill="#F3762B" d="M154.727,158.09c2.113,1.411,4.097,2.951,5.767,4.805C158.277,161.588,156.341,160,154.727,158.09z"/>
	<path fill="#F3762B" d="M168.662,169.623c0.161,0,0.32,0,0.481,0c0.215,1.387,2.067,1.136,2.402,2.402
		C170.308,171.501,169.236,170.811,168.662,169.623z"/>
	<path fill="#F3762B" d="M186.441,182.116c0.979-0.141,0.941-1.3,1.922-1.441c-0.573,1.188-1.646,1.879-2.883,2.403
		C185.693,182.65,185.902,182.218,186.441,182.116z"/>
	<path fill="#F3762B" d="M191.729,177.311c3.103-2.183,5.729-4.842,8.648-7.208c0.979-0.142,0.941-1.3,1.922-1.442
		c-3.865,3.983-8.346,7.352-12.492,11.052C190.131,178.598,191.402,178.428,191.729,177.311z"/>
	<path fill="#F3762B" d="M205.662,165.298c6.316-4.896,12.068-10.356,18.26-15.377c0.98-0.141,0.941-1.3,1.922-1.441
		c-7.068,6.705-14.785,12.763-22.104,19.221C204.064,166.584,205.337,166.415,205.662,165.298z"/>
	<path fill="#F3762B" d="M227.286,147.039c10.065-8.515,19.916-17.244,30.272-25.468c-9.805,8.937-20.254,17.227-30.272,25.948
		C227.286,147.359,227.286,147.199,227.286,147.039z"/>
	<path fill="#F3762B" d="M260.441,119.168c7.406-6.85,15.566-12.944,23.064-19.702c0.16,0,0.32,0,0.48,0
		C276.445,106.342,268.492,112.804,260.441,119.168z"/>
	<path fill="#F3762B" d="M296,89.376c0.848-0.434,1.488-1.075,1.922-1.922c0.16,0,0.32,0,0.48,0
		c-1.926,2.239-4.164,4.165-6.728,5.766C292.84,91.662,294.604,90.704,296,89.376z"/>
	<path fill="#F69961" d="M298.402,87.454c0.597-1.005,1.396-1.806,2.402-2.403c-0.17,0.631-0.847,0.756-0.962,1.442
		C299.213,86.663,299.088,87.339,298.402,87.454z"/>
	<path fill="#F3762B" d="M299.844,86.493c0.115-0.686,0.792-0.811,0.961-1.442c2.604-2.202,5.006-4.604,7.209-7.208
		c0.389-0.091,0.479-0.482,0.961-0.48C306.131,80.607,303.088,83.65,299.844,86.493z"/>
	<path fill="#F69961" d="M308.014,77.844c0.435-0.847,1.074-1.488,1.922-1.922c-0.17,0.631-0.847,0.756-0.961,1.442
		C308.492,77.361,308.402,77.752,308.014,77.844z"/>
	<path fill="#F69961" d="M309.936,74.96c-0.142-0.98-1.301-0.942-1.441-1.922c0.848,0.434,1.488,1.075,1.923,1.922
		C310.256,74.96,310.096,74.96,309.936,74.96z"/>
	<path fill="#FBCDB1" d="M298.883,69.675c0.9,0.702,3.186,0.019,3.846,0.961C301.093,70.669,299.374,70.786,298.883,69.675z"/>
	<path fill="#FFF8F5" d="M308.014,73.039c0.159,0,0.319,0,0.479,0c0.142,0.98,1.301,0.942,1.442,1.922
		C309.088,74.526,308.447,73.886,308.014,73.039z"/>
	<path fill="#FFF8F5" d="M306.091,79.285c1.08-1.483,2.361-2.765,3.845-3.844c0,0.16,0,0.32,0,0.48
		c-0.848,0.435-1.487,1.075-1.922,1.922C307.033,77.985,307.07,79.144,306.091,79.285z"/>
	<path fill="#FBCDB1" d="M302.247,83.129c1.481-1.08,2.765-2.361,3.844-3.844c0.979-0.141,0.942-1.3,1.923-1.441
		c-2.203,2.604-4.604,5.006-7.209,7.208C300.945,84.072,302.105,84.109,302.247,83.129z"/>
	<path fill="#FFF8F5" d="M297.922,87.454c1.24-1.643,2.682-3.084,4.325-4.325c-0.142,0.98-1.302,0.942-1.442,1.922
		c-1.005,0.597-1.806,1.397-2.402,2.403C298.242,87.454,298.082,87.454,297.922,87.454z"/>
	<path fill="#FBCDB1" d="M296.48,88.415c0.631-0.17,0.756-0.846,1.44-0.961c-0.435,0.847-1.073,1.488-1.922,1.922
		C296.092,88.987,296.482,88.897,296.48,88.415z"/>
	<path fill="#FFF8F5" d="M291.193,93.22c1.441-1.922,3.584-3.144,5.287-4.805c0.002,0.482-0.39,0.572-0.48,0.961
		c-1.396,1.328-3.16,2.286-4.324,3.844C291.516,93.22,291.354,93.22,291.193,93.22z"/>
	<path fill="#FFF8F5" d="M285.909,97.545c0.771-1.793,2.937-2.19,4.323-3.364C289.325,95.835,287.289,96.362,285.909,97.545z"/>
	<path fill="#FFF8F5" d="M225.844,148c18.865-16.533,38.01-32.788,57.663-48.533c-7.498,6.758-15.659,12.852-23.065,19.702
		c-0.942,0.818-2.4,1.122-2.883,2.402c-10.355,8.224-20.207,16.953-30.271,25.468C226.654,147.208,226.529,147.884,225.844,148z"/>
	<path fill="#FBCDB1" d="M224.402,148.96c0.631-0.169,0.756-0.846,1.44-0.961c0.687-0.115,0.812-0.792,1.442-0.961
		c0,0.16,0,0.32,0,0.48c-0.633,0.169-0.756,0.846-1.442,0.961c-0.979,0.142-0.94,1.3-1.922,1.441
		C224.014,149.532,224.404,149.442,224.402,148.96z"/>
	<path fill="#FFF8F5" d="M205.662,165.298c5.947-5.745,12.545-10.841,18.74-16.338c0.002,0.482-0.389,0.572-0.48,0.961
		C217.73,154.942,211.979,160.402,205.662,165.298z"/>
	<path fill="#FFF8F5" d="M202.299,168.181c0.434-0.847,1.075-1.488,1.922-1.922C203.787,167.106,203.146,167.747,202.299,168.181z"
		/>
	<path fill="#FBCDB1" d="M200.857,169.143c0.631-0.17,0.756-0.846,1.44-0.961c0.847-0.434,1.488-1.075,1.923-1.922
		c0.631-0.17,0.756-0.846,1.44-0.961c-0.325,1.116-1.597,1.286-1.923,2.402c-0.631,0.17-0.756,0.846-1.44,0.961
		c-0.979,0.142-0.942,1.3-1.922,1.442C200.468,169.714,200.857,169.625,200.857,169.143z"/>
	<path fill="#FFF8F5" d="M191.729,177.311c2.658-3.106,6.155-5.376,9.129-8.168c0.002,0.482-0.39,0.572-0.479,0.961
		C197.457,172.469,194.83,175.128,191.729,177.311z"/>
	<path fill="#FFF8F5" d="M188.363,180.194c0.435-0.847,1.074-1.488,1.923-1.922C189.852,179.12,189.211,179.76,188.363,180.194z"/>
	<path fill="#FBCDB1" d="M186.441,182.116c0.435-0.847,1.074-1.488,1.922-1.922s1.488-1.075,1.923-1.922
		c0.631-0.17,0.755-0.846,1.44-0.961c-0.324,1.117-1.597,1.287-1.922,2.403c-0.632,0.17-0.756,0.846-1.441,0.961
		C187.384,180.816,187.422,181.975,186.441,182.116z"/>
	<path fill="#FFF8F5" d="M182.598,180.675c-1.38-1.183-3.417-1.709-4.325-3.364C179.662,178.485,181.828,178.882,182.598,180.675z"
		/>
	<path fill="#FFF8F5" d="M171.545,172.025c-0.335-1.267-2.188-1.016-2.402-2.402c1.238,0.524,2.309,1.214,2.883,2.402
		C171.866,172.025,171.706,172.025,171.545,172.025z"/>
	<path fill="#FFF8F5" d="M160.494,162.896c-1.669-1.854-3.654-3.394-5.767-4.805c-0.692-0.269-1.172-0.75-1.441-1.441
		c2.8,1.844,5.556,3.734,7.688,6.247C160.814,162.896,160.654,162.896,160.494,162.896z"/>
	<path fill="#FFF8F5" d="M151.844,155.208c-25.225-20.424-49.24-42.06-74.48-62.468c-0.692-0.269-1.173-0.75-1.442-1.441
		C101.852,111.979,126.681,133.76,151.844,155.208z"/>
	<path fill="#FFF8F5" d="M67.273,84.571c-0.102-0.539-0.534-0.748-0.961-0.961c-0.091-0.389-0.482-0.479-0.48-0.961
		c0.847,0.434,1.488,1.075,1.922,1.922C67.593,84.571,67.433,84.571,67.273,84.571z"/>
	<path fill="#FBCDB1" d="M66.312,83.61c-1.643-1.24-3.084-2.682-4.325-4.325c1.574,0.829,2.27,2.535,3.844,3.364
		C65.83,83.131,66.22,83.221,66.312,83.61z"/>
	<path fill="#FFF8F5" d="M59.104,74.48c0.352-0.449,0.874-0.728,1.441-0.961c-0.403,0.558-0.634,1.288-0.48,2.402
		C59.271,75.914,59.796,74.589,59.104,74.48z"/>
	<path fill="#F3762B" d="M307.532,508.389c1.792-0.931,2.28-3.166,3.364-4.805c-0.274,2.608-1.732,4.034-3.364,5.286
		c-0.16,0-0.32,0-0.48,0C306.964,508.461,307.239,508.416,307.532,508.389z"/>
	<path fill="#F3762B" d="M308.014,148.96c0.332-0.949,1.281-1.281,2.402-1.441c0,0.16,0,0.32,0,0.48
		C309.221,147.925,308.928,148.754,308.014,148.96z"/>
	<path fill="#F3762B" d="M303.688,152.324c0.573-1.188,1.646-1.879,2.883-2.403c-0.334,1.267-2.188,1.016-2.401,2.403
		C304.009,152.324,303.85,152.324,303.688,152.324z"/>
	<path fill="#F69961" d="M301.768,153.766c0.979-0.141,0.941-1.3,1.922-1.441c-0.92,1.323-2.041,2.445-3.364,3.364
		C300.466,154.708,301.625,154.746,301.768,153.766z"/>
	<path fill="#F3762B" d="M298.402,157.129c0.918-1.324,2.039-2.445,3.363-3.364c-0.142,0.98-1.301,0.942-1.441,1.922
		C299.346,155.829,299.383,156.988,298.402,157.129z"/>
	<path fill="#F3762B" d="M292.637,161.935c1.225-1.819,3.272-2.814,4.805-4.325c-0.09,0.389-0.48,0.479-0.479,0.961
		c-0.428,0.213-0.858,0.422-0.961,0.961c-0.942,0.818-2.401,1.122-2.883,2.402C292.957,161.935,292.797,161.935,292.637,161.935z"/>
	<path fill="#F3762B" d="M281.584,171.064c2.586-2.7,5.473-5.099,8.648-7.208c-0.215,1.387-2.066,1.136-2.401,2.403
		c-2.112,1.411-4.097,2.951-5.767,4.805C281.904,171.064,281.744,171.064,281.584,171.064z"/>
	<path fill="#F3762B" d="M222,221.039c17.699-15.617,35.816-30.815,54.299-45.649c-0.215,1.387-2.066,1.136-2.402,2.402
		c-7.073,5.58-14.01,11.297-20.662,17.299c-0.943,0.818-2.401,1.122-2.883,2.403C240.572,205.013,231.639,213.377,222,221.039z"/>
	<path fill="#F69961" d="M220.559,222c0.631-0.17,0.756-0.846,1.441-0.961c-0.436,0.847-1.075,1.488-1.922,1.922
		C220.169,222.571,220.561,222.481,220.559,222z"/>
	<path fill="#F3762B" d="M214.792,227.285c1.656-2.028,3.888-3.481,5.767-5.286c0.002,0.482-0.39,0.572-0.479,0.961
		C218.273,224.36,216.771,226.061,214.792,227.285z"/>
	<path fill="#F3762B" d="M165.779,235.935c-0.119-0.522-0.956-0.326-0.961-0.961c1.121,0.161,2.07,0.492,2.402,1.441
		C166.834,236.161,166.44,235.914,165.779,235.935z"/>
	<path fill="#F3762B" d="M157.13,229.688c-0.694-1.388-2.311-1.854-3.364-2.883c-0.434-0.847-1.075-1.488-1.922-1.922
		c-0.091-0.389-0.482-0.479-0.48-0.961c2.018,1.987,4.512,3.497,6.247,5.767C157.45,229.688,157.29,229.688,157.13,229.688z"/>
	<path fill="#F69961" d="M151.844,224.883c-0.98-0.142-0.942-1.3-1.922-1.442c0-0.16,0-0.32,0-0.48
		c0.631,0.17,0.756,0.846,1.442,0.961C151.362,224.404,151.753,224.494,151.844,224.883z"/>
	<path fill="#F3762B" d="M149.922,222.96c-0.979-0.141-0.942-1.3-1.922-1.441c-0.98-0.142-0.942-1.3-1.922-1.441
		c-0.482-1.281-1.939-1.584-2.883-2.403c-0.215-1.387-2.067-1.136-2.403-2.402C144.121,217.55,147.255,220.021,149.922,222.96z"/>
	<path fill="#F3762B" d="M132.624,208.545c-1.146-0.777-2.118-1.726-3.364-2.402c0-0.16,0-0.32,0-0.481
		C130.454,206.55,131.971,207.115,132.624,208.545z"/>
	<path fill="#F3762B" d="M126.376,203.259c-13.587-10.759-26.214-22.479-39.883-33.156c-0.335-1.267-2.188-1.016-2.403-2.403
		C98.601,179.139,112.505,191.183,126.376,203.259z"/>
	<path fill="#F3762B" d="M81.208,165.779c-0.215-1.387-2.068-1.136-2.403-2.403c1.238,0.524,2.31,1.214,2.883,2.403
		C81.528,165.779,81.368,165.779,81.208,165.779z"/>
	<path fill="#FFF8F5" d="M57.182,146.558c1.259,0.502,2,1.524,2.883,2.402c-1.286-0.283-2.813-2.791-2.403,0.48
		c0,115.805,0,231.611,0,347.416c-0.16,0-0.32,0-0.48,0C57.182,380.091,57.182,263.324,57.182,146.558z"/>
	<path fill="#F69961" d="M311.377,147.519c2.346-1.43,1.441,13.542,1.441,19.701c0,100.824,0,206.153,0,305.611
		c-0.16,0-0.32,0-0.48,0c0-79.031,0-162.968,0-243.624c0-27.463,1.563-54.649,0-80.728
		C312.289,147.676,312.135,147.563,311.377,147.519z"/>
	<path fill="#FFF8F5" d="M78.325,163.376c0.16,0,0.32,0,0.48,0c0.335,1.267,2.188,1.016,2.403,2.403
		C79.97,165.255,78.898,164.564,78.325,163.376z"/>
	<path fill="#FFF8F5" d="M86.494,170.104c13.668,10.677,26.295,22.397,39.883,33.156c0.692,0.269,1.173,0.75,1.442,1.441
		C113.5,193.711,100.107,181.797,86.494,170.104z"/>
	<path fill="#FFF8F5" d="M129.26,206.143c1.246,0.676,2.218,1.625,3.364,2.402c0.806,1.596,3.18,1.625,3.844,3.364
		C133.783,210.269,131.214,208.513,129.26,206.143z"/>
	<path fill="#FFF8F5" d="M140.312,215.272c0.16,0,0.32,0,0.48,0c0.335,1.267,2.188,1.016,2.403,2.402
		C141.957,217.151,140.885,216.46,140.312,215.272z"/>
	<path fill="#FFF8F5" d="M146.078,220.078c0.979,0.141,0.942,1.3,1.922,1.441c0.091,0.389,0.482,0.479,0.48,0.961
		C147.476,221.883,146.674,221.083,146.078,220.078z"/>
	<path fill="#FBCDB1" d="M148.48,222.48c0.001-0.482-0.389-0.572-0.48-0.961c0.98,0.141,0.942,1.3,1.922,1.441c0,0.16,0,0.32,0,0.48
		C149.236,223.326,149.112,222.65,148.48,222.48z"/>
	<path fill="#FFF8F5" d="M149.922,223.441c0.98,0.142,0.942,1.3,1.922,1.442c0.091,0.389,0.482,0.479,0.48,0.961
		C151.319,225.247,150.519,224.446,149.922,223.441z"/>
	<path fill="#FBCDB1" d="M152.325,225.844c0.001-0.482-0.389-0.572-0.48-0.961c0.847,0.434,1.488,1.075,1.922,1.922
		C153.081,226.689,152.956,226.013,152.325,225.844z"/>
	<path fill="#FFF8F5" d="M153.766,226.805c1.053,1.029,2.669,1.495,3.364,2.883C155.645,229.091,154.552,228.102,153.766,226.805z"
		/>
	<path fill="#FFF8F5" d="M165.779,235.935c0.661-0.021,1.055,0.226,1.441,0.48c0.109,0.692,1.434,0.167,1.441,0.961
		C167.197,237.399,166.216,236.939,165.779,235.935z"/>
	<path fill="#FFF8F5" d="M200.857,237.376c1-0.601,2.025-1.177,2.883-1.922C203.723,237.039,202.374,237.291,200.857,237.376z"/>
	<path fill="#FFF8F5" d="M214.792,227.285c1.979-1.224,3.481-2.925,5.286-4.325c0.847-0.434,1.486-1.075,1.922-1.922
		c9.639-7.662,18.572-16.025,28.352-23.545c-12.528,10.856-25.021,21.751-37.961,32.195
		C212.725,228.421,214.577,228.672,214.792,227.285z"/>
	<path fill="#FFF8F5" d="M253.232,195.09c6.652-6.001,13.59-11.719,20.664-17.299C267.316,183.867,260.323,189.526,253.232,195.09z"
		/>
	<path fill="#FFF8F5" d="M282.064,171.064c1.67-1.854,3.653-3.394,5.767-4.805C286.218,168.169,284.281,169.757,282.064,171.064z"/>
	<path fill="#FFF8F5" d="M293.117,161.935c0.48-1.28,1.939-1.584,2.883-2.402C295.427,160.72,294.354,161.411,293.117,161.935z"/>
	<path fill="#FBCDB1" d="M298.402,157.129c0.979-0.142,0.941-1.3,1.922-1.441c-0.092,0.389-0.481,0.479-0.48,0.961
		c-1.009,0.592-1.873,1.33-2.883,1.922c-0.001-0.482,0.391-0.572,0.48-0.961C297.831,157.519,297.921,157.128,298.402,157.129z"/>
	<path fill="#FFF8F5" d="M299.844,156.649c-0.001-0.482,0.391-0.572,0.48-0.961c1.324-0.919,2.445-2.041,3.363-3.364
		c0.16,0,0.32,0,0.48,0C302.93,153.967,301.486,155.409,299.844,156.649z"/>
	<path fill="#FFF8F5" d="M305.13,509.351c0.382-0.476,2.259-1.831,2.402-0.962c-0.293,0.027-0.568,0.072-0.48,0.481
		C306.624,509.243,305.967,509.387,305.13,509.351z"/>
	<path fill="#F3762B" d="M159.532,551.636c0.033-1.409,1.099-1.784,1.922-2.401c0,0.159,0,0.319,0,0.479
		C160.326,549.867,160.379,551.201,159.532,551.636z"/>
	<path fill="#F3762B" d="M157.13,576.623c0.714,0.407,0.695,1.547,0.961,2.402C157.378,578.617,157.058,577.816,157.13,576.623z"/>
	<path fill="#F3762B" d="M158.571,579.986c0.522,0.119,0.326,0.956,0.961,0.961c-0.135,0.775,0.455,0.827,0.481,1.44
		C159.064,582.057,158.732,581.107,158.571,579.986z"/>
	<path fill="#F3762B" d="M161.935,584.792c1.08,1.482,2.361,2.765,3.844,3.844c0.428,0.213,0.859,0.422,0.961,0.961
		c-2.49-1.354-4.412-3.275-5.766-5.766c0.16,0,0.32,0,0.48,0C161.546,584.22,161.937,584.31,161.935,584.792z"/>
	<path fill="#F3762B" d="M168.182,590.558c0.387,0.255,0.78,0.502,1.442,0.48c0.132,0.989,1.79,0.453,1.922,1.442
		C170.151,592.112,168.782,591.72,168.182,590.558z"/>
	<path fill="#F3762B" d="M197.975,588.636c1.228-1.335,2.508-2.616,3.844-3.844C201.066,586.604,199.786,587.885,197.975,588.636z"
		/>
	<path fill="#F3762B" d="M203.74,581.908c0.563-0.719,0.598-1.965,1.441-2.402C205.021,580.627,204.689,581.576,203.74,581.908z"/>
	<path fill="#FFF8F5" d="M192.208,543.467c1.228,0.214,2.209,0.674,2.883,1.441C193.863,544.694,192.882,544.234,192.208,543.467z"
		/>
	<path fill="#FFF8F5" d="M202.299,551.636c0.561,0.722,1.389,1.175,1.441,2.402C202.791,553.706,202.459,552.757,202.299,551.636z"
		/>
	<path fill="#FFF8F5" d="M197.493,588.636c1.239-1.643,2.682-3.084,4.325-4.323c0,0.159,0,0.319,0,0.479
		c-1.336,1.228-2.617,2.509-3.846,3.844C197.813,588.636,197.652,588.636,197.493,588.636z"/>
	<path fill="#FFF8F5" d="M168.182,590.558c-0.119-0.521-0.955-0.324-0.961-0.961c1.121,0.161,2.07,0.493,2.403,1.441
		C168.962,591.06,168.568,590.813,168.182,590.558z"/>
	<path fill="#FBCDB1" d="M165.779,588.636c-1.483-1.079-2.765-2.36-3.844-3.844C163.418,585.871,164.7,587.152,165.779,588.636z"/>
	<path fill="#FFF8F5" d="M159.532,580.947c1.216,0.387,1.226,1.979,1.922,2.884c-0.16,0-0.32,0-0.48,0
		c-0.414-0.388-0.286-1.316-0.961-1.442C159.987,581.774,159.397,581.724,159.532,580.947z"/>
	<path fill="#FFF8F5" d="M157.61,555.961c0.214-1.229,0.674-2.21,1.441-2.884C158.838,554.305,158.378,555.287,157.61,555.961z"/>
	<path fill="#FFF8F5" d="M161.455,549.233c0.98-0.143,0.942-1.302,1.922-1.441c-0.434,0.847-1.075,1.487-1.922,1.922
		C161.455,549.554,161.455,549.394,161.455,549.233z"/>
	<path fill="#FFF8F5" d="M2.883,600.168c0.714,0.407,0.695,1.548,0.961,2.403C3.131,602.162,2.811,601.361,2.883,600.168z"/>
	<path fill="#FFF8F5" d="M5.286,605.454c0.844,0.438,0.879,1.684,1.441,2.401C5.778,607.524,5.446,606.575,5.286,605.454z"/>
	<path fill="#FFF8F5" d="M15.376,618.908c-1.684-1.359-3.392-2.694-4.325-4.805c0.692,0.269,1.173,0.748,1.442,1.44
		c0.434,0.848,1.075,1.488,1.922,1.922C14.585,618.098,15.262,618.223,15.376,618.908z"/>
	<path fill="#FFF8F5" d="M22.584,623.233c-1.517-0.085-2.866-0.339-2.883-1.923C20.558,622.057,21.583,622.633,22.584,623.233z"/>
	<path fill="#FFF8F5" d="M346.454,622.753c1.001-0.602,2.026-1.177,2.884-1.922C349.32,622.415,347.971,622.668,346.454,622.753z"/>
	<path fill="#FFF8F5" d="M354.623,616.986c1.645-1.24,3.085-2.683,4.325-4.324c0.389-0.092,0.479-0.482,0.961-0.48
		c-1.845,2.32-4.015,4.314-6.247,6.246c-0.16,0-0.32,0-0.48,0C353.451,617.736,353.932,617.256,354.623,616.986z"/>
	<path fill="#FBCDB1" d="M358.948,612.662c0.142-0.98,1.3-0.942,1.44-1.922c0.213-0.43,0.422-0.859,0.961-0.962
		c-0.281,1-1.01,1.554-1.44,2.402C359.427,612.18,359.337,612.57,358.948,612.662z"/>
	<path fill="#FFF8F5" d="M364.232,605.935c-0.021-0.66,0.228-1.055,0.48-1.44c0.521-0.119,0.326-0.956,0.962-0.961
		C365.516,604.653,365.184,605.604,364.232,605.935z"/>
	<path fill="#F69961" d="M14.416,617.467c-0.847-0.434-1.488-1.074-1.922-1.922C13.341,615.979,13.981,616.62,14.416,617.467z"/>
	<path fill="#FBCDB1" d="M15.376,618.908c-0.115-0.687-0.791-0.812-0.961-1.441c0.847,0.436,1.488,1.075,1.922,1.922
		C15.948,619.298,15.859,618.907,15.376,618.908z"/>
	<path fill="#F36F21" d="M334.441,0c4.662,1.584,9.047,3.447,13.455,5.286c0.721,0.561,1.174,1.388,2.401,1.441
		c1.166,1.397,3.325,1.8,4.324,3.364c0.597,1.005,1.397,1.806,2.403,2.403c0.847,0.434,1.486,1.075,1.922,1.922
		c0.434,0.847,1.074,1.488,1.922,1.922c0.102,0.54,0.533,0.749,0.961,0.961c0.518,1.245,1.736,1.786,1.922,3.364
		c0.373,1.549,1.005,2.839,1.923,3.844c1.808,2.838,2.632,6.658,2.884,11.052c0.275,0.845-0.582,2.823,0.479,2.883
		c0,0.801,0,1.602,0,2.403c0.276,0.845-0.581,2.823,0.479,2.883c0,0.48,0,0.961,0,1.442c0.264,0.698-0.562,2.483,0.48,2.402
		c0,179.066,0,358.158,0,537.221c-1.042-0.081-0.218,1.704-0.48,2.402c-1.062,0.06-0.203,2.038-0.479,2.883
		c-0.12,5.486-1.979,9.231-3.363,13.455c-0.636,0.005-0.438,0.842-0.962,0.961c-0.947,0.332-1.279,1.281-1.441,2.402
		c-0.313,1.286-1.375,1.826-1.922,2.883c-0.539,0.103-0.748,0.533-0.961,0.962c-1.005,0.596-1.806,1.396-2.402,2.401
		c-0.596,1.006-1.396,1.807-2.402,2.402c-1.164,0.758-2.125,1.719-2.883,2.883c-0.717,1.206-2.157,1.688-3.363,2.403
		c-0.855,0.745-1.883,1.32-2.884,1.922c-3.427,1.697-7.093,3.158-12.013,3.363c-0.846,0.275-2.823-0.581-2.883,0.479
		c-0.642,0-1.281,0-1.923,0c-0.845,0.276-2.823-0.58-2.884,0.48c-0.48,0-0.961,0-1.441,0c-0.801,0-1.602,0-2.401,0
		c-94.183,0-188.362,0-282.545,0c-0.641,0-1.282,0-1.922,0c-0.207-1.074-2.368-0.194-3.363-0.48
		c-5.062-0.224-8.774-1.798-12.494-3.363c-1.001-0.601-2.026-1.177-2.883-1.922c-1.488-0.113-1.866-1.338-2.883-1.923
		c-1.721-2.122-3.644-4.045-5.767-5.766c-1.873-1.491-2.616-4.111-4.325-5.768c-0.563-0.719-0.597-1.965-1.441-2.401
		c-0.214-1.229-0.674-2.209-1.441-2.883c-0.266-0.855-0.247-1.996-0.961-2.403c-0.853-2.671-1.707-5.341-2.883-7.688
		C0,406.515,0,220.564,0,34.597c1.295-2.709,1.739-6.269,3.364-8.649c1.073-1.329,1.87-2.936,2.402-4.805
		c0.545-2.018,2.012-3.114,2.883-4.806c0.692-0.269,1.172-0.749,1.441-1.441c1.803-1.4,3.405-3.002,4.805-4.805
		c0.692-0.269,1.173-0.75,1.442-1.441c1.691-0.872,2.788-2.338,4.805-2.883c1.549-0.373,2.839-1.004,3.844-1.922
		c2.48-2.005,6.693-2.277,9.61-3.844C134.548,0,234.49,0,334.441,0z M80.247,68.714c-0.961,0-1.922,0-2.883,0
		c-0.801,0-1.602,0-2.403,0c-0.845,0.276-2.823-0.581-2.883,0.48c-0.32,0-0.641,0-0.961,0c-0.995,0.286-3.157-0.594-3.363,0.48
		c-0.565,0.075-1.364-0.083-1.442,0.48c-2.837,0.206-3.96,2.126-5.766,3.364c-0.568,0.233-1.089,0.512-1.441,0.961
		c-0.023,1.465,0.437,2.447,1.441,2.883c0.375,0.106,0.559,0.402,0.48,0.961c1.51,2.655,3.592,4.737,6.247,6.247
		c0.16,0,0.32,0,0.48,0c2.557,2.409,5.575,4.355,8.168,6.728c0.269,0.692,0.75,1.172,1.442,1.441
		c24.674,21.136,49.339,42.279,74.48,62.948c0.686,0.115,0.811,0.791,1.441,0.961c0.269,0.692,0.75,1.172,1.441,1.441
		c1.614,1.91,3.55,3.498,5.767,4.805c0.16,0,0.32,0,0.48,0c2.371,2.435,5.318,4.292,7.688,6.728
		c0.574,1.188,1.646,1.878,2.883,2.402c0.16,0,0.32,0,0.48,0c1.914,1.93,4.125,3.563,6.247,5.286
		c0.908,1.654,2.944,2.181,4.325,3.364c0.659,1.103,1.979,1.545,2.883,2.403c1.238-0.524,2.31-1.214,2.883-2.403
		c0.687-0.115,0.811-0.791,1.441-0.961c4.147-3.701,8.627-7.069,12.493-11.052c0.687-0.115,0.812-0.791,1.44-0.961
		c7.317-6.458,15.035-12.516,22.104-19.221c0.687-0.115,0.812-0.792,1.442-0.961c10.019-8.721,20.469-17.011,30.271-25.948
		c0.481-1.28,1.939-1.584,2.883-2.402c8.051-6.365,16.006-12.826,23.547-19.702c0.045-1.235,1.875-0.687,1.922-1.922
		c1.38-1.183,3.416-1.709,4.324-3.364c0.539-0.102,0.748-0.533,0.961-0.961c0.16,0,0.32,0,0.48,0
		c2.563-1.602,4.801-3.527,6.727-5.766c0.687-0.115,0.812-0.792,1.441-0.961c3.244-2.843,6.287-5.886,9.13-9.13
		c0.115-0.686,0.792-0.811,0.962-1.442c0-0.16,0-0.32,0-0.48c0.293-0.027,0.568-0.072,0.48-0.48
		c-0.436-0.847-1.075-1.488-1.924-1.922c-0.159,0-0.319,0-0.479,0c-1.321-1.241-3.024-2.1-5.284-2.403
		c-0.66-0.942-2.945-0.259-3.846-0.961c-0.105-0.375-0.402-0.559-0.961-0.48c-0.089-0.711-1.161-0.44-1.922-0.48
		c-0.16,0-0.32,0-0.48,0C224.883,67.913,150.884,67.913,80.247,68.714z M57.182,497.817c0,0.641,0,1.28,0,1.923
		c0.082,0.719-0.171,1.771,0.48,1.922c0.108,0.373,0.014,0.947,0.481,0.961c0.31,5.616,5.086,6.767,9.61,8.169
		c0.06,1.061,2.038,0.204,2.883,0.48c0.16,0,0.32,0,0.48,0c-0.081,1.042,1.705,0.218,2.403,0.479c1.121,0,2.242,0,3.364,0
		c70.957,0.801,145.277,0.801,216.234,0c0.961,0,1.922,0,2.883,0c0.698-0.263,2.482,0.563,2.402-0.479
		c0.564-0.075,1.363,0.081,1.44-0.48c2.099-0.146,3.985-0.5,5.286-1.441c0.837,0.036,1.494-0.106,1.922-0.479c0.16,0,0.32,0,0.48,0
		c1.632-1.252,3.09-2.678,3.363-5.286c0.119-1.483,0.486-2.717,0.961-3.844c0.711-0.09,0.44-1.162,0.48-1.923
		c0-0.48,0-0.961,0-1.441c1.074-0.207,0.194-2.368,0.48-3.363c0-0.801,0-1.602,0-2.401c0-1.764,0-3.524,0-5.286
		c0.787,0.079,0.787-2.962,0-2.883c0-3.204,0-6.407,0-9.61c0-99.458,0-204.787,0-305.611c0-6.159,0.904-21.131-1.441-19.701
		c-0.32,0-0.641,0-0.961,0c-1.121,0.161-2.07,0.493-2.402,1.441c-0.125,0.676-1.055,0.548-1.441,0.961
		c-1.238,0.524-2.311,1.214-2.883,2.403c-0.979,0.142-0.942,1.3-1.922,1.441c-1.324,0.919-2.445,2.04-3.365,3.364
		c-0.48-0.001-0.57,0.389-0.961,0.48c-1.531,1.51-3.58,2.506-4.805,4.325c-0.38,1.063-1.681,1.203-2.402,1.922
		c-3.178,2.109-6.063,4.508-8.649,7.208c-1.631,1.573-3.294,3.112-5.285,4.325c-18.481,14.834-36.6,30.032-54.299,45.649
		c-0.687,0.115-0.812,0.791-1.44,0.961c-1.881,1.804-4.11,3.257-5.768,5.286c-0.215,1.387-2.066,1.136-2.402,2.403
		c-3.037,1.767-5.197,4.412-8.648,5.766c-0.855,0.745-1.883,1.321-2.883,1.922c-3.377,1.589-6.561,3.372-11.533,3.364
		c-3.203,0-6.406,0-9.61,0c-4.574-0.231-7.829-1.782-11.052-3.364c-0.007-0.793-1.333-0.269-1.441-0.961
		c-0.332-0.949-1.282-1.281-2.402-1.441c-2.687-1.479-5.073-3.256-7.208-5.286c-1.735-2.27-4.229-3.78-6.247-5.767
		c-0.686-0.115-0.811-0.791-1.442-0.961c-2.667-2.939-5.801-5.411-9.13-7.688c-0.16,0-0.32,0-0.48,0
		c-1.167-1.236-2.535-2.271-3.844-3.364c-0.665-1.739-3.038-1.768-3.844-3.364c-0.652-1.43-2.169-1.995-3.364-2.883
		c-0.686-0.115-0.811-0.791-1.441-0.961c-0.269-0.692-0.75-1.172-1.442-1.441c-13.872-12.076-27.775-24.121-42.286-35.559
		c-0.722-0.719-2.023-0.859-2.402-1.922c-0.574-1.188-1.646-1.879-2.883-2.403c-0.16,0-0.32,0-0.48,0
		c-5.9-4.992-11.849-9.935-18.26-14.416c-0.884-0.878-1.624-1.9-2.883-2.402C56.381,262.52,56.381,381.854,57.182,497.817z
		 M181.156,541.064c-0.961,0-1.922,0-2.883,0c-0.719,0.082-1.773-0.173-1.922,0.479c-0.373,0.107-0.948,0.014-0.961,0.48
		c-5.099,0.826-9.021,2.831-12.013,5.767c-0.979,0.141-0.942,1.3-1.922,1.441c-0.824,0.617-1.89,0.992-1.922,2.401
		c-0.026,0.614-0.616,0.666-0.48,1.441c-0.768,0.674-1.228,1.655-1.441,2.884c-0.842,0.92-1.019,2.505-1.441,3.844
		c-0.375,0.105-0.559,0.402-0.48,0.961c-0.712,0.089-0.441,1.161-0.48,1.922c0,2.243,0,4.485,0,6.729
		c0.082,0.719-0.172,1.772,0.48,1.922c0.107,0.373,0.013,0.948,0.48,0.961c-0.149,1.911,1.11,2.414,0.961,4.325
		c-0.072,1.192,0.248,1.994,0.961,2.401c0.375,0.106,0.559,0.402,0.48,0.962c0.161,1.12,0.493,2.069,1.442,2.401
		c0.675,0.126,0.547,1.055,0.961,1.442c1.354,2.489,3.276,4.412,5.766,5.766c0.16,0,0.32,0,0.48,0
		c0.006,0.636,0.842,0.439,0.961,0.961c0.6,1.162,1.97,1.556,3.364,1.923c2.133-0.052,2.82,1.345,5.286,0.961
		c0.027,0.293,0.072,0.568,0.48,0.48c0.089,0.711,1.161,0.439,1.922,0.479c1.121,0,2.242,0,3.364,0
		c0.698-0.263,2.483,0.563,2.402-0.479c0.293-0.027,0.569-0.072,0.48-0.48c5.207-0.398,9.014-2.198,12.013-4.806
		c0.16,0,0.32,0,0.48,0c1.813-0.751,3.094-2.032,3.844-3.844c0-0.16,0-0.32,0-0.48c1.299-0.145,0.861-2.021,1.923-2.402
		c0.948-0.332,1.28-1.281,1.44-2.402c0.063-2.662,1.74-3.705,1.441-6.728c0.293-0.027,0.568-0.071,0.48-0.48
		c0.711-0.089,0.439-1.161,0.479-1.922c0-0.801,0-1.603,0-2.402c0-0.16,0-0.319,0-0.479c0-0.802,0-1.603,0-2.402
		c-0.081-0.72,0.172-1.772-0.479-1.923c-0.076-0.565,0.082-1.363-0.48-1.441c-0.615-2.906-1.318-5.729-2.883-7.688
		c-0.055-1.229-0.881-1.682-1.441-2.402c-1.609-3.036-3.967-5.322-7.208-6.728c-0.674-0.769-1.655-1.229-2.883-1.441
		c-0.815-0.945-2.235-1.289-3.845-1.44c0.08-1.042-1.704-0.219-2.402-0.48c-0.061-1.062-2.038-0.204-2.883-0.479
		C183.422,540.285,180.812,540.285,181.156,541.064z"/>
	<path fill="#FBCDB1" d="M369.52,39.402c0,0.48,0,0.961,0,1.441c-0.16,0-0.319,0-0.479,0c0-0.801,0-1.602,0-2.403
		c0-0.32,0-0.641,0-0.961c0.16,0,0.319,0,0.479,0C369.52,38.121,369.52,38.761,369.52,39.402z"/>
	<path fill="#F3762B" d="M67.753,69.675c0.207-1.074,2.368-0.194,3.363-0.48c0,0.16,0,0.32,0,0.48c-0.16,0-0.32,0-0.48,0
		C69.675,69.675,68.714,69.675,67.753,69.675z"/>
	<path fill="#FFF8F5" d="M297.922,69.194c0.559-0.078,0.855,0.106,0.961,0.48c-0.845-0.276-2.822,0.581-2.883-0.48
		C296.641,69.194,297.281,69.194,297.922,69.194z"/>
	<path fill="#FBCDB1" d="M311.857,497.817c0-0.961,0-1.923,0-2.884c0.16,0,0.319,0,0.479,0c0,0.48,0,0.961,0,1.441s0,0.961,0,1.441
		C312.178,497.817,312.018,497.817,311.857,497.817z"/>
	<path fill="#FBCDB1" d="M57.662,498.778c0,0.319,0,0.642,0,0.962c-0.16,0-0.32,0-0.48,0c0-0.643,0-1.282,0-1.923
		c0-0.32,0-0.642,0-0.961c0.16,0,0.32,0,0.48,0C57.662,497.497,57.662,498.138,57.662,498.778z"/>
	<path fill="#FFF8F5" d="M57.662,498.778c1.084,0.357,0.188,2.694,0.481,3.845c-0.467-0.014-0.373-0.588-0.481-0.961
		c0-0.641,0-1.281,0-1.922C57.662,499.42,57.662,499.099,57.662,498.778z"/>
	<path fill="#F3762B" d="M67.753,510.792c0.961,0,1.922,0,2.883,0c0,0.16,0,0.32,0,0.48
		C69.792,510.996,67.813,511.853,67.753,510.792z"/>
	<path fill="#FFF8F5" d="M294.559,511.272c0.822-1.101,3.668-0.178,5.285-0.48c-0.076,0.563-0.876,0.405-1.441,0.48
		c-0.801,0-1.602,0-2.401,0C295.52,511.272,295.039,511.272,294.559,511.272z"/>
	<path fill="#FBCDB1" d="M294.559,511.272c0.48,0,0.961,0,1.441,0c0,0.159,0,0.319,0,0.479c-0.961,0-1.922,0-2.883,0
		s-1.924,0-2.885,0c0-0.16,0-0.32,0-0.479C291.676,511.272,293.117,511.272,294.559,511.272z"/>
	<path fill="#FFF8F5" d="M185.961,541.545c0.698,0.263,2.482-0.562,2.402,0.48c-0.995-0.286-3.156,0.594-3.363-0.48
		C185.32,541.545,185.641,541.545,185.961,541.545z"/>
	<path fill="#FFF8F5" d="M207.104,570.376c0,0.641,0,1.281,0,1.922c0.09,0.409-0.188,0.453-0.479,0.48
		c0.302-1.46-0.615-4.14,0.479-4.806C207.104,568.774,207.104,569.575,207.104,570.376z"/>
	<path fill="#F3762B" d="M369.52,588.155c0,0.641,0,1.28,0,1.922c-0.16,0-0.319,0-0.479,0c0.276-0.845-0.581-2.823,0.479-2.883
		C369.52,587.515,369.52,587.835,369.52,588.155z"/>
	<path fill="#F3762B" d="M331.559,626.597c0.061-1.062,2.039-0.204,2.883-0.479c0,0.16,0,0.32,0,0.479c-0.641,0-1.28,0-1.922,0
		C332.199,626.597,331.879,626.597,331.559,626.597z"/>
	<path fill="#FBCDB1" d="M38.441,627.077c0.641,0,1.282,0,1.922,0c0,0.16,0,0.32,0,0.479c-0.32,0-0.641,0-0.961,0
		c-0.698-0.263-2.484,0.563-2.403-0.479C37.48,627.077,37.961,627.077,38.441,627.077z"/>
	<path fill="#FFF8F5" d="M72.078,69.194c0.961,0,1.922,0,2.883,0c0.801,0,1.602,0,2.403,0c-1.137,1.105-4.313,0.172-6.247,0.48
		c0-0.16,0-0.32,0-0.48C71.437,69.194,71.758,69.194,72.078,69.194z"/>
	<path fill="#FBCDB1" d="M67.753,69.675c0.961,0,1.922,0,2.883,0c-0.511,1.091-3.021,0.183-4.325,0.48
		C66.389,69.592,67.188,69.75,67.753,69.675z"/>
	<path fill="#FFF8F5" d="M310.416,147.519c0.32,0,0.641,0,0.961,0c0.758,0.044,0.912,0.157,0.961,0.961
		c1.563,26.078,0,53.265,0,80.728c0,80.655,0,164.592,0,243.624c-1.121-107.317-0.16-216.713-0.48-324.832c-0.479,0-0.961,0-1.44,0
		C310.416,147.839,310.416,147.679,310.416,147.519z"/>
	<path fill="#FFF8F5" d="M70.636,510.792c1.304,0.297,3.813-0.61,4.325,0.48c-0.48,0-0.961,0-1.441,0c-0.801,0-1.602,0-2.403,0
		c-0.16,0-0.32,0-0.48,0C70.636,511.112,70.636,510.952,70.636,510.792z"/>
	<path fill="#FFF8F5" d="M156.169,559.805c-0.293,1.149,0.603,3.486-0.48,3.845c0-0.32,0-0.642,0-0.962c0-0.641,0-1.28,0-1.922
		C155.61,560.207,155.794,559.91,156.169,559.805z"/>
	<path fill="#FFF8F5" d="M207.104,563.168c0,0.641,0,1.281,0,1.923c0,0.801,0,1.603,0,2.402c-1.103-0.979-0.174-3.99-0.479-5.768
		C207.188,561.805,207.027,562.604,207.104,563.168z"/>
	<path fill="#FFF8F5" d="M176.831,593.441c2.883,0,5.767,0,8.649,0c0.088,0.407-0.188,0.452-0.48,0.479c-0.801,0-1.602,0-2.402,0
		c-1.122,0-2.243,0-3.364,0c-0.641,0-1.282,0-1.922,0C176.903,594.01,176.858,593.734,176.831,593.441z"/>
	<path fill="#FBCDB1" d="M74.961,511.272c1.281,0,2.563,0,3.844,0c0,0.159,0,0.319,0,0.479c-0.641,0-1.281,0-1.922,0
		c-1.122,0-2.243,0-3.364,0c0-0.16,0-0.32,0-0.479C74,511.272,74.48,511.272,74.961,511.272z"/>
	<path fill="#FBCDB1" d="M178.273,541.064c0.961,0,1.922,0,2.883,0c0.641,0,1.281,0,1.922,0c0.845,0.275,2.822-0.581,2.883,0.479
		c-0.32,0-0.641,0-0.961,0c-3.734-0.37-6.103,0.624-9.61,0.48c0.013-0.468,0.588-0.373,0.961-0.48
		C177.111,541.505,178.184,541.776,178.273,541.064z"/>
	<path fill="#FBCDB1" d="M155.688,563.648c-0.373,3.416,0.727,5.359,0.48,8.648c-0.467-0.013-0.373-0.588-0.48-0.961
		c-0.04-0.761,0.231-1.833-0.48-1.922c0-2.242,0-4.484,0-6.729c0.16,0,0.32,0,0.48,0
		C155.688,563.008,155.688,563.328,155.688,563.648z"/>
	<path fill="#FBCDB1" d="M370,584.792c0,1.121,0,2.242,0,3.363c-0.16,0-0.32,0-0.48,0c0-0.32,0-0.642,0-0.961
		C369.782,586.496,368.958,584.711,370,584.792z"/>
	<path fill="#FBCDB1" d="M329.637,626.597c0.641,0,1.281,0,1.922,0c0.32,0,0.642,0,0.961,0c0,0.16,0,0.32,0,0.48
		c-0.641,0-1.281,0-1.922,0c-0.32,0-0.641,0-0.961,0C329.637,626.917,329.637,626.757,329.637,626.597z"/>
	<path fill="#F3762B" d="M369.039,35.558c0,0.641,0,1.281,0,1.922c0,0.32,0,0.641,0,0.961c-1.063-0.06-0.204-2.038-0.48-2.883
		C368.719,35.558,368.879,35.558,369.039,35.558z"/>
	<path fill="#F3762B" d="M179.714,240.74c3.204,0,6.407,0,9.61,0c0,0.16,0,0.32,0,0.48c-0.801,0-1.602,0-2.402,0
		c-1.602,0-3.203,0-4.805,0c-0.801,0-1.602,0-2.402,0C179.714,241.06,179.714,240.9,179.714,240.74z"/>
	<path fill="#F3762B" d="M35.078,626.597c0.995,0.286,3.156-0.594,3.363,0.48c-0.48,0-0.961,0-1.441,0
		C36.281,626.995,35.227,627.249,35.078,626.597z"/>
</g>
</svg>
