<svg xmlns="http://www.w3.org/2000/svg" xmlns:xlink="http://www.w3.org/1999/xlink" version="1.1" width="1686.9999997764826" height="616.9999999254942" enable-background="new 0 0 2128 627" xml:space="preserve" style=""><rect id="backgroundrect" width="100%" height="100%" x="0" y="0" fill="none" stroke="none" class="" style=""/>










<g class="currentLayer" style=""><title>Layer 1</title><g id="svg_1" class="">
	<path fill="#F36F21" d="M316.744,386.581 c0,44.345 -13.43,78.309 -40.289,101.893 c-26.859,23.585 -65.647,35.377 -116.357,35.377 h-81.167 V254.47199999999998 h89.989 c46.79,0 83.126,11.608 109.006,34.824 C303.804,312.512 316.744,344.94 316.744,386.581 zM253.61400000000003,388.056 c0,-57.854 -27.188,-86.783 -81.559,-86.783 h-32.349 v175.409 h26.075 C224.33500000000004,476.682 253.61400000000003,447.141 253.61400000000003,388.056 z" id="svg_2"/>
	<path fill="#F36F21" d="M376.148,523.851 V254.47199999999998 h60.776 v269.378 H376.148 L376.148,523.851 z" id="svg_3"/>
	<path fill="#F36F21" d="M617.8820000000001,372.578 h113.71 v139.664 c-18.429,5.65 -35.779,9.613 -52.052,11.885 c-16.273,2.2720000000000002 -32.906,3.409 -49.896,3.409 c-43.264,0 -76.299,-11.945 -99.104,-35.838 c-22.811,-23.891000000000002 -34.211,-58.192 -34.211,-102.905 c0,-43.484 13.232,-77.387 39.701,-101.708 c26.468,-24.321 63.159,-36.482 110.084,-36.482 c29.406,0 57.768,5.5280000000000005 85.087,16.583 l-20.193,45.695 c-20.914,-9.826 -42.676,-14.74 -65.286,-14.74 c-26.271,0 -47.315,8.292 -63.129,24.874 c-15.815,16.583 -23.722,38.878 -23.722,66.886 c0,29.234 6.372,51.562 19.115,66.976 c12.742,15.417 31.271,23.124 55.581,23.124 c12.676,0 25.551,-1.227 38.621,-3.685 v-56.198 h-54.306 V372.578 L617.8820000000001,372.578 z" id="svg_4"/>
	<path fill="#F36F21" d="M799.8199999999999,523.851 V254.47199999999998 h60.775 v269.378 H799.8199999999999 L799.8199999999999,523.851 z" id="svg_5"/>
	<path fill="#F36F21" d="M1043.318,523.851 h-60.777 V302.009 h-77.833 v-47.537 h216.443 v47.537 h-77.833 V523.851 z" id="svg_6"/>
	<path fill="#F36F21" d="M1340.73,523.851 l-20.781,-64.119 h-104.496 l-20.782,64.119 h-65.48 l101.163,-270.484 h74.305 l101.556,270.484 H1340.73 zM1305.441,411.824 c-19.213,-58.102 -30.029,-90.958 -32.446,-98.576 c-2.4210000000000003,-7.614 -4.151,-13.634 -5.196,-18.057 c-4.313,15.725 -16.664,54.603 -37.054,116.633 H1305.441 z" id="svg_7"/>
	<path fill="#F36F21" d="M1442.287,523.851 V254.47199999999998 h60.775 v222.209 h116.261 v47.169 H1442.287 z" id="svg_8"/>
</g><g id="svg_9" class="">
	<path fill="#F36F21" d="M1572.864,145.321 c0,19.208 -5.494,33.971 -16.483,44.289 c-10.988,10.318 -26.738,15.477 -47.25,15.477 c-20.513,0 -36.263,-5.159 -47.251,-15.477 c-10.989,-10.318 -16.483,-25.133 -16.483,-44.448 c0,-19.313 5.51,-34.063 16.529,-44.25 c11.02,-10.185 26.814,-15.279 47.389,-15.279 c20.571,0 36.309,5.133 47.204,15.398 C1567.416,111.298 1572.864,126.06200000000001 1572.864,145.321 zM1475.157,145.321 c0,12.965 2.839,22.727 8.517,29.288 c5.6770000000000005,6.562 14.162,9.842 25.457,9.842 c22.647,0 33.973,-13.043 33.973,-39.13 c0,-26.139 -11.264,-39.209 -33.789,-39.209 c-11.296,0 -19.812,3.293 -25.549,9.881 C1478.026,122.582 1475.157,132.358 1475.157,145.321 z" id="svg_10"/>
</g><g id="svg_11" class="">
	<path fill="#F36F21" d="M1317.425,144.369 c0,19.103 -6.271,33.733 -18.816,43.892 C1286.063,198.42 1267.945,203.5 1244.26,203.5 h-37.911 V87.46 h42.031 c21.854,0 38.826,5 50.914,15.001 C1311.381,112.462 1317.425,126.43100000000001 1317.425,144.369 zM1287.939,145.004 c0,-24.922 -12.699,-37.384 -38.095,-37.384 h-15.108 v75.561 h12.179 C1274.264,183.181 1287.939,170.456 1287.939,145.004 z" id="svg_12"/>
</g><g id="svg_13" class="">
	<path fill="#F36F21" d="M1034.349,203.5 V87.46 h28.389 V203.5 H1034.349 z" id="svg_14"/>
</g><g id="svg_15" class="">
	<path fill="#F36F21" d="M866.9949999999999,203.5 h-28.387 v-95.563 h-36.354 V87.46 h101.095 v20.478 h-36.354 V203.5 z" id="svg_16"/>
</g><g id="svg_17" class="">
	<path fill="#F36F21" d="M594.736,158.973 V203.5 h-28.388 V87.46 h39.009 c18.191,0 31.652,2.871 40.384,8.612 c8.729,5.742 13.094,14.459 13.094,26.152 c0,6.8260000000000005 -2.168,12.898 -6.501,18.216 c-4.336,5.318 -10.471,9.485 -18.406,12.501 c20.146,26.087 33.271,42.939 39.376,50.559 h-31.5 l-31.958,-44.527 H594.736 L594.736,158.973 zM594.736,138.972 h9.156 c8.975,0 15.598,-1.296 19.871,-3.8890000000000002 c4.272,-2.592 6.41,-6.667 6.41,-12.223 c0,-5.503 -2.183,-9.418 -6.547,-11.747 c-4.365,-2.3280000000000003 -11.126,-3.492 -20.283,-3.492 h-8.607 V138.972 L594.736,138.972 z" id="svg_18"/>
</g><g id="svg_19" class="">
	<path fill="#F36F21" d="M399.30600000000004,203.5 l-9.707,-27.621 h-48.808 L331.08500000000004,203.5 H300.5 l47.251,-116.516 h34.706 L429.89099999999996,203.5 H399.30600000000004 zM382.823,155.243 c-8.975,-25.028 -14.026,-39.182 -15.155,-42.463 c-1.13,-3.2800000000000002 -1.9380000000000002,-5.8740000000000006 -2.426,-7.7780000000000005 c-2.016,6.774 -7.784,23.521 -17.308,50.242 L382.823,155.243 L382.823,155.243 z" id="svg_20"/>
</g><g id="svg_214" class="">
	<path fill="#F36F21" d="M171.19299999999998,123.93299999999999 c0,12.489 -4.503,22.039 -13.508,28.653 c-9.005,6.615 -21.81,9.921 -38.414,9.921 h-12.179 v41.273 h-28.387 V87.74 h42.764 c16.238,0 28.585,3.03 37.041,9.088 C166.96500000000003,102.887 171.19299999999998,111.922 171.19299999999998,123.93299999999999 zM107.09299999999996,142.347 h9.34 c8.729,0 15.262,-1.494 19.597,-4.484 c4.334,-2.989 6.501,-7.3420000000000005 6.501,-13.057 c0,-5.767 -1.8170000000000002,-10.026 -5.448,-12.778 c-3.633,-2.7510000000000003 -9.326,-4.127 -17.078,-4.127 h-12.912 L107.09299999999996,142.347 L107.09299999999996,142.347 z" id="svg_215"/>
</g><g id="svg_216" class="">
	<path fill="#F36F21" d="M171.19299999999998,123.93299999999999 c0,12.489 -4.503,22.039 -13.508,28.653 c-9.005,6.615 -21.81,9.921 -38.414,9.921 h-12.179 v41.273 h-28.387 V87.74 h42.764 c16.238,0 28.585,3.03 37.041,9.088 C166.96500000000003,102.887 171.19299999999998,111.922 171.19299999999998,123.93299999999999 zM107.09299999999996,142.347 h9.34 c8.729,0 15.262,-1.494 19.597,-4.484 c4.334,-2.989 6.501,-7.3420000000000005 6.501,-13.057 c0,-5.767 -1.8170000000000002,-10.026 -5.448,-12.778 c-3.633,-2.7510000000000003 -9.326,-4.127 -17.078,-4.127 h-12.912 L107.09299999999996,142.347 L107.09299999999996,142.347 z" id="svg_217"/>
</g></g></svg>