<?xml version="1.0" encoding="utf-8"?>
<!-- Generator: Adobe Illustrator 23.0.4, SVG Export Plug-In . SVG Version: 6.00 Build 0)  -->
<svg version="1.1" id="Layer_1" xmlns="http://www.w3.org/2000/svg" xmlns:xlink="http://www.w3.org/1999/xlink" x="0px" y="0px"
	 viewBox="0 0 747.2 404.4" style="enable-background:new 0 0 747.2 404.4;" xml:space="preserve">
<style type="text/css">
	.st0{fill:#FFFFFF;stroke:#FFFFFF;stroke-width:2;stroke-miterlimit:10;}
	.st1{fill:#FFFFFF;}
</style>
<path class="st0" d="M187.7,61.2C243.5,107,296.9,155.4,353,200.9c0,0.4,0,0.9,0,1.3c-56.3,46.1-110.4,94.6-166.4,141
	c-0.8-23.9,1.5-51.3-1.1-73.1c-61.5,0-123,0-184.5,0c0-45.7,0-91.4,0-137.1c61.5,0,123,0,184.5,0c0.4,0,0.8,0,1.1,0
	C187.4,109.5,185.1,82.6,187.7,61.2z"/>
<g>
	<g id="Capa_1">
		<path class="st1" d="M552.2,0c-111,0.1-201,90.1-201.1,201.1c0,79.4,41.9,119.1,72.5,148.1c4.8,4.5,9.4,9,13.5,13
			c4.2,5,8.2,10.2,11.9,15.6c4.3,6.5,7.7,17.3,13.5,21.5c0.3,0.2,0.7,0.4,1.1,0.4c3.6,2.9,8.1,4.5,12.7,4.5
			c11.9,0.2,21.6-9.3,21.8-21.2c0,0,0-0.1,0-0.1V282.6c9.1,5.5,18.7,10,28.8,13.5c8.9,3,18.2,4.5,27.6,4.5
			c13.3,0.1,26.4-2.6,38.6-7.9c23.9-10.1,43-29.1,53.1-53c10.6-24.7,10.6-52.6,0-77.3c-10.1-23.8-29.1-42.8-52.9-52.9
			c-12.2-5.3-25.4-8-38.6-7.9c-9.6,0-19.2,1.5-28.4,4.5c-9.8,3.1-19.2,7.3-28,12.6c-2.1-4.7-5.2-8.8-9-12.2c-3.5-3.1-8-4.9-12.6-4.9
			c-11.7,0.3-21.1,9.7-21.3,21.4v187.9c-27.4-25.9-54.8-53.4-54.8-109.7c0-83.6,67.8-151.4,151.4-151.4
			c83.6,0,151.4,67.8,151.4,151.4c0,83.6-67.7,151.3-151.2,151.4c-13.7-1.2-25.7,9-26.9,22.6c-1.2,13.7,9,25.7,22.6,26.9
			c1.4,0.1,2.8,0.1,4.2,0c111-3.3,198.3-96,195-207C743.9,88.6,658.5,3.2,552.2,0z M502.7,179.3c2.9-6.7,7-12.8,12.2-18
			c5.2-5.2,11.3-9.3,18-12.1c6.9-3,14.3-4.5,21.8-4.5c7.6-0.1,15.2,1.5,22.2,4.5c6.7,2.9,12.8,7,18,12.1c5.1,5.1,9.2,11.3,12,18
			c2.9,6.9,4.3,14.3,4.3,21.8c0.1,7.6-1.4,15.2-4.3,22.2c-2.8,6.7-6.8,12.8-12,18c-5.2,5.1-11.3,9.2-18,11.9
			c-7,2.9-14.6,4.4-22.2,4.3c-14.9,0.1-29.1-5.7-39.7-16.2c-5.2-5.2-9.3-11.3-12.2-18c-3-7-4.6-14.6-4.5-22.2
			C498.2,193.6,499.8,186.2,502.7,179.3L502.7,179.3z"/>
	</g>
</g>
</svg>
