<svg xmlns="http://www.w3.org/2000/svg" viewBox="0 0 185.5 31.89">
    <title>logo_horizontal_negro</title>
    <g id="Layer_2" data-name="Layer 2">
        <g id="Capa_1" data-name="Capa 1">
            <path d="M37.78,21V9.88A1,1,0,0,1,38.86,8.8h5.33c3.55,0,5.45,1.82,5.45,4.57s-1.84,4.57-5.45,4.57H42V21a1,1,0,0,1-1.11,1.09H38.86A1,1,0,0,1,37.78,21ZM44,14.72a1.24,1.24,0,1,0,0-2.48H42v2.48Z" />
            <path d="M61.81,22a4.66,4.66,0,0,1-1.94.43,2.68,2.68,0,0,1-2.42-1.27,5,5,0,0,1-3.28,1.27c-2.44,0-4.06-1.29-4.06-3.23,0-2.11,1.77-3.53,4.43-3.53a7.36,7.36,0,0,1,2.07.35v-.22c0-.78-.53-1.21-1.54-1.21a5,5,0,0,0-2,.43.88.88,0,0,1-1.33-.45l-.28-.58c-.35-.76-.19-1.17.28-1.43a8.3,8.3,0,0,1,3.65-.9c2.4,0,5.1.94,5.1,4.44v2.46c0,.19,0,.37.19.37s.3-.1.51-.1.47.22.61.69l.43,1.42C62.45,21.61,62.18,21.75,61.81,22Zm-5.1-2.84V18.2a4.37,4.37,0,0,0-1.43-.3c-.76,0-1.27.41-1.27,1s.51,1,1.29,1A1.39,1.39,0,0,0,56.71,19.11Z" />
            <path d="M71.71,12.81l-.49,1.93c-.16.64-.55.76-.92.62a3.51,3.51,0,0,0-1.15-.23,1.47,1.47,0,0,0-1.68,1.6v4.32a1,1,0,0,1-1.07,1.07H64.31a1,1,0,0,1-1.06-1.07V15.52c0-.14-.08-.21-.17-.21s-.49.19-.73.19-.39-.1-.52-.68l-.36-1.74A.84.84,0,0,1,62,12a4.11,4.11,0,0,1,1.64-.34,2.92,2.92,0,0,1,2.8,1.51,3.6,3.6,0,0,1,3.1-1.51,5.2,5.2,0,0,1,1.62.24C71.51,12,71.88,12.14,71.71,12.81Z" />
            <path d="M81.73,21.61a4.89,4.89,0,0,1-2.83.77c-2.15,0-4.34-1.16-4.34-4.2V14.76h-.82a1,1,0,0,1-1.07-1.06v-.86a1,1,0,0,1,1.07-1.07h.82V9.45c0-.67.39-1,1.06-1.06l2-.25c.68-.08,1.07.39,1.07,1.07v2.56h1.8a1,1,0,0,1,1.07,1.07v.86a1,1,0,0,1-1.07,1.06h-1.8v2.93c0,.92.45,1.15,1,1.15a1.45,1.45,0,0,0,.76-.27c.55-.35.8-.06,1,.35l.71,1.7C82.41,21.16,82,21.4,81.73,21.61Z" />
            <path d="M83,8a2.43,2.43,0,1,1,2.44,2.42A2.43,2.43,0,0,1,83,8Zm.33,13V12.84a1,1,0,0,1,1.07-1.07h2.09a1,1,0,0,1,1.06,1.07v8.21a1,1,0,0,1-1.06,1.07H84.42A1,1,0,0,1,83.35,21.05Z" />
            <path d="M101.55,22a4.67,4.67,0,0,1-2,.43,2.65,2.65,0,0,1-2.5-1.45,4.34,4.34,0,0,1-3.3,1.45A5.13,5.13,0,0,1,88.7,17a5.12,5.12,0,0,1,5.1-5.39,4.66,4.66,0,0,1,2.21.53V8.84c0-.7.37-1,1.07-1.07l2.07-.26c.7-.09,1.07.39,1.07,1.06v9.94c0,.19,0,.37.18.37s.31-.1.53-.1.49.22.62.69l.41,1.42C102.16,21.61,101.92,21.75,101.55,22ZM96.2,17a1.72,1.72,0,0,0-1.7-1.83A1.7,1.7,0,0,0,92.82,17a1.7,1.7,0,0,0,1.68,1.82A1.75,1.75,0,0,0,96.2,17Z" />
            <path d="M102.14,17c0-3.12,2.42-5.39,5.8-5.39s5.8,2.27,5.8,5.39-2.42,5.38-5.8,5.38S102.14,20.11,102.14,17Zm7.48,0a1.69,1.69,0,1,0-3.36,0,1.69,1.69,0,1,0,3.36,0Z" />
            <path d="M119.56,21V9.88a1,1,0,0,1,1.08-1.08h5.21c4.36,0,7.07,2.66,7.07,6.64s-2.71,6.68-7.07,6.68h-5.21A1,1,0,0,1,119.56,21Zm6.1-2.35c1.69,0,2.91-1.13,2.91-3.22s-1.22-3.22-2.91-3.22h-1.84v6.44Z" />
            <path d="M133.43,8a2.43,2.43,0,1,1,2.44,2.42A2.43,2.43,0,0,1,133.43,8Zm.33,13V12.84a1,1,0,0,1,1.06-1.07h2.09A1,1,0,0,1,138,12.84v8.21a1,1,0,0,1-1.07,1.07h-2.09A1,1,0,0,1,133.76,21.05Z" />
            <path d="M151.91,13.08l-.36,1.74c-.13.58-.37.66-.52.68s-.53-.19-.73-.19-.17.07-.17.21v5.27c0,3.54-2.56,5.32-6,5.32a7.34,7.34,0,0,1-4.76-1.61.92.92,0,0,1-.08-1.38l.82-1a.87.87,0,0,1,1.37-.08,5.07,5.07,0,0,0,2.69,1c1,0,2.17-.45,2.17-1.52v-.88a4.91,4.91,0,0,1-2.46.66,4.69,4.69,0,0,1-4.77-4.82,4.68,4.68,0,0,1,4.77-4.81,4.9,4.9,0,0,1,3.24,1.23,3,3,0,0,1,2.64-1.23,4.14,4.14,0,0,1,1.66.34C151.94,12.2,152,12.49,151.91,13.08Zm-5.26,3.34a1.73,1.73,0,0,0-1.72-1.82,1.71,1.71,0,0,0-1.7,1.82,1.71,1.71,0,1,0,3.42,0Z" />
            <path d="M151.89,8a2.43,2.43,0,1,1,2.44,2.42A2.43,2.43,0,0,1,151.89,8Zm.33,13V12.84a1,1,0,0,1,1.07-1.07h2.09a1,1,0,0,1,1.06,1.07v8.21a1,1,0,0,1-1.06,1.07h-2.09A1,1,0,0,1,152.22,21.05Z" />
            <path d="M166.65,21.61a4.92,4.92,0,0,1-2.83.77c-2.15,0-4.34-1.16-4.34-4.2V14.76h-.82a1,1,0,0,1-1.07-1.06v-.86a1,1,0,0,1,1.07-1.07h.82V9.45c0-.67.38-1,1.06-1.06l2.05-.25c.68-.08,1.07.39,1.07,1.07v2.56h1.8a1,1,0,0,1,1.07,1.07v.86a1,1,0,0,1-1.07,1.06h-1.8v2.93c0,.92.45,1.15,1,1.15a1.48,1.48,0,0,0,.76-.27c.55-.35.8-.06,1,.35l.72,1.7C167.32,21.16,166.94,21.4,166.65,21.61Z" />
            <path d="M179,22a4.66,4.66,0,0,1-1.94.43,2.68,2.68,0,0,1-2.42-1.27,5,5,0,0,1-3.28,1.27c-2.44,0-4.06-1.29-4.06-3.23,0-2.11,1.76-3.53,4.43-3.53a7.36,7.36,0,0,1,2.07.35v-.22c0-.78-.53-1.21-1.54-1.21a5,5,0,0,0-2,.43.88.88,0,0,1-1.33-.45l-.29-.58c-.34-.76-.18-1.17.29-1.43a8.3,8.3,0,0,1,3.65-.9c2.4,0,5.1.94,5.1,4.44v2.46c0,.19,0,.37.19.37s.3-.1.51-.1.47.22.61.69l.43,1.42C179.62,21.61,179.35,21.75,179,22Zm-5.1-2.84V18.2a4.37,4.37,0,0,0-1.43-.3c-.76,0-1.27.41-1.27,1s.51,1,1.29,1A1.39,1.39,0,0,0,173.88,19.11Z" />
            <path d="M179.41,18.74V8.8c0-.68.39-1,1.07-1.07l2.09-.24c.68-.09,1.07.39,1.07,1.06v9.78c0,.2,0,.39.2.39a1.85,1.85,0,0,0,.37-.09c.37-.08.59.07.76.66l.45,1.6c.2.65,0,.82-.41,1a4.19,4.19,0,0,1-2,.45C180.62,22.38,179.41,21.16,179.41,18.74Z" />
            <path d="M15.94,0A15.91,15.91,0,0,0,0,15.86c0,6.26,3.32,9.39,5.75,11.68.38.36.74.7,1.06,1a13.72,13.72,0,0,1,1,1.23c.34.51.62,1.36,1.09,1.7a.16.16,0,0,0,.09,0,1.56,1.56,0,0,0,1,.36,1.63,1.63,0,0,0,1.23-.51,1.61,1.61,0,0,0,.49-1.17V22.29A11.93,11.93,0,0,0,14,23.34a7.24,7.24,0,0,0,2.19.37,7.55,7.55,0,0,0,3.06-.63,7.9,7.9,0,0,0,2.51-1.68,8.13,8.13,0,0,0,1.69-2.49,7.7,7.7,0,0,0,0-6.1,7.95,7.95,0,0,0-4.2-4.18,7.69,7.69,0,0,0-5.32-.27,10.92,10.92,0,0,0-2.22,1,2.89,2.89,0,0,0-.72-1A1.52,1.52,0,0,0,10,8a1.64,1.64,0,0,0-1.19.51A1.6,1.6,0,0,0,8.25,9.7V24.51c-2.15-2-4.31-4.21-4.31-8.65a12,12,0,1,1,12,11.94,2,2,0,1,0,0,3.91A15.86,15.86,0,1,0,15.94,0ZM12,14.14a4.49,4.49,0,0,1,1-1.41,4.35,4.35,0,0,1,1.42-1,4.22,4.22,0,0,1,1.73-.36,4.33,4.33,0,0,1,1.76.36,4.45,4.45,0,0,1,1.42,1,4.28,4.28,0,0,1,1,1.41,4.51,4.51,0,0,1,.34,1.72,4.59,4.59,0,0,1-.34,1.75,4.28,4.28,0,0,1-1,1.41,4.43,4.43,0,0,1-1.42.95,4.67,4.67,0,0,1-1.76.33A4.55,4.55,0,0,1,14.42,20,4.32,4.32,0,0,1,13,19a4.49,4.49,0,0,1-1-1.41,4.25,4.25,0,0,1-.36-1.75A4.18,4.18,0,0,1,12,14.14Z" />
        </g>
    </g>
</svg>