<svg xmlns="http://www.w3.org/2000/svg" viewBox="0 0 147.72 119.37"><defs><style>.cls-1{fill:#fff;}</style></defs><title>logo_vertical_blanco</title><g id="Layer_2" data-name="Layer 2"><g id="Capa_1" data-name="Capa 1"><path class="cls-1" d="M0,114.29V103.14a1,1,0,0,1,1.09-1.09H6.41c3.55,0,5.46,1.83,5.46,4.57s-1.85,4.57-5.46,4.57H4.26v3.1a1,1,0,0,1-1.1,1.08H1.09A1,1,0,0,1,0,114.29ZM6.25,108a1.24,1.24,0,1,0,0-2.48h-2V108Z"/><path class="cls-1" d="M24,115.21a4.73,4.73,0,0,1-1.95.43,2.68,2.68,0,0,1-2.42-1.27,5,5,0,0,1-3.28,1.27c-2.44,0-4.05-1.29-4.05-3.24,0-2.11,1.76-3.52,4.42-3.52a7.29,7.29,0,0,1,2.07.34V109c0-.78-.53-1.21-1.54-1.21a5.12,5.12,0,0,0-2,.43.88.88,0,0,1-1.34-.45l-.28-.58c-.35-.75-.19-1.16.28-1.43a8.33,8.33,0,0,1,3.65-.9c2.4,0,5.1.94,5.1,4.45v2.45c0,.19,0,.37.19.37s.31-.1.51-.1.47.23.62.7l.43,1.41C24.67,114.86,24.41,115,24,115.21Zm-5.11-2.85v-.9a4.05,4.05,0,0,0-1.43-.31c-.76,0-1.27.41-1.27,1s.51,1,1.29,1A1.39,1.39,0,0,0,18.93,112.36Z"/><path class="cls-1" d="M33.93,106.07,33.44,108c-.16.64-.55.76-.92.62a3.79,3.79,0,0,0-1.15-.23,1.48,1.48,0,0,0-1.68,1.6v4.33a1,1,0,0,1-1.06,1.06H26.54a1,1,0,0,1-1.07-1.06v-5.54c0-.14-.08-.2-.16-.2s-.5.18-.74.18-.39-.1-.51-.67l-.37-1.75a.83.83,0,0,1,.51-1.12,4,4,0,0,1,1.64-.35,2.92,2.92,0,0,1,2.81,1.52,3.57,3.57,0,0,1,3.09-1.52,5.2,5.2,0,0,1,1.62.24C33.73,105.23,34.1,105.39,33.93,106.07Z"/><path class="cls-1" d="M44,114.86a4.89,4.89,0,0,1-2.82.78c-2.15,0-4.35-1.17-4.35-4.2V108H36A1,1,0,0,1,34.9,107v-.86A1,1,0,0,1,36,105h.82v-2.31c0-.68.39-1,1.07-1.07l2-.24c.67-.09,1.06.38,1.06,1.06V105h1.81a1,1,0,0,1,1.06,1.07V107A1,1,0,0,1,42.77,108H41v2.93c0,.93.45,1.15,1,1.15a1.53,1.53,0,0,0,.75-.26c.56-.35.8-.07,1,.34l.72,1.71C44.63,114.41,44.24,114.65,44,114.86Z"/><path class="cls-1" d="M45.25,101.27a2.43,2.43,0,1,1,2.43,2.42A2.42,2.42,0,0,1,45.25,101.27Zm.32,13v-8.22A1,1,0,0,1,46.64,105h2.09a1,1,0,0,1,1.06,1.07v8.22a1,1,0,0,1-1.06,1.06H46.64A1,1,0,0,1,45.57,114.31Z"/><path class="cls-1" d="M63.77,115.21a4.64,4.64,0,0,1-2,.43,2.65,2.65,0,0,1-2.5-1.46,4.33,4.33,0,0,1-3.3,1.46,5.4,5.4,0,0,1,0-10.78,4.72,4.72,0,0,1,2.22.53v-3.3c0-.69.37-1,1.06-1.06l2.07-.27c.7-.08,1.07.39,1.07,1.07v9.93c0,.19,0,.37.18.37s.31-.1.54-.1.49.23.61.7l.41,1.41C64.38,114.86,64.14,115,63.77,115.21Zm-5.35-5a1.7,1.7,0,1,0-3.38,0,1.7,1.7,0,0,0,1.68,1.82A1.75,1.75,0,0,0,58.42,110.25Z"/><path class="cls-1" d="M64.36,110.25c0-3.12,2.42-5.39,5.8-5.39s5.8,2.27,5.8,5.39-2.42,5.39-5.8,5.39S64.36,113.36,64.36,110.25Zm7.48,0a1.69,1.69,0,1,0-1.68,1.82A1.71,1.71,0,0,0,71.84,110.25Z"/><path class="cls-1" d="M81.78,114.29V103.14a1,1,0,0,1,1.09-1.09h5.2c4.37,0,7.07,2.67,7.07,6.64s-2.7,6.68-7.07,6.68h-5.2A1,1,0,0,1,81.78,114.29Zm6.11-2.36c1.68,0,2.91-1.13,2.91-3.22s-1.23-3.22-2.91-3.22H86v6.44Z"/><path class="cls-1" d="M95.65,101.27a2.43,2.43,0,1,1,2.44,2.42A2.43,2.43,0,0,1,95.65,101.27Zm.33,13v-8.22A1,1,0,0,1,97.05,105h2.09a1,1,0,0,1,1.06,1.07v8.22a1,1,0,0,1-1.06,1.06H97.05A1,1,0,0,1,96,114.31Z"/><path class="cls-1" d="M114.14,106.33l-.37,1.75c-.12.57-.37.65-.51.67s-.54-.18-.74-.18a.18.18,0,0,0-.17.2V114c0,3.54-2.56,5.33-6,5.33a7.26,7.26,0,0,1-4.75-1.62.91.91,0,0,1-.09-1.37l.82-1a.89.89,0,0,1,1.38-.08,4.94,4.94,0,0,0,2.68,1c1,0,2.17-.45,2.17-1.51v-.89a4.85,4.85,0,0,1-2.46.66,4.82,4.82,0,0,1,0-9.63,4.88,4.88,0,0,1,3.24,1.23,3,3,0,0,1,2.65-1.23,4,4,0,0,1,1.66.35C114.16,105.45,114.26,105.74,114.14,106.33Zm-5.27,3.34a1.71,1.71,0,1,0-1.72,1.83A1.73,1.73,0,0,0,108.87,109.67Z"/><path class="cls-1" d="M114.12,101.27a2.43,2.43,0,1,1,2.44,2.42A2.43,2.43,0,0,1,114.12,101.27Zm.32,13v-8.22a1,1,0,0,1,1.07-1.07h2.09a1,1,0,0,1,1.07,1.07v8.22a1,1,0,0,1-1.07,1.06h-2.09A1,1,0,0,1,114.44,114.31Z"/><path class="cls-1" d="M128.87,114.86a4.9,4.9,0,0,1-2.83.78c-2.15,0-4.34-1.17-4.34-4.2V108h-.82a1,1,0,0,1-1.07-1.06v-.86a1,1,0,0,1,1.07-1.07h.82v-2.31c0-.68.39-1,1.06-1.07l2-.24c.68-.09,1.07.38,1.07,1.06V105h1.8a1,1,0,0,1,1.07,1.07V107a1,1,0,0,1-1.07,1.06h-1.8v2.93c0,.93.45,1.15,1,1.15a1.53,1.53,0,0,0,.76-.26c.55-.35.8-.07,1,.34l.72,1.71C129.55,114.41,129.16,114.65,128.87,114.86Z"/><path class="cls-1" d="M141.21,115.21a4.73,4.73,0,0,1-2,.43,2.68,2.68,0,0,1-2.42-1.27,5,5,0,0,1-3.28,1.27c-2.44,0-4.05-1.29-4.05-3.24,0-2.11,1.76-3.52,4.42-3.52a7.29,7.29,0,0,1,2.07.34V109c0-.78-.53-1.21-1.54-1.21a5.12,5.12,0,0,0-2,.43.88.88,0,0,1-1.34-.45l-.28-.58c-.35-.75-.19-1.16.28-1.43a8.33,8.33,0,0,1,3.65-.9c2.4,0,5.11.94,5.11,4.45v2.45c0,.19,0,.37.18.37s.31-.1.51-.1.47.23.62.7l.43,1.41C141.84,114.86,141.58,115,141.21,115.21Zm-5.11-2.85v-.9a4.05,4.05,0,0,0-1.43-.31c-.76,0-1.27.41-1.27,1s.51,1,1.29,1A1.39,1.39,0,0,0,136.1,112.36Z"/><path class="cls-1" d="M141.64,112v-9.94c0-.67.39-1,1.06-1.06l2.09-.25c.68-.08,1.07.39,1.07,1.06v9.78c0,.21,0,.39.2.39l.37-.08c.37-.08.6.06.76.65l.45,1.6c.21.66,0,.82-.41,1a4.19,4.19,0,0,1-2,.45C142.85,115.64,141.64,114.41,141.64,112Z"/><path class="cls-1" d="M73.24,0a44.75,44.75,0,0,0-44.7,44.7c0,17.65,9.31,26.48,16.11,32.93,1.07,1,2.08,2,3,2.9A41.9,41.9,0,0,1,50.3,84c1,1.45,1.72,3.85,3,4.79a.53.53,0,0,0,.25.1,4.48,4.48,0,0,0,2.83,1,4.78,4.78,0,0,0,4.85-4.74V62.83a32.84,32.84,0,0,0,6.4,3,19.48,19.48,0,0,0,6.13,1,21.29,21.29,0,0,0,8.59-1.75A22.26,22.26,0,0,0,94.16,53.29a21.84,21.84,0,0,0,0-17.18A22.2,22.2,0,0,0,82.39,24.34a21.29,21.29,0,0,0-8.59-1.76,20.89,20.89,0,0,0-6.32,1,29.09,29.09,0,0,0-6.21,2.8,7.94,7.94,0,0,0-2.05-2.71,4.24,4.24,0,0,0-2.8-1.09,4.85,4.85,0,0,0-4.74,4.75V69.09c-6-5.75-12.1-11.88-12.1-24.39A33.66,33.66,0,1,1,73.24,78.36a5.52,5.52,0,1,0,0,11A44.7,44.7,0,0,0,73.24,0Zm-11,39.86a13,13,0,0,1,2.71-4,12.79,12.79,0,0,1,4-2.7,11.82,11.82,0,0,1,4.84-1,12,12,0,0,1,4.93,1,12.79,12.79,0,0,1,4,2.7,12.19,12.19,0,0,1,2.66,4,12.51,12.51,0,0,1,1,4.84,12.79,12.79,0,0,1-1,4.94,12.19,12.19,0,0,1-2.66,4,12.32,12.32,0,0,1-4,2.65,12.52,12.52,0,0,1-4.93.95A12.47,12.47,0,0,1,65,53.63a13,13,0,0,1-2.71-4,12.28,12.28,0,0,1-1-4.94A12,12,0,0,1,62.26,39.86Z"/></g></g></svg>