<?xml version="1.0" encoding="utf-8"?>
<!-- Generator: Adobe Illustrator 15.1.0, SVG Export Plug-In . SVG Version: 6.00 Build 0)  -->
<!DOCTYPE svg PUBLIC "-//W3C//DTD SVG 1.1//EN" "http://www.w3.org/Graphics/SVG/1.1/DTD/svg11.dtd">
<svg version="1.1" id="Layer_1" xmlns="http://www.w3.org/2000/svg" xmlns:xlink="http://www.w3.org/1999/xlink" x="0px" y="0px"
	 width="2128px" height="627px" viewBox="0 0 2128 627" enable-background="new 0 0 2128 627" xml:space="preserve">
<g>
	<path fill="#F36F21" d="M734.244,394.081c0,44.345-13.43,78.309-40.289,101.893c-26.859,23.585-65.647,35.377-116.357,35.377
		h-81.167V261.972h89.989c46.79,0,83.126,11.608,109.006,34.824C721.304,320.012,734.244,352.44,734.244,394.081z M671.114,395.556
		c0-57.854-27.188-86.783-81.559-86.783h-32.349v175.409h26.075C641.835,484.182,671.114,454.641,671.114,395.556z"/>
	<path fill="#F36F21" d="M793.648,531.351V261.972h60.776v269.378H793.648L793.648,531.351z"/>
	<path fill="#F36F21" d="M1035.382,380.078h113.71v139.664c-18.429,5.65-35.779,9.613-52.052,11.885
		c-16.273,2.272-32.906,3.409-49.896,3.409c-43.264,0-76.299-11.945-99.104-35.838c-22.811-23.891-34.211-58.192-34.211-102.905
		c0-43.484,13.232-77.387,39.701-101.708c26.468-24.321,63.159-36.482,110.084-36.482c29.406,0,57.768,5.528,85.087,16.583
		l-20.193,45.695c-20.914-9.826-42.676-14.74-65.286-14.74c-26.271,0-47.315,8.292-63.129,24.874
		c-15.815,16.583-23.722,38.878-23.722,66.886c0,29.234,6.372,51.562,19.115,66.976c12.742,15.417,31.271,23.124,55.581,23.124
		c12.676,0,25.551-1.227,38.621-3.685v-56.198h-54.306V380.078L1035.382,380.078z"/>
	<path fill="#F36F21" d="M1217.32,531.351V261.972h60.775v269.378H1217.32L1217.32,531.351z"/>
	<path fill="#F36F21" d="M1460.818,531.351h-60.777V309.509h-77.833v-47.537h216.443v47.537h-77.833V531.351z"/>
	<path fill="#F36F21" d="M1758.23,531.351l-20.781-64.119h-104.496l-20.782,64.119h-65.48l101.163-270.484h74.305l101.556,270.484
		H1758.23z M1722.941,419.324c-19.213-58.102-30.029-90.958-32.446-98.576c-2.421-7.614-4.151-13.634-5.196-18.057
		c-4.313,15.725-16.664,54.603-37.054,116.633H1722.941z"/>
	<path fill="#F36F21" d="M1859.787,531.351V261.972h60.775v222.209h116.261v47.169H1859.787z"/>
</g>
<g>
	<path fill="#F36F21" d="M1990.364,152.821c0,19.208-5.494,33.971-16.483,44.289c-10.988,10.318-26.738,15.477-47.25,15.477
		c-20.513,0-36.263-5.159-47.251-15.477c-10.989-10.318-16.483-25.133-16.483-44.448c0-19.313,5.51-34.063,16.529-44.25
		c11.02-10.185,26.814-15.279,47.389-15.279c20.571,0,36.309,5.133,47.204,15.398
		C1984.916,118.798,1990.364,133.562,1990.364,152.821z M1892.657,152.821c0,12.965,2.839,22.727,8.517,29.288
		c5.677,6.562,14.162,9.842,25.457,9.842c22.647,0,33.973-13.043,33.973-39.13c0-26.139-11.264-39.209-33.789-39.209
		c-11.296,0-19.812,3.293-25.549,9.881C1895.526,130.082,1892.657,139.858,1892.657,152.821z"/>
</g>
<g>
	<path fill="#F36F21" d="M1734.925,151.869c0,19.103-6.271,33.733-18.816,43.892C1703.563,205.92,1685.445,211,1661.76,211h-37.911
		V94.96h42.031c21.854,0,38.826,5,50.914,15.001C1728.881,119.962,1734.925,133.931,1734.925,151.869z M1705.439,152.504
		c0-24.922-12.699-37.384-38.095-37.384h-15.108v75.561h12.179C1691.764,190.681,1705.439,177.956,1705.439,152.504z"/>
</g>
<g>
	<path fill="#F36F21" d="M1451.849,211V94.96h28.389V211H1451.849z"/>
</g>
<g>
	<path fill="#F36F21" d="M1284.495,211h-28.387v-95.563h-36.354V94.96h101.095v20.478h-36.354V211z"/>
</g>
<g>
	<path fill="#F36F21" d="M1012.236,166.473V211h-28.388V94.96h39.009c18.191,0,31.652,2.871,40.384,8.612
		c8.729,5.742,13.094,14.459,13.094,26.152c0,6.826-2.168,12.898-6.501,18.216c-4.336,5.318-10.471,9.485-18.406,12.501
		c20.146,26.087,33.271,42.939,39.376,50.559h-31.5l-31.958-44.527H1012.236L1012.236,166.473z M1012.236,146.472h9.156
		c8.975,0,15.598-1.296,19.871-3.889c4.272-2.592,6.41-6.667,6.41-12.223c0-5.503-2.183-9.418-6.547-11.747
		c-4.365-2.328-11.126-3.492-20.283-3.492h-8.607V146.472L1012.236,146.472z"/>
</g>
<g>
	<path fill="#F36F21" d="M816.806,211l-9.707-27.621h-48.808L748.585,211H718l47.251-116.516h34.706L847.391,211H816.806z
		 M800.323,162.743c-8.975-25.028-14.026-39.182-15.155-42.463c-1.13-3.28-1.938-5.874-2.426-7.778
		c-2.016,6.774-7.784,23.521-17.308,50.242L800.323,162.743L800.323,162.743z"/>
</g>
<g>
	<path fill="#F36F21" d="M370.039,34.799c0.712,0.089,0.44,1.161,0.48,1.922c-0.16,0-0.32,0-0.48,0
		C370.039,36.081,370.039,35.44,370.039,34.799z"/>
	<path fill="#F36F21" d="M370.52,38.644c0.16,0,0.32,0,0.48,0c0,0.961,0,1.922,0,2.883c-0.16,0-0.32,0-0.48,0
		c0-0.48,0-0.961,0-1.441S370.52,39.124,370.52,38.644z"/>
	<path fill="#F36F21" d="M370.039,40.085c0.16,0,0.32,0,0.48,0c0,0.48,0,0.961,0,1.441s0,0.961,0,1.441
		C369.458,42.908,370.315,40.93,370.039,40.085z"/>
	<path fill="#F36F21" d="M370.52,41.526c0.16,0,0.32,0,0.48,0c0,0.961,0,1.922,0,2.883c-0.16,0-0.32,0-0.48,0
		c0-0.48,0-0.961,0-1.442C370.52,42.486,370.52,42.007,370.52,41.526z"/>
	<path fill="#F36F21" d="M370.52,44.41c0.16,0,0.32,0,0.48,0c0,0.801,0,1.602,0,2.402C369.958,46.893,370.782,45.108,370.52,44.41z"
		/>
	<path fill="#F36F21" d="M81.247,67.955c70.637-0.801,144.636-0.801,215.273,0c-0.48,0-0.961,0-1.441,0
		c-69.996,0-139.99,0-209.987,0C83.81,67.955,82.528,67.955,81.247,67.955z"/>
	<path fill="#F36F21" d="M73.078,68.436c0.06-1.062,2.038-0.204,2.883-0.48c0,0.16,0,0.32,0,0.48
		C75,68.436,74.039,68.436,73.078,68.436z"/>
	<path fill="#F36F21" d="M75.961,68.436c0-0.16,0-0.32,0-0.48c0.801,0,1.602,0,2.403,0c0,0.16,0,0.32,0,0.48
		C77.563,68.436,76.762,68.436,75.961,68.436z"/>
	<path fill="#F36F21" d="M78.364,68.436c0-0.16,0-0.32,0-0.48c0.961,0,1.922,0,2.883,0c1.282,0,2.563,0,3.844,0
		c0,0.16,0,0.32,0,0.48C82.849,68.436,80.606,68.436,78.364,68.436z"/>
	<path fill="#F36F21" d="M85.091,68.436c0-0.16,0-0.32,0-0.48c69.997,0,139.991,0,209.987,0c0,0.16,0,0.32,0,0.48
		C225.081,68.436,155.087,68.436,85.091,68.436z"/>
	<path fill="#F36F21" d="M295.078,68.436c0-0.16,0-0.32,0-0.48c0.48,0,0.961,0,1.441,0c0.16,0,0.32,0,0.48,0c0,0.16,0,0.32,0,0.48
		C296.359,68.436,295.719,68.436,295.078,68.436z"/>
	<path fill="#F36F21" d="M297,68.436c0-0.16,0-0.32,0-0.48c0.761,0.04,1.833-0.231,1.922,0.48
		C298.281,68.436,297.641,68.436,297,68.436z"/>
	<path fill="#F36F21" d="M58.182,145.799c0,116.766,0,233.533,0,350.298c0,0.32,0,0.642,0,0.961
		C57.381,381.096,57.381,261.761,58.182,145.799z"/>
	<path fill="#F36F21" d="M180.714,240.461c0.801,0,1.602,0,2.402,0c0,0.16,0,0.32,0,0.48
		C182.418,240.679,180.633,241.503,180.714,240.461z"/>
	<path fill="#F36F21" d="M183.117,240.942c0-0.16,0-0.32,0-0.48c1.602,0,3.204,0,4.805,0c0,0.16,0,0.32,0,0.48
		C186.32,240.942,184.719,240.942,183.117,240.942z"/>
	<path fill="#F36F21" d="M187.922,240.942c0-0.16,0-0.32,0-0.48c0.801,0,1.602,0,2.402,0
		C190.405,241.503,188.62,240.679,187.922,240.942z"/>
	<path fill="#F36F21" d="M313.338,472.072c0.16,0,0.32,0,0.48,0c0,3.203,0,6.405,0,9.609c0,0.961,0,1.922,0,2.884
		c0,1.762,0,3.522,0,5.285c-0.16,0-0.32,0-0.48,0C313.338,483.925,313.338,477.998,313.338,472.072z"/>
	<path fill="#F36F21" d="M313.818,481.683c0.788-0.079,0.788,2.962,0,2.884C313.818,483.604,313.818,482.644,313.818,481.683z"/>
	<path fill="#F36F21" d="M313.338,489.852c0,0.802,0,1.603,0,2.402c0,0.641,0,1.281,0,1.922c-0.16,0-0.32,0-0.48,0
		C313.154,492.872,312.247,490.362,313.338,489.852z"/>
	<path fill="#F36F21" d="M313.338,489.852c0.16,0,0.32,0,0.48,0c0,0.802,0,1.603,0,2.402c-0.16,0-0.32,0-0.48,0
		C313.338,491.453,313.338,490.652,313.338,489.852z"/>
	<path fill="#F36F21" d="M313.338,492.254c0.16,0,0.32,0,0.48,0c-0.286,0.995,0.594,3.156-0.48,3.363c0-0.48,0-0.961,0-1.441
		C313.338,493.535,313.338,492.895,313.338,492.254z"/>
	<path fill="#F36F21" d="M312.857,497.059c0.16,0,0.32,0,0.48,0c-0.04,0.762,0.23,1.833-0.48,1.924
		C312.857,498.34,312.857,497.699,312.857,497.059z"/>
	<path fill="#F36F21" d="M58.182,498.981c0.16,0,0.32,0,0.48,0c0,0.641,0,1.28,0,1.922C58.01,500.754,58.264,499.7,58.182,498.981z"
		/>
	<path fill="#F36F21" d="M72.117,510.514c0.801,0,1.602,0,2.403,0c0,0.16,0,0.32,0,0.48
		C73.821,510.731,72.036,511.556,72.117,510.514z"/>
	<path fill="#F36F21" d="M79.805,510.994c0-0.16,0-0.32,0-0.48c70.476,0,140.953,0,211.428,0c0,0.16,0,0.32,0,0.48
		C220.758,510.994,150.281,510.994,79.805,510.994z"/>
	<path fill="#F36F21" d="M297,510.994c0-0.16,0-0.32,0-0.48c0.801,0,1.602,0,2.402,0C299.483,511.556,297.698,510.731,297,510.994z"
		/>
	<path fill="#F36F21" d="M77.883,510.994c0.641,0,1.281,0,1.922,0c70.476,0,140.953,0,211.428,0c0.961,0,1.923,0,2.884,0
		C223.16,511.795,148.84,511.795,77.883,510.994z"/>
	<path fill="#F36F21" d="M182.156,540.306c-0.344-0.778,2.266-0.778,1.922,0C183.437,540.306,182.796,540.306,182.156,540.306z"/>
	<path fill="#F36F21" d="M177.351,540.786c0.149-0.652,1.203-0.398,1.922-0.48C179.184,541.018,178.111,540.746,177.351,540.786z"/>
	<path fill="#F36F21" d="M156.688,560.007c0,0.642,0,1.281,0,1.922c-0.16,0-0.32,0-0.48,0
		C156.248,561.168,155.977,560.096,156.688,560.007z"/>
	<path fill="#F36F21" d="M208.104,562.409c0.652,0.148,0.399,1.203,0.48,1.923c-0.16,0-0.32,0-0.48,0
		C208.104,563.69,208.104,563.05,208.104,562.409z"/>
	<path fill="#F36F21" d="M208.104,564.332c0.16,0,0.32,0,0.48,0c0,0.801,0,1.602,0,2.402c-0.16,0-0.32,0-0.48,0
		C208.104,565.934,208.104,565.133,208.104,564.332z"/>
	<path fill="#F36F21" d="M208.104,567.215c0.16,0,0.32,0,0.48,0c0,0.801,0,1.603,0,2.402c-0.16,0-0.32,0-0.48,0
		C208.104,568.816,208.104,568.016,208.104,567.215z"/>
	<path fill="#F36F21" d="M156.208,568.656c0.711,0.089,0.44,1.161,0.48,1.922C156.036,570.43,156.29,569.375,156.208,568.656z"/>
	<path fill="#F36F21" d="M208.104,569.617c0.16,0,0.32,0,0.48,0c-0.04,0.761,0.231,1.833-0.48,1.922
		C208.104,570.898,208.104,570.258,208.104,569.617z"/>
	<path fill="#F36F21" d="M370.52,587.396c0.16,0,0.32,0,0.48,0c0,0.641,0,1.28,0,1.922c-0.16,0-0.32,0-0.48,0
		C370.52,588.678,370.52,588.037,370.52,587.396z"/>
	<path fill="#F36F21" d="M178.312,593.163c0.641,0,1.282,0,1.922,0c0,0.16,0,0.32,0,0.479
		C179.473,593.604,178.401,593.874,178.312,593.163z"/>
	<path fill="#F36F21" d="M180.234,593.644c0-0.159,0-0.319,0-0.479c1.121,0,2.242,0,3.364,0c0,0.16,0,0.32,0,0.479
		C182.476,593.644,181.355,593.644,180.234,593.644z"/>
	<path fill="#F36F21" d="M183.598,593.644c0-0.159,0-0.319,0-0.479c0.801,0,1.602,0,2.402,0
		C186.081,594.205,184.296,593.381,183.598,593.644z"/>
	<path fill="#F36F21" d="M327.753,626.318c0.061-1.062,2.039-0.204,2.884-0.48c0,0.16,0,0.32,0,0.48c-0.48,0-0.961,0-1.441,0
		C328.714,626.318,328.233,626.318,327.753,626.318z"/>
	<path fill="#F36F21" d="M333.52,626.318c0-0.16,0-0.32,0-0.48c0.641,0,1.281,0,1.922,0
		C335.353,626.55,334.28,626.278,333.52,626.318z"/>
	<path fill="#F36F21" d="M41.364,626.799c0-0.16,0-0.32,0-0.479c94.183,0,188.363,0,282.545,0c0,0.159,0,0.319,0,0.479
		C229.727,626.799,135.547,626.799,41.364,626.799z"/>
	<path fill="#F36F21" d="M323.909,626.799c0-0.16,0-0.32,0-0.479c0.801,0,1.602,0,2.402,0c0,0.159,0,0.319,0,0.479
		C325.511,626.799,324.71,626.799,323.909,626.799z"/>
	<path fill="#F36F21" d="M326.312,626.799c0-0.16,0-0.32,0-0.479c0.48,0,0.961,0,1.441,0s0.961,0,1.442,0c0,0.159,0,0.319,0,0.479
		C328.233,626.799,327.272,626.799,326.312,626.799z"/>
	<path fill="#F36F21" d="M329.195,626.799c0-0.16,0-0.32,0-0.479c0.48,0,0.961,0,1.441,0c0.32,0,0.641,0,0.961,0
		C331.679,627.36,329.893,626.536,329.195,626.799z"/>
	<path fill="#F36F21" d="M40.403,626.799c0.32,0,0.641,0,0.961,0c94.183,0,188.363,0,282.545,0c0.801,0,1.602,0,2.402,0
		C232.127,627.6,134.586,627.6,40.403,626.799z"/>
	<path fill="#F36F21" d="M14.455,9.812c1.01-0.592,1.874-1.33,2.883-1.922c-0.269,0.692-0.75,1.172-1.442,1.441
		c-1.803,1.4-3.405,3.002-4.805,4.805c-0.269,0.692-0.75,1.173-1.441,1.441c0.592-1.009,1.33-1.873,1.922-2.883
		C12.735,11.938,13.696,10.976,14.455,9.812z"/>
	<path fill="#F36F21" d="M11.571,12.695c0.758-1.164,1.719-2.125,2.883-2.883C13.696,10.976,12.735,11.938,11.571,12.695z"/>
	<path fill="#F36F21" d="M355.623,9.332c0.16,0,0.32,0,0.48,0c0.213,0.428,0.422,0.859,0.961,0.961
		c0.17,0.631,0.847,0.756,0.962,1.442C357.021,11.138,356.22,10.337,355.623,9.332z"/>
	<path fill="#F36F21" d="M358.026,11.734c-0.115-0.686-0.792-0.811-0.962-1.442c1.483,1.08,2.765,2.361,3.845,3.844
		c-0.39-0.091-0.479-0.482-0.961-0.479C359.514,12.809,358.873,12.168,358.026,11.734z"/>
	<path fill="#F36F21" d="M359.948,13.656c0.481-0.001,0.571,0.389,0.961,0.479c0.17,0.631,0.846,0.756,0.961,1.441
		C361.022,15.144,360.382,14.503,359.948,13.656z"/>
	<path fill="#F36F21" d="M364.753,19.903c0.918,1.004,1.55,2.294,1.923,3.844C365.758,22.743,365.126,21.453,364.753,19.903z"/>
	<path fill="#F36F21" d="M364.272,606.137c0.161-1.121,0.493-2.069,1.441-2.401c-0.254,0.387-0.501,0.779-0.48,1.44
		C364.712,605.295,364.908,606.131,364.272,606.137z"/>
	<path fill="#F36F21" d="M358.987,612.384c0.597-1.005,1.397-1.807,2.402-2.401c-0.142,0.979-1.3,0.94-1.441,1.922
		C359.559,611.994,359.469,612.385,358.987,612.384z"/>
	<path fill="#F36F21" d="M356.584,614.786c1.006-0.597,1.807-1.397,2.403-2.402c0.481,0.001,0.571-0.39,0.961-0.479
		c-1.24,1.643-2.682,3.084-4.325,4.324C355.793,615.597,356.469,615.472,356.584,614.786z"/>
	<path fill="#F36F21" d="M353.701,617.669c0.758-1.164,1.719-2.125,2.883-2.883c-0.115,0.686-0.791,0.811-0.961,1.44
		c-0.691,0.271-1.172,0.75-1.441,1.441C354.021,617.669,353.861,617.669,353.701,617.669z"/>
	<path fill="#F36F21" d="M17.338,618.63c-0.435-0.847-1.075-1.487-1.922-1.922c-0.434-0.847-1.075-1.487-1.922-1.922
		c-0.269-0.692-0.75-1.173-1.442-1.441c0-0.159,0-0.319,0-0.479c2.123,1.721,4.045,3.644,5.767,5.766
		C17.658,618.63,17.498,618.63,17.338,618.63z"/>
	<path fill="#F36F21" d="M4.364,25.189c0.532-1.87,1.329-3.477,2.402-4.805C6.234,22.253,5.437,23.86,4.364,25.189z"/>
	<path fill="#F36F21" d="M11.091,14.137c1.4-1.803,3.002-3.405,4.805-4.805C14.496,11.135,12.894,12.736,11.091,14.137z"/>
	<path fill="#F36F21" d="M22.143,5.007c1.004-0.917,2.294-1.549,3.844-1.922C24.982,4.002,23.692,4.634,22.143,5.007z"/>
	<path fill="#F36F21" d="M360.909,14.137c-1.08-1.483-2.361-2.765-3.845-3.844c-0.539-0.102-0.748-0.533-0.961-0.961
		c2.923,1.723,5.273,4.017,6.728,7.208c-0.428-0.213-0.859-0.422-0.961-0.961C361.755,14.893,361.079,14.768,360.909,14.137z"/>
	<path fill="#F36F21" d="M351.299,5.968c-1.228-0.054-1.682-0.881-2.402-1.441C350.017,4.687,350.967,5.019,351.299,5.968z"/>
	<path fill="#F36F21" d="M60.104,73.721c0.692,0.109,0.167,1.434,0.961,1.441c-0.135,0.776,0.454,0.828,0.48,1.442
		C60.541,76.168,60.081,75.186,60.104,73.721z"/>
	<path fill="#F36F21" d="M62.987,78.526c1.24,1.643,2.682,3.084,4.325,4.325c0.428,0.213,0.859,0.422,0.961,0.961
		c-2.655-1.509-4.737-3.592-6.247-6.247C62.454,77.778,62.885,77.987,62.987,78.526z"/>
	<path fill="#F36F21" d="M78.364,91.981c25.241,20.408,49.255,42.044,74.48,62.468c0,0.16,0,0.32,0,0.48
		C127.703,134.26,103.038,113.117,78.364,91.981z"/>
	<path fill="#F36F21" d="M155.727,157.332c2.113,1.411,4.097,2.951,5.767,4.805C159.277,160.83,157.341,159.242,155.727,157.332z"/>
	<path fill="#F36F21" d="M169.662,168.864c0.161,0,0.32,0,0.481,0c0.215,1.387,2.067,1.136,2.402,2.402
		C171.308,170.743,170.236,170.052,169.662,168.864z"/>
	<path fill="#F36F21" d="M187.441,181.357c0.98-0.141,0.942-1.3,1.922-1.441c-0.573,1.188-1.645,1.879-2.883,2.403
		C186.693,181.891,186.902,181.459,187.441,181.357z"/>
	<path fill="#F36F21" d="M192.728,176.552c3.103-2.183,5.729-4.842,8.649-7.208c0.979-0.142,0.942-1.3,1.922-1.442
		c-3.866,3.983-8.346,7.352-12.493,11.052C191.131,177.839,192.402,177.669,192.728,176.552z"/>
	<path fill="#F36F21" d="M206.662,164.54c6.316-4.896,12.068-10.356,18.26-15.377c0.98-0.141,0.942-1.3,1.922-1.441
		c-7.069,6.705-14.786,12.763-22.104,19.221C205.065,165.826,206.337,165.656,206.662,164.54z"/>
	<path fill="#F36F21" d="M228.286,146.28c10.065-8.515,19.916-17.244,30.272-25.468c-9.804,8.937-20.254,17.227-30.272,25.948
		C228.286,146.6,228.286,146.44,228.286,146.28z"/>
	<path fill="#F36F21" d="M261.441,118.41c7.406-6.85,15.567-12.944,23.065-19.702c0.16,0,0.32,0,0.48,0
		C277.446,105.583,269.492,112.045,261.441,118.41z"/>
	<path fill="#F36F21" d="M297,88.617c0.848-0.434,1.488-1.075,1.922-1.922c0.16,0,0.32,0,0.48,0
		c-1.926,2.239-4.164,4.165-6.727,5.766C293.84,90.903,295.604,89.945,297,88.617z"/>
	<path fill="#F36F21" d="M299.402,86.695c0.597-1.005,1.397-1.806,2.402-2.403c-0.169,0.631-0.846,0.756-0.961,1.442
		C300.213,85.904,300.088,86.58,299.402,86.695z"/>
	<path fill="#F36F21" d="M300.844,85.734c0.115-0.686,0.792-0.811,0.961-1.442c2.604-2.202,5.006-4.604,7.208-7.208
		c0.39-0.091,0.479-0.482,0.961-0.48C307.131,79.848,304.088,82.892,300.844,85.734z"/>
	<path fill="#F36F21" d="M309.013,77.085c0.435-0.847,1.075-1.488,1.923-1.922c-0.17,0.631-0.847,0.756-0.962,1.442
		C309.492,76.603,309.402,76.994,309.013,77.085z"/>
	<path fill="#F36F21" d="M310.936,74.202c-0.142-0.98-1.301-0.942-1.442-1.922c0.848,0.434,1.488,1.075,1.923,1.922
		C311.256,74.202,311.096,74.202,310.936,74.202z"/>
	<path fill="#F36F21" d="M299.883,68.916c0.9,0.702,3.185,0.019,3.845,0.961C302.093,69.91,300.374,70.027,299.883,68.916z"/>
	<path fill="#F36F21" d="M309.013,72.28c0.16,0,0.32,0,0.48,0c0.142,0.979,1.301,0.942,1.442,1.922
		C310.088,73.768,309.447,73.127,309.013,72.28z"/>
	<path fill="#F36F21" d="M307.091,78.526c1.08-1.483,2.361-2.765,3.845-3.844c0,0.16,0,0.32,0,0.48
		c-0.848,0.435-1.488,1.075-1.923,1.922C308.033,77.226,308.07,78.385,307.091,78.526z"/>
	<path fill="#F36F21" d="M303.247,82.371c1.482-1.08,2.765-2.361,3.844-3.844c0.979-0.141,0.942-1.3,1.922-1.441
		c-2.202,2.603-4.604,5.006-7.208,7.208C301.946,83.313,303.105,83.351,303.247,82.371z"/>
	<path fill="#F36F21" d="M298.922,86.695c1.24-1.643,2.682-3.084,4.325-4.325c-0.142,0.98-1.301,0.942-1.442,1.922
		c-1.005,0.597-1.806,1.397-2.402,2.403C299.242,86.695,299.082,86.695,298.922,86.695z"/>
	<path fill="#F36F21" d="M297.48,87.656c0.631-0.17,0.756-0.846,1.441-0.961c-0.434,0.847-1.074,1.488-1.922,1.922
		C297.092,88.228,297.482,88.138,297.48,87.656z"/>
	<path fill="#F36F21" d="M292.194,92.461c1.441-1.922,3.584-3.144,5.286-4.805c0.002,0.482-0.389,0.572-0.48,0.961
		c-1.396,1.328-3.16,2.286-4.324,3.844C292.516,92.461,292.354,92.461,292.194,92.461z"/>
	<path fill="#F36F21" d="M286.909,96.786c0.77-1.793,2.936-2.19,4.324-3.364C290.325,95.077,288.289,95.604,286.909,96.786z"/>
	<path fill="#F36F21" d="M226.844,147.241c18.865-16.533,38.009-32.788,57.663-48.533c-7.498,6.758-15.659,12.852-23.065,19.702
		c-0.943,0.818-2.401,1.122-2.883,2.402c-10.356,8.224-20.207,16.953-30.272,25.468C227.654,146.449,227.53,147.125,226.844,147.241
		z"/>
	<path fill="#F36F21" d="M225.402,148.202c0.631-0.169,0.756-0.846,1.441-0.961c0.687-0.115,0.811-0.792,1.442-0.961
		c0,0.16,0,0.32,0,0.48c-0.632,0.169-0.756,0.846-1.442,0.961c-0.979,0.142-0.941,1.3-1.922,1.441
		C225.014,148.773,225.404,148.684,225.402,148.202z"/>
	<path fill="#F36F21" d="M206.662,164.54c5.948-5.745,12.545-10.841,18.74-16.338c0.002,0.482-0.389,0.572-0.48,0.961
		C218.73,154.183,212.979,159.643,206.662,164.54z"/>
	<path fill="#F36F21" d="M203.299,167.422c0.434-0.847,1.075-1.488,1.922-1.922C204.787,166.348,204.146,166.988,203.299,167.422z"
		/>
	<path fill="#F36F21" d="M201.857,168.384c0.631-0.17,0.756-0.846,1.441-0.961c0.847-0.434,1.488-1.075,1.922-1.922
		c0.631-0.17,0.756-0.846,1.441-0.961c-0.325,1.116-1.597,1.286-1.922,2.402c-0.631,0.17-0.756,0.846-1.441,0.961
		c-0.979,0.142-0.942,1.3-1.922,1.442C201.468,168.956,201.858,168.866,201.857,168.384z"/>
	<path fill="#F36F21" d="M192.728,176.552c2.659-3.106,6.156-5.376,9.13-8.168c0.001,0.482-0.39,0.572-0.48,0.961
		C198.457,171.71,195.83,174.369,192.728,176.552z"/>
	<path fill="#F36F21" d="M189.363,179.436c0.435-0.847,1.075-1.488,1.923-1.922C190.852,178.361,190.211,179.001,189.363,179.436z"
		/>
	<path fill="#F36F21" d="M187.441,181.357c0.435-0.847,1.075-1.488,1.922-1.922c0.848-0.434,1.488-1.075,1.923-1.922
		c0.631-0.17,0.755-0.846,1.441-0.961c-0.325,1.117-1.597,1.287-1.922,2.403c-0.632,0.17-0.756,0.846-1.442,0.961
		C188.384,180.058,188.422,181.216,187.441,181.357z"/>
	<path fill="#F36F21" d="M183.598,179.916c-1.38-1.183-3.417-1.709-4.325-3.364C180.662,177.726,182.828,178.123,183.598,179.916z"
		/>
	<path fill="#F36F21" d="M172.545,171.267c-0.335-1.267-2.188-1.016-2.402-2.402c1.238,0.524,2.309,1.214,2.883,2.402
		C172.866,171.267,172.706,171.267,172.545,171.267z"/>
	<path fill="#F36F21" d="M161.494,162.137c-1.669-1.854-3.654-3.394-5.767-4.805c-0.692-0.269-1.172-0.75-1.441-1.441
		c2.8,1.844,5.556,3.734,7.688,6.247C161.814,162.137,161.654,162.137,161.494,162.137z"/>
	<path fill="#F36F21" d="M152.844,154.449c-25.225-20.424-49.24-42.06-74.48-62.468c-0.692-0.269-1.173-0.75-1.442-1.441
		C102.852,111.22,127.681,133.001,152.844,154.449z"/>
	<path fill="#F36F21" d="M68.273,83.812c-0.102-0.539-0.534-0.748-0.961-0.961c-0.091-0.389-0.482-0.479-0.48-0.961
		c0.847,0.434,1.488,1.075,1.922,1.922C68.593,83.812,68.433,83.812,68.273,83.812z"/>
	<path fill="#F36F21" d="M67.312,82.851c-1.643-1.24-3.084-2.682-4.325-4.325c1.574,0.829,2.27,2.535,3.844,3.364
		C66.83,82.372,67.22,82.462,67.312,82.851z"/>
	<path fill="#F36F21" d="M60.104,73.721c0.352-0.449,0.874-0.728,1.441-0.961c-0.403,0.558-0.634,1.288-0.48,2.402
		C60.271,75.155,60.796,73.83,60.104,73.721z"/>
	<path fill="#F36F21" d="M308.532,507.63c1.792-0.931,2.28-3.166,3.364-4.805c-0.274,2.607-1.732,4.034-3.364,5.286
		c-0.16,0-0.32,0-0.48,0C307.964,507.702,308.239,507.657,308.532,507.63z"/>
	<path fill="#F36F21" d="M309.013,148.202c0.333-0.949,1.282-1.281,2.403-1.441c0,0.16,0,0.32,0,0.48
		C310.221,147.167,309.928,147.996,309.013,148.202z"/>
	<path fill="#F36F21" d="M304.688,151.565c0.573-1.188,1.645-1.879,2.883-2.403c-0.335,1.267-2.188,1.016-2.402,2.403
		C305.009,151.565,304.849,151.565,304.688,151.565z"/>
	<path fill="#F36F21" d="M302.767,153.007c0.979-0.141,0.942-1.3,1.922-1.441c-0.919,1.323-2.04,2.445-3.364,3.364
		C301.466,153.949,302.625,153.987,302.767,153.007z"/>
	<path fill="#F36F21" d="M299.402,156.371c0.919-1.324,2.04-2.445,3.364-3.364c-0.142,0.98-1.301,0.942-1.442,1.922
		C300.345,155.07,300.383,156.229,299.402,156.371z"/>
	<path fill="#F36F21" d="M293.637,161.176c1.225-1.819,3.272-2.814,4.805-4.325c-0.091,0.389-0.481,0.479-0.48,0.961
		c-0.428,0.213-0.859,0.422-0.961,0.961c-0.943,0.818-2.401,1.122-2.883,2.402C293.957,161.176,293.797,161.176,293.637,161.176z"/>
	<path fill="#F36F21" d="M282.584,170.306c2.586-2.7,5.473-5.099,8.649-7.208c-0.215,1.387-2.067,1.136-2.402,2.403
		c-2.112,1.411-4.097,2.951-5.767,4.805C282.904,170.306,282.744,170.306,282.584,170.306z"/>
	<path fill="#F36F21" d="M223,220.28c17.699-15.617,35.817-30.815,54.299-45.649c-0.215,1.387-2.067,1.136-2.402,2.402
		c-7.074,5.58-14.011,11.297-20.663,17.299c-0.943,0.818-2.401,1.122-2.883,2.403C241.572,204.254,232.638,212.618,223,220.28z"/>
	<path fill="#F36F21" d="M221.559,221.241c0.631-0.17,0.756-0.846,1.441-0.961c-0.435,0.847-1.075,1.488-1.922,1.922
		C221.169,221.813,221.56,221.723,221.559,221.241z"/>
	<path fill="#F36F21" d="M215.792,226.526c1.656-2.028,3.887-3.481,5.767-5.286c0.001,0.482-0.39,0.572-0.48,0.961
		C219.273,223.601,217.771,225.302,215.792,226.526z"/>
	<path fill="#F36F21" d="M166.779,235.176c-0.119-0.522-0.956-0.326-0.961-0.961c1.121,0.161,2.07,0.492,2.402,1.441
		C167.834,235.402,167.44,235.155,166.779,235.176z"/>
	<path fill="#F36F21" d="M158.13,228.929c-0.694-1.388-2.311-1.854-3.364-2.883c-0.434-0.847-1.075-1.488-1.922-1.922
		c-0.091-0.389-0.482-0.479-0.48-0.961c2.018,1.987,4.512,3.497,6.247,5.767C158.45,228.929,158.29,228.929,158.13,228.929z"/>
	<path fill="#F36F21" d="M152.844,224.124c-0.98-0.142-0.942-1.3-1.922-1.442c0-0.16,0-0.32,0-0.48
		c0.631,0.17,0.756,0.846,1.442,0.961C152.362,223.645,152.753,223.735,152.844,224.124z"/>
	<path fill="#F36F21" d="M150.922,222.202c-0.979-0.141-0.942-1.3-1.922-1.441c-0.98-0.142-0.942-1.3-1.922-1.441
		c-0.482-1.281-1.939-1.584-2.883-2.403c-0.215-1.387-2.067-1.136-2.403-2.402C145.121,216.791,148.255,219.262,150.922,222.202z"/>
	<path fill="#F36F21" d="M133.624,207.786c-1.146-0.777-2.118-1.726-3.364-2.402c0-0.16,0-0.32,0-0.481
		C131.454,205.791,132.971,206.356,133.624,207.786z"/>
	<path fill="#F36F21" d="M127.376,202.5c-13.587-10.759-26.214-22.479-39.883-33.156c-0.335-1.267-2.188-1.016-2.403-2.403
		C99.601,178.38,113.505,190.424,127.376,202.5z"/>
	<path fill="#F36F21" d="M82.208,165.02c-0.215-1.387-2.068-1.136-2.403-2.403c1.238,0.524,2.31,1.214,2.883,2.403
		C82.528,165.02,82.368,165.02,82.208,165.02z"/>
	<path fill="#F36F21" d="M58.182,145.799c1.259,0.502,2,1.524,2.883,2.402c-1.286-0.283-2.813-2.791-2.403,0.48
		c0,115.805,0,231.611,0,347.416c-0.16,0-0.32,0-0.48,0C58.182,379.332,58.182,262.565,58.182,145.799z"/>
	<path fill="#F36F21" d="M312.377,146.76c2.346-1.43,1.441,13.542,1.441,19.701c0,100.824,0,206.153,0,305.611
		c-0.16,0-0.32,0-0.48,0c0-79.031,0-162.969,0-243.624c0-27.463,1.562-54.649,0-80.728
		C313.289,146.917,313.135,146.804,312.377,146.76z"/>
	<path fill="#F36F21" d="M79.325,162.617c0.16,0,0.32,0,0.48,0c0.335,1.267,2.188,1.016,2.403,2.403
		C80.97,164.496,79.898,163.806,79.325,162.617z"/>
	<path fill="#F36F21" d="M87.494,169.345c13.668,10.677,26.295,22.397,39.883,33.156c0.692,0.269,1.173,0.75,1.442,1.441
		C114.5,192.952,101.107,181.038,87.494,169.345z"/>
	<path fill="#F36F21" d="M130.26,205.384c1.246,0.676,2.218,1.625,3.364,2.402c0.806,1.596,3.18,1.625,3.844,3.364
		C134.783,209.51,132.214,207.754,130.26,205.384z"/>
	<path fill="#F36F21" d="M141.312,214.514c0.16,0,0.32,0,0.48,0c0.335,1.267,2.188,1.016,2.403,2.402
		C142.957,216.392,141.885,215.702,141.312,214.514z"/>
	<path fill="#F36F21" d="M147.078,219.319c0.979,0.141,0.942,1.3,1.922,1.441c0.091,0.389,0.482,0.479,0.48,0.961
		C148.476,221.125,147.674,220.324,147.078,219.319z"/>
	<path fill="#F36F21" d="M149.48,221.721c0.001-0.482-0.389-0.572-0.48-0.961c0.98,0.141,0.942,1.3,1.922,1.441
		c0,0.16,0,0.32,0,0.48C150.236,222.567,150.112,221.891,149.48,221.721z"/>
	<path fill="#F36F21" d="M150.922,222.682c0.98,0.142,0.942,1.3,1.922,1.442c0.091,0.389,0.482,0.479,0.48,0.961
		C152.319,224.488,151.519,223.688,150.922,222.682z"/>
	<path fill="#F36F21" d="M153.325,225.085c0.001-0.482-0.389-0.572-0.48-0.961c0.847,0.434,1.488,1.075,1.922,1.922
		C154.081,225.931,153.956,225.254,153.325,225.085z"/>
	<path fill="#F36F21" d="M154.766,226.046c1.053,1.029,2.669,1.495,3.364,2.883C156.645,228.332,155.552,227.343,154.766,226.046z"
		/>
	<path fill="#F36F21" d="M166.779,235.176c0.661-0.021,1.055,0.226,1.441,0.48c0.109,0.692,1.434,0.167,1.441,0.961
		C168.197,236.641,167.216,236.181,166.779,235.176z"/>
	<path fill="#F36F21" d="M201.857,236.617c1-0.601,2.026-1.177,2.883-1.922C204.723,236.28,203.374,236.532,201.857,236.617z"/>
	<path fill="#F36F21" d="M215.792,226.526c1.979-1.224,3.481-2.925,5.286-4.325c0.847-0.434,1.487-1.075,1.922-1.922
		c9.638-7.662,18.572-16.025,28.351-23.545c-12.528,10.856-25.02,21.751-37.961,32.195
		C213.725,227.663,215.577,227.913,215.792,226.526z"/>
	<path fill="#F36F21" d="M254.233,194.332c6.652-6.001,13.589-11.719,20.663-17.299
		C268.317,183.108,261.323,188.768,254.233,194.332z"/>
	<path fill="#F36F21" d="M283.064,170.306c1.67-1.854,3.654-3.394,5.767-4.805C287.218,167.411,285.281,168.999,283.064,170.306z"/>
	<path fill="#F36F21" d="M294.117,161.176c0.481-1.28,1.939-1.584,2.883-2.402C296.427,159.961,295.354,160.652,294.117,161.176z"/>
	<path fill="#F36F21" d="M299.402,156.371c0.98-0.142,0.942-1.3,1.922-1.441c-0.091,0.389-0.481,0.479-0.48,0.961
		c-1.009,0.592-1.873,1.33-2.883,1.922c-0.001-0.482,0.39-0.572,0.48-0.961C298.831,156.76,298.921,156.369,299.402,156.371z"/>
	<path fill="#F36F21" d="M300.844,155.89c-0.001-0.482,0.39-0.572,0.48-0.961c1.324-0.919,2.445-2.041,3.364-3.364
		c0.16,0,0.32,0,0.48,0C303.929,153.208,302.487,154.65,300.844,155.89z"/>
	<path fill="#F36F21" d="M306.13,508.592c0.381-0.476,2.259-1.831,2.402-0.962c-0.293,0.027-0.568,0.072-0.48,0.481
		C307.624,508.484,306.967,508.628,306.13,508.592z"/>
	<path fill="#F36F21" d="M160.532,550.877c0.033-1.409,1.099-1.784,1.922-2.402c0,0.16,0,0.32,0,0.48
		C161.326,549.108,161.379,550.442,160.532,550.877z"/>
	<path fill="#F36F21" d="M158.13,575.864c0.714,0.407,0.695,1.547,0.961,2.401C158.378,577.858,158.058,577.058,158.13,575.864z"/>
	<path fill="#F36F21" d="M159.571,579.229c0.522,0.118,0.326,0.955,0.961,0.961c-0.135,0.775,0.455,0.826,0.481,1.44
		C160.064,581.298,159.732,580.349,159.571,579.229z"/>
	<path fill="#F36F21" d="M162.935,584.033c1.08,1.481,2.361,2.765,3.844,3.844c0.428,0.213,0.859,0.422,0.961,0.961
		c-2.49-1.354-4.412-3.275-5.766-5.766c0.16,0,0.32,0,0.48,0C162.546,583.461,162.937,583.551,162.935,584.033z"/>
	<path fill="#F36F21" d="M169.182,589.799c0.387,0.255,0.78,0.502,1.442,0.48c0.132,0.988,1.79,0.453,1.922,1.441
		C171.151,591.354,169.782,590.961,169.182,589.799z"/>
	<path fill="#F36F21" d="M198.974,587.877c1.228-1.335,2.509-2.616,3.845-3.844C202.067,585.845,200.786,587.126,198.974,587.877z"
		/>
	<path fill="#F36F21" d="M204.74,581.149c0.563-0.72,0.598-1.966,1.441-2.402C206.021,579.868,205.689,580.817,204.74,581.149z"/>
	<path fill="#F36F21" d="M193.208,542.708c1.228,0.214,2.209,0.674,2.883,1.441C194.863,543.936,193.882,543.476,193.208,542.708z"
		/>
	<path fill="#F36F21" d="M203.299,550.877c0.561,0.721,1.388,1.175,1.441,2.402C203.791,552.947,203.459,551.998,203.299,550.877z"
		/>
	<path fill="#F36F21" d="M198.493,587.877c1.24-1.643,2.682-3.084,4.325-4.324c0,0.16,0,0.32,0,0.48
		c-1.336,1.228-2.617,2.509-3.845,3.844C198.813,587.877,198.653,587.877,198.493,587.877z"/>
	<path fill="#F36F21" d="M169.182,589.799c-0.119-0.521-0.955-0.325-0.961-0.961c1.121,0.161,2.07,0.493,2.403,1.441
		C169.962,590.301,169.568,590.054,169.182,589.799z"/>
	<path fill="#F36F21" d="M166.779,587.877c-1.483-1.079-2.765-2.361-3.844-3.844C164.418,585.112,165.7,586.394,166.779,587.877z"/>
	<path fill="#F36F21" d="M160.532,580.188c1.216,0.388,1.226,1.979,1.922,2.885c-0.16,0-0.32,0-0.48,0
		c-0.414-0.389-0.286-1.316-0.961-1.442C160.987,581.016,160.397,580.965,160.532,580.188z"/>
	<path fill="#F36F21" d="M158.61,555.202c0.214-1.229,0.674-2.21,1.441-2.884C159.838,553.546,159.378,554.528,158.61,555.202z"/>
	<path fill="#F36F21" d="M162.455,548.475c0.98-0.142,0.942-1.301,1.922-1.44c-0.434,0.847-1.075,1.487-1.922,1.922
		C162.455,548.795,162.455,548.635,162.455,548.475z"/>
	<path fill="#F36F21" d="M3.883,599.409c0.714,0.407,0.695,1.548,0.961,2.403C4.131,601.403,3.811,600.604,3.883,599.409z"/>
	<path fill="#F36F21" d="M6.286,604.695c0.844,0.438,0.879,1.684,1.441,2.401C6.778,606.766,6.446,605.816,6.286,604.695z"/>
	<path fill="#F36F21" d="M16.376,618.149c-1.684-1.359-3.392-2.694-4.325-4.806c0.692,0.27,1.173,0.749,1.442,1.441
		c0.434,0.848,1.075,1.488,1.922,1.922C15.585,617.339,16.262,617.464,16.376,618.149z"/>
	<path fill="#F36F21" d="M23.584,622.475c-1.517-0.085-2.866-0.338-2.883-1.922C21.558,621.298,22.583,621.874,23.584,622.475z"/>
	<path fill="#F36F21" d="M347.454,621.994c1.001-0.603,2.027-1.177,2.884-1.922C350.32,621.656,348.971,621.909,347.454,621.994z"/>
	<path fill="#F36F21" d="M355.623,616.229c1.644-1.24,3.085-2.683,4.325-4.324c0.389-0.092,0.479-0.482,0.961-0.48
		c-1.845,2.32-4.015,4.314-6.247,6.246c-0.16,0-0.32,0-0.48,0C354.451,616.979,354.932,616.497,355.623,616.229z"/>
	<path fill="#F36F21" d="M359.948,611.903c0.142-0.98,1.3-0.942,1.441-1.922c0.213-0.43,0.422-0.859,0.961-0.962
		c-0.281,1-1.01,1.554-1.441,2.402C360.427,611.421,360.337,611.813,359.948,611.903z"/>
	<path fill="#F36F21" d="M365.233,605.176c-0.021-0.661,0.227-1.055,0.48-1.44c0.522-0.119,0.326-0.956,0.962-0.961
		C366.515,603.895,366.183,604.844,365.233,605.176z"/>
	<path fill="#F36F21" d="M15.416,616.708c-0.847-0.434-1.488-1.074-1.922-1.922C14.341,615.221,14.981,615.861,15.416,616.708z"/>
	<path fill="#F36F21" d="M16.376,618.149c-0.115-0.687-0.791-0.812-0.961-1.441c0.847,0.435,1.488,1.075,1.922,1.922
		C16.948,618.539,16.859,618.148,16.376,618.149z"/>
	<path fill="#F36F21" d="M335.441-0.759c4.662,1.584,9.047,3.447,13.455,5.286c0.721,0.561,1.175,1.388,2.402,1.441
		c1.166,1.397,3.325,1.8,4.324,3.364c0.597,1.005,1.397,1.806,2.403,2.403c0.847,0.434,1.487,1.075,1.922,1.922
		c0.434,0.847,1.074,1.488,1.922,1.922c0.102,0.54,0.533,0.749,0.961,0.961c0.517,1.245,1.737,1.786,1.922,3.364
		c0.373,1.549,1.005,2.839,1.923,3.844c1.807,2.838,2.632,6.658,2.883,11.052c0.276,0.845-0.581,2.823,0.48,2.883
		c0,0.801,0,1.602,0,2.403c0.276,0.845-0.581,2.823,0.48,2.883c0,0.48,0,0.961,0,1.442c0.263,0.698-0.562,2.483,0.48,2.402
		c0,179.066,0,358.158,0,537.221c-1.042-0.081-0.218,1.704-0.48,2.401c-1.062,0.061-0.204,2.038-0.48,2.884
		c-0.12,5.485-1.98,9.231-3.363,13.455c-0.636,0.005-0.439,0.842-0.962,0.961c-0.948,0.332-1.28,1.28-1.441,2.401
		c-0.314,1.287-1.376,1.827-1.922,2.883c-0.539,0.104-0.748,0.533-0.961,0.963c-1.005,0.596-1.806,1.396-2.402,2.401
		c-0.596,1.005-1.397,1.806-2.403,2.402c-1.164,0.758-2.125,1.719-2.883,2.883c-0.717,1.206-2.157,1.688-3.363,2.403
		c-0.856,0.744-1.883,1.319-2.884,1.922c-3.427,1.697-7.093,3.158-12.013,3.362c-0.845,0.276-2.823-0.581-2.883,0.48
		c-0.641,0-1.281,0-1.922,0c-0.845,0.276-2.823-0.58-2.884,0.479c-0.48,0-0.961,0-1.441,0c-0.801,0-1.602,0-2.402,0
		c-94.183,0-188.362,0-282.545,0c-0.641,0-1.282,0-1.922,0c-0.207-1.073-2.368-0.193-3.363-0.479
		c-5.062-0.224-8.774-1.798-12.494-3.363c-1.001-0.601-2.026-1.177-2.883-1.922c-1.488-0.114-1.866-1.338-2.883-1.923
		c-1.721-2.122-3.644-4.045-5.767-5.766c-1.873-1.491-2.616-4.111-4.325-5.768c-0.563-0.719-0.597-1.965-1.441-2.401
		c-0.214-1.229-0.674-2.209-1.441-2.884c-0.266-0.854-0.247-1.996-0.961-2.402c-0.853-2.671-1.707-5.342-2.883-7.688
		C1,405.756,1,219.805,1,33.838c1.295-2.709,1.739-6.269,3.364-8.649c1.073-1.329,1.87-2.936,2.402-4.805
		c0.545-2.018,2.012-3.114,2.883-4.806c0.692-0.269,1.172-0.749,1.441-1.441c1.803-1.4,3.405-3.002,4.805-4.805
		c0.692-0.269,1.173-0.75,1.442-1.441c1.691-0.872,2.788-2.338,4.805-2.883c1.549-0.373,2.839-1.004,3.844-1.922
		c2.48-2.005,6.693-2.277,9.61-3.844C135.548-0.759,235.49-0.759,335.441-0.759z M81.247,67.955c-0.961,0-1.922,0-2.883,0
		c-0.801,0-1.602,0-2.403,0c-0.845,0.276-2.823-0.581-2.883,0.48c-0.32,0-0.641,0-0.961,0c-0.995,0.286-3.157-0.594-3.363,0.48
		c-0.565,0.075-1.364-0.083-1.442,0.48c-2.837,0.206-3.96,2.126-5.766,3.364c-0.568,0.233-1.089,0.512-1.441,0.961
		c-0.023,1.465,0.437,2.447,1.441,2.883c0.375,0.106,0.559,0.402,0.48,0.961c1.51,2.655,3.592,4.737,6.247,6.247
		c0.16,0,0.32,0,0.48,0c2.557,2.409,5.575,4.355,8.168,6.728c0.269,0.692,0.75,1.172,1.442,1.441
		c24.674,21.136,49.339,42.279,74.48,62.948c0.686,0.115,0.811,0.791,1.441,0.961c0.269,0.692,0.75,1.172,1.441,1.441
		c1.614,1.91,3.55,3.498,5.767,4.805c0.16,0,0.32,0,0.48,0c2.371,2.435,5.318,4.292,7.688,6.728
		c0.574,1.188,1.646,1.878,2.883,2.402c0.16,0,0.32,0,0.48,0c1.914,1.93,4.125,3.563,6.247,5.286
		c0.908,1.654,2.944,2.181,4.325,3.364c0.659,1.103,1.979,1.545,2.883,2.403c1.238-0.524,2.31-1.214,2.883-2.403
		c0.687-0.115,0.811-0.791,1.442-0.961c4.147-3.701,8.627-7.069,12.493-11.052c0.686-0.115,0.811-0.791,1.441-0.961
		c7.317-6.458,15.034-12.516,22.104-19.221c0.687-0.115,0.811-0.792,1.442-0.961c10.019-8.721,20.469-17.011,30.272-25.948
		c0.481-1.28,1.939-1.584,2.883-2.402c8.051-6.365,16.005-12.826,23.546-19.702c0.046-1.235,1.875-0.687,1.922-1.922
		c1.38-1.183,3.416-1.709,4.324-3.364c0.539-0.102,0.748-0.533,0.961-0.961c0.16,0,0.321,0,0.481,0
		c2.563-1.602,4.801-3.527,6.727-5.766c0.686-0.115,0.811-0.792,1.441-0.961c3.244-2.843,6.287-5.886,9.13-9.13
		c0.115-0.686,0.792-0.811,0.962-1.442c0-0.16,0-0.32,0-0.48c0.293-0.027,0.568-0.072,0.48-0.48
		c-0.435-0.847-1.075-1.488-1.923-1.922c-0.16,0-0.32,0-0.48,0c-1.321-1.241-3.025-2.1-5.285-2.403
		c-0.66-0.942-2.944-0.259-3.845-0.961c-0.105-0.375-0.402-0.559-0.961-0.48c-0.089-0.711-1.161-0.44-1.922-0.48
		c-0.16,0-0.32,0-0.48,0C225.883,67.154,151.884,67.154,81.247,67.955z M58.182,497.059c0,0.642,0,1.281,0,1.924
		c0.082,0.719-0.171,1.771,0.48,1.922c0.108,0.373,0.014,0.946,0.481,0.961c0.31,5.616,5.086,6.767,9.61,8.169
		c0.06,1.061,2.038,0.204,2.883,0.479c0.16,0,0.32,0,0.48,0c-0.081,1.042,1.705,0.219,2.403,0.48c1.121,0,2.242,0,3.364,0
		c70.957,0.801,145.277,0.801,216.234,0c0.961,0,1.922,0,2.883,0c0.698-0.263,2.483,0.562,2.402-0.48
		c0.565-0.074,1.364,0.082,1.441-0.479c2.098-0.146,3.985-0.5,5.286-1.441c0.837,0.036,1.494-0.106,1.922-0.479
		c0.16,0,0.32,0,0.48,0c1.632-1.252,3.09-2.679,3.364-5.286c0.118-1.483,0.486-2.717,0.961-3.844c0.711-0.091,0.44-1.162,0.48-1.924
		c0-0.479,0-0.961,0-1.44c1.074-0.207,0.194-2.368,0.48-3.363c0-0.801,0-1.602,0-2.402c0-1.763,0-3.523,0-5.285
		c0.788,0.078,0.788-2.963,0-2.884c0-3.204,0-6.406,0-9.609c0-99.458,0-204.787,0-305.611c0-6.159,0.904-21.131-1.441-19.701
		c-0.32,0-0.641,0-0.961,0c-1.121,0.161-2.07,0.493-2.403,1.441c-0.125,0.676-1.054,0.548-1.441,0.961
		c-1.238,0.524-2.31,1.214-2.883,2.403c-0.979,0.142-0.942,1.3-1.922,1.441c-1.324,0.919-2.445,2.04-3.364,3.364
		c-0.481-0.001-0.571,0.389-0.961,0.48c-1.532,1.51-3.58,2.506-4.805,4.325c-0.38,1.063-1.681,1.203-2.403,1.922
		c-3.177,2.109-6.063,4.508-8.649,7.208c-1.631,1.573-3.294,3.112-5.285,4.325c-18.481,14.834-36.6,30.032-54.299,45.649
		c-0.686,0.115-0.811,0.791-1.441,0.961c-1.88,1.804-4.11,3.257-5.767,5.286c-0.215,1.387-2.067,1.136-2.402,2.403
		c-3.038,1.767-5.198,4.412-8.649,5.766c-0.856,0.745-1.883,1.321-2.883,1.922c-3.377,1.589-6.56,3.372-11.533,3.364
		c-3.203,0-6.406,0-9.61,0c-4.574-0.231-7.829-1.782-11.052-3.364c-0.007-0.793-1.333-0.269-1.441-0.961
		c-0.332-0.949-1.282-1.281-2.402-1.441c-2.687-1.479-5.073-3.256-7.208-5.286c-1.735-2.27-4.229-3.78-6.247-5.767
		c-0.686-0.115-0.811-0.791-1.442-0.961c-2.667-2.939-5.801-5.411-9.13-7.688c-0.16,0-0.32,0-0.48,0
		c-1.167-1.236-2.535-2.271-3.844-3.364c-0.665-1.739-3.038-1.768-3.844-3.364c-0.652-1.43-2.169-1.995-3.364-2.883
		c-0.686-0.115-0.811-0.791-1.441-0.961c-0.269-0.692-0.75-1.172-1.442-1.441c-13.872-12.076-27.775-24.121-42.286-35.559
		c-0.722-0.719-2.023-0.859-2.402-1.922c-0.574-1.188-1.646-1.879-2.883-2.403c-0.16,0-0.32,0-0.48,0
		c-5.9-4.992-11.849-9.935-18.26-14.416c-0.884-0.878-1.624-1.9-2.883-2.402C57.381,261.761,57.381,381.096,58.182,497.059z
		 M182.156,540.306c-0.961,0-1.922,0-2.883,0c-0.719,0.082-1.773-0.172-1.922,0.48c-0.373,0.106-0.948,0.014-0.961,0.479
		c-5.099,0.827-9.021,2.832-12.013,5.768c-0.979,0.141-0.942,1.3-1.922,1.44c-0.824,0.618-1.89,0.993-1.922,2.402
		c-0.026,0.614-0.616,0.666-0.48,1.441c-0.768,0.674-1.228,1.654-1.441,2.884c-0.842,0.92-1.019,2.505-1.441,3.844
		c-0.375,0.105-0.559,0.402-0.48,0.961c-0.712,0.089-0.441,1.161-0.48,1.922c0,2.243,0,4.485,0,6.729
		c0.082,0.719-0.172,1.772,0.48,1.922c0.107,0.373,0.013,0.948,0.48,0.961c-0.149,1.911,1.11,2.414,0.961,4.325
		c-0.072,1.192,0.248,1.994,0.961,2.401c0.375,0.106,0.559,0.402,0.48,0.961c0.161,1.121,0.493,2.07,1.442,2.402
		c0.675,0.126,0.547,1.055,0.961,1.442c1.354,2.488,3.276,4.411,5.766,5.766c0.16,0,0.32,0,0.48,0
		c0.006,0.636,0.842,0.439,0.961,0.961c0.6,1.162,1.97,1.555,3.364,1.923c2.133-0.052,2.82,1.344,5.286,0.961
		c0.027,0.293,0.072,0.568,0.48,0.48c0.089,0.711,1.161,0.439,1.922,0.479c1.121,0,2.242,0,3.364,0
		c0.698-0.263,2.483,0.563,2.402-0.479c0.293-0.027,0.569-0.072,0.48-0.48c5.207-0.398,9.014-2.199,12.013-4.806
		c0.16,0,0.32,0,0.48,0c1.813-0.751,3.094-2.032,3.845-3.844c0-0.16,0-0.32,0-0.48c1.298-0.145,0.861-2.021,1.922-2.403
		c0.949-0.332,1.281-1.28,1.441-2.401c0.062-2.662,1.74-3.705,1.441-6.729c0.293-0.026,0.569-0.07,0.48-0.479
		c0.712-0.089,0.44-1.161,0.48-1.922c0-0.802,0-1.603,0-2.402c0-0.16,0-0.32,0-0.479c0-0.802,0-1.603,0-2.402
		c-0.081-0.72,0.172-1.773-0.48-1.923c-0.075-0.565,0.083-1.363-0.48-1.441c-0.615-2.906-1.318-5.729-2.883-7.688
		c-0.054-1.229-0.881-1.683-1.441-2.402c-1.609-3.036-3.967-5.323-7.208-6.728c-0.674-0.769-1.655-1.229-2.883-1.441
		c-0.815-0.946-2.235-1.289-3.845-1.44c0.081-1.043-1.704-0.219-2.402-0.48c-0.06-1.063-2.038-0.204-2.883-0.48
		C184.422,539.526,181.812,539.526,182.156,540.306z"/>
	<path fill="#F36F21" d="M370.52,38.644c0,0.48,0,0.961,0,1.441c-0.16,0-0.32,0-0.48,0c0-0.801,0-1.602,0-2.403
		c0-0.32,0-0.641,0-0.961c0.16,0,0.32,0,0.48,0C370.52,37.362,370.52,38.002,370.52,38.644z"/>
	<path fill="#F36F21" d="M68.753,68.916c0.207-1.074,2.368-0.194,3.363-0.48c0,0.16,0,0.32,0,0.48c-0.16,0-0.32,0-0.48,0
		C70.675,68.916,69.714,68.916,68.753,68.916z"/>
	<path fill="#F36F21" d="M298.922,68.436c0.559-0.078,0.855,0.106,0.961,0.48c-0.845-0.276-2.823,0.581-2.883-0.48
		C297.641,68.436,298.281,68.436,298.922,68.436z"/>
	<path fill="#F36F21" d="M312.857,497.059c0-0.961,0-1.922,0-2.883c0.16,0,0.32,0,0.48,0c0,0.48,0,0.961,0,1.441
		c0,0.479,0,0.961,0,1.44C313.178,497.059,313.018,497.059,312.857,497.059z"/>
	<path fill="#F36F21" d="M58.662,498.02c0,0.32,0,0.643,0,0.963c-0.16,0-0.32,0-0.48,0c0-0.643,0-1.282,0-1.924
		c0-0.319,0-0.641,0-0.961c0.16,0,0.32,0,0.48,0C58.662,496.738,58.662,497.379,58.662,498.02z"/>
	<path fill="#F36F21" d="M58.662,498.02c1.084,0.358,0.188,2.695,0.481,3.846c-0.467-0.015-0.373-0.588-0.481-0.961
		c0-0.642,0-1.281,0-1.922C58.662,498.661,58.662,498.34,58.662,498.02z"/>
	<path fill="#F36F21" d="M68.753,510.033c0.961,0,1.922,0,2.883,0c0,0.16,0,0.319,0,0.479
		C70.792,510.237,68.813,511.094,68.753,510.033z"/>
	<path fill="#F36F21" d="M295.559,510.514c0.822-1.1,3.668-0.177,5.285-0.479c-0.077,0.563-0.876,0.405-1.441,0.479
		c-0.801,0-1.602,0-2.402,0C296.52,510.514,296.039,510.514,295.559,510.514z"/>
	<path fill="#F36F21" d="M295.559,510.514c0.48,0,0.961,0,1.441,0c0,0.16,0,0.32,0,0.48c-0.961,0-1.922,0-2.883,0s-1.923,0-2.884,0
		c0-0.16,0-0.32,0-0.48C292.676,510.514,294.117,510.514,295.559,510.514z"/>
	<path fill="#F36F21" d="M186.961,540.786c0.698,0.263,2.483-0.563,2.402,0.479c-0.995-0.285-3.156,0.595-3.363-0.479
		C186.32,540.786,186.641,540.786,186.961,540.786z"/>
	<path fill="#F36F21" d="M208.104,569.617c0,0.641,0,1.281,0,1.922c0.089,0.409-0.188,0.453-0.48,0.479
		c0.302-1.46-0.615-4.139,0.48-4.805C208.104,568.016,208.104,568.816,208.104,569.617z"/>
	<path fill="#F36F21" d="M370.52,587.396c0,0.641,0,1.28,0,1.922c-0.16,0-0.32,0-0.48,0c0.276-0.846-0.581-2.823,0.48-2.884
		C370.52,586.756,370.52,587.076,370.52,587.396z"/>
	<path fill="#F36F21" d="M332.559,625.838c0.06-1.062,2.038-0.204,2.883-0.479c0,0.159,0,0.319,0,0.479c-0.641,0-1.281,0-1.922,0
		C333.199,625.838,332.879,625.838,332.559,625.838z"/>
	<path fill="#F36F21" d="M39.441,626.318c0.641,0,1.282,0,1.922,0c0,0.159,0,0.319,0,0.479c-0.32,0-0.641,0-0.961,0
		c-0.698-0.263-2.484,0.563-2.403-0.479C38.48,626.318,38.961,626.318,39.441,626.318z"/>
	<path fill="#F36F21" d="M73.078,68.436c0.961,0,1.922,0,2.883,0c0.801,0,1.602,0,2.403,0c-1.137,1.105-4.313,0.172-6.247,0.48
		c0-0.16,0-0.32,0-0.48C72.437,68.436,72.758,68.436,73.078,68.436z"/>
	<path fill="#F36F21" d="M68.753,68.916c0.961,0,1.922,0,2.883,0c-0.511,1.091-3.021,0.183-4.325,0.48
		C67.389,68.833,68.188,68.991,68.753,68.916z"/>
	<path fill="#F36F21" d="M311.416,146.76c0.32,0,0.641,0,0.961,0c0.758,0.044,0.912,0.157,0.961,0.961
		c1.562,26.078,0,53.265,0,80.728c0,80.654,0,164.592,0,243.624c-1.121-107.317-0.16-216.713-0.48-324.832c-0.48,0-0.961,0-1.441,0
		C311.416,147.081,311.416,146.92,311.416,146.76z"/>
	<path fill="#F36F21" d="M71.636,510.033c1.304,0.297,3.813-0.61,4.325,0.479c-0.48,0-0.961,0-1.441,0c-0.801,0-1.602,0-2.403,0
		c-0.16,0-0.32,0-0.48,0C71.636,510.354,71.636,510.193,71.636,510.033z"/>
	<path fill="#F36F21" d="M157.169,559.046c-0.293,1.149,0.603,3.486-0.48,3.844c0-0.319,0-0.641,0-0.961c0-0.641,0-1.28,0-1.922
		C156.61,559.448,156.794,559.151,157.169,559.046z"/>
	<path fill="#F36F21" d="M208.104,562.409c0,0.641,0,1.281,0,1.923c0,0.801,0,1.602,0,2.402c-1.103-0.979-0.174-3.99-0.48-5.768
		C208.187,561.046,208.028,561.844,208.104,562.409z"/>
	<path fill="#F36F21" d="M177.831,592.683c2.883,0,5.767,0,8.649,0c0.089,0.408-0.188,0.453-0.48,0.48c-0.801,0-1.602,0-2.402,0
		c-1.122,0-2.243,0-3.364,0c-0.641,0-1.282,0-1.922,0C177.903,593.251,177.858,592.976,177.831,592.683z"/>
	<path fill="#F36F21" d="M75.961,510.514c1.281,0,2.563,0,3.844,0c0,0.16,0,0.32,0,0.48c-0.641,0-1.281,0-1.922,0
		c-1.122,0-2.243,0-3.364,0c0-0.16,0-0.32,0-0.48C75,510.514,75.48,510.514,75.961,510.514z"/>
	<path fill="#F36F21" d="M179.273,540.306c0.961,0,1.922,0,2.883,0c0.641,0,1.281,0,1.922,0c0.845,0.276,2.823-0.581,2.883,0.48
		c-0.32,0-0.641,0-0.961,0c-3.734-0.37-6.103,0.624-9.61,0.479c0.013-0.467,0.588-0.373,0.961-0.479
		C178.111,540.746,179.184,541.018,179.273,540.306z"/>
	<path fill="#F36F21" d="M156.688,562.89c-0.373,3.416,0.727,5.36,0.48,8.649c-0.467-0.013-0.373-0.588-0.48-0.961
		c-0.04-0.761,0.231-1.833-0.48-1.922c0-2.242,0-4.484,0-6.729c0.16,0,0.32,0,0.48,0
		C156.688,562.249,156.688,562.569,156.688,562.89z"/>
	<path fill="#F36F21" d="M371,584.033c0,1.121,0,2.242,0,3.363c-0.16,0-0.32,0-0.48,0c0-0.32,0-0.642,0-0.962
		C370.782,585.737,369.958,583.952,371,584.033z"/>
	<path fill="#F36F21" d="M330.637,625.838c0.641,0,1.281,0,1.922,0c0.32,0,0.641,0,0.961,0c0,0.16,0,0.32,0,0.48
		c-0.641,0-1.281,0-1.922,0c-0.32,0-0.641,0-0.961,0C330.637,626.158,330.637,625.998,330.637,625.838z"/>
	<path fill="#F36F21" d="M370.039,34.799c0,0.641,0,1.281,0,1.922c0,0.32,0,0.641,0,0.961c-1.062-0.06-0.204-2.038-0.48-2.883
		C369.719,34.799,369.879,34.799,370.039,34.799z"/>
	<path fill="#F36F21" d="M180.714,239.981c3.204,0,6.407,0,9.61,0c0,0.16,0,0.32,0,0.48c-0.801,0-1.602,0-2.402,0
		c-1.602,0-3.203,0-4.805,0c-0.801,0-1.602,0-2.402,0C180.714,240.301,180.714,240.141,180.714,239.981z"/>
	<path fill="#F36F21" d="M36.078,625.838c0.995,0.286,3.156-0.594,3.363,0.48c-0.48,0-0.961,0-1.441,0
		C37.281,626.236,36.227,626.49,36.078,625.838z"/>
</g>
<g>
	<path fill="#F36F21" d="M588.693,131.433c0,12.489-4.503,22.039-13.508,28.653c-9.005,6.615-21.81,9.921-38.414,9.921h-12.179
		v41.273h-28.387V95.24h42.764c16.238,0,28.585,3.03,37.041,9.088C584.465,110.387,588.693,119.422,588.693,131.433z
		 M524.593,149.847h9.34c8.729,0,15.262-1.494,19.597-4.484c4.334-2.989,6.501-7.342,6.501-13.057
		c0-5.767-1.817-10.026-5.448-12.778c-3.633-2.751-9.326-4.127-17.078-4.127h-12.912L524.593,149.847L524.593,149.847z"/>
</g>
<g>
	<path fill="#F36F21" d="M588.693,131.433c0,12.489-4.503,22.039-13.508,28.653c-9.005,6.615-21.81,9.921-38.414,9.921h-12.179
		v41.273h-28.387V95.24h42.764c16.238,0,28.585,3.03,37.041,9.088C584.465,110.387,588.693,119.422,588.693,131.433z
		 M524.593,149.847h9.34c8.729,0,15.262-1.494,19.597-4.484c4.334-2.989,6.501-7.342,6.501-13.057
		c0-5.767-1.817-10.026-5.448-12.778c-3.633-2.751-9.326-4.127-17.078-4.127h-12.912L524.593,149.847L524.593,149.847z"/>
</g>
</svg>
