<?xml version="1.0" encoding="utf-8"?>
<!-- Generator: Adobe Illustrator 23.0.4, SVG Export Plug-In . SVG Version: 6.00 Build 0)  -->
<svg version="1.1" id="Layer_1" xmlns="http://www.w3.org/2000/svg" xmlns:xlink="http://www.w3.org/1999/xlink" x="0px" y="0px"
	 viewBox="0 0 225.36 197.47" style="enable-background:new 0 0 225.36 197.47;" xml:space="preserve">
<style type="text/css">
	.st0{fill:#FC802D;}
	.st1{fill:#91EB85;}
	.st2{fill:#5191BD;}
	.st3{fill:#E591E8;}
	.st4{fill:#F26288;}
	.st5{fill:#FDFCFC;}
</style>
<path class="st0" d="M203.82,0.56c-41.42-0.03-82.85-0.05-124.27-0.11c-0.11,0.01-0.22,0.02-0.34,0.02H65.97
	c-1.08,0.08-2.21,0.27-3.25,0h-2.55c-0.44,0.31-0.96,0.55-1.55,0.69c-1.89,2.59-3.32,5.17-1.36,8.73c2.29,4.16,5.99,3.51,9.6,3.51
	c41.64,0,83.27,0,124.91,0c12.84,0,20.17,7.18,20.19,20.02c0.06,29.31,0.06,58.63,0.01,87.94c-0.02,12.59-7.73,20.21-20.28,20.22
	c-18.82,0.02-37.64,0.26-56.46-0.1c-9.52-0.18-17.51,2.86-24.91,8.48c-13.65,10.37-27.42,20.57-41.1,30.91
	c-2.94,2.22-6.03,3.98-9.62,2.26c-3.63-1.74-4.13-5.22-4.08-8.95c0.08-5.66,0.26-11.35-0.31-16.96c-0.94-9.35-8.2-15.51-17.55-15.65
	c-3.49-0.05-7.09,0.23-10.43-0.55c-9.14-2.16-14.38-8.83-14.43-18.44c-0.15-28.81-0.14-57.62-0.07-86.44
	c0.01-3.73-1.52-6.16-4.83-7.26c-3.17-1.06-5.89,0-7.75,2.93c-0.02,0.03-0.04,0.05-0.06,0.08c-0.02,0.14-0.05,0.27-0.08,0.4v98.97
	c0,0.11-0.01,0.21-0.02,0.31c0.76,0.45,1.04,1.13,0.48,2.19c3.1,12.62,13.6,21.6,26.72,21.06c15.08-0.62,15.39,4.77,14.95,15.68
	c-0.33,8.34,0.34,16.19,7.14,22.38c1.19,1.08,2.64,1.69,3.98,2.42c0.28,0.09,0.53,0.19,0.78,0.32c0.45,0.13,0.85,0.32,1.21,0.55
	c0.48,0.14,0.92,0.32,1.3,0.58c0.28,0.07,0.54,0.15,0.79,0.26c0.49,0.05,0.94,0.16,1.35,0.32c0.26,0.03,0.5,0.08,0.74,0.14
	c0.06,0.01,0.13,0.01,0.19,0.03h5.3c0.53-0.22,1.13-0.35,1.81-0.37c0.31-0.12,0.64-0.21,1-0.27c0.39-0.22,0.82-0.38,1.3-0.48
	c17.12-9.76,31.86-22.84,47.68-34.42c6.29-4.61,12.65-7.22,20.68-7.04c18.81,0.43,37.64,0.1,56.46,0.08
	c17.24-0.02,26.72-7.15,31.23-23.48c0-33.58,0-67.17,0.02-100.75c0-2.15,0.18-4.31,0.28-6.46C222.92,12.06,215.87,4.03,203.82,0.56z
	"/>
<path class="st1" d="M41.2,6.57c-0.02-0.08-0.04-0.17-0.05-0.25c-0.24-0.53-0.38-1.12-0.44-1.71c-0.21-0.37-0.37-0.77-0.48-1.18
	c-0.49-0.53-1.02-1.06-1.51-1.6c-0.24-0.27-0.46-0.56-0.67-0.86c-0.62-0.14-1.14-0.39-1.6-0.71c-0.55-0.01-1.05-0.09-1.51-0.23
	c-0.1,0.01-0.19,0.02-0.29,0.02c-0.25,0-0.49-0.02-0.73-0.05c-0.23,0.03-0.48,0.05-0.73,0.05c-0.08,0-0.15-0.01-0.23-0.01
	c-0.37,0.16-0.78,0.28-1.23,0.36c-0.43,0.32-0.94,0.57-1.52,0.72c-1.44,1.98-4.01,3.47-3.32,5.71c0.82,2.62,2.57,5.83,6.12,6.54
	c4.08,0.81,5.89-2.13,7.79-4.85c0.1-0.14,0.18-0.27,0.26-0.41C41.06,7.59,41.1,7.07,41.2,6.57z"/>
<path class="st2" d="M126.28,55.8c10.41,0,20.81,0,31.22,0c1.34,0,2.71-0.11,4.02,0.09c4.46,0.66,7.47,3.84,7.4,7.68
	c-0.07,3.68-3.88,7.61-8.01,7.79c-5.03,0.21-10.07,0.06-15.11,0.06c-17.29,0-34.58,0-51.87,0c-1.84,0-3.78,0.31-5.4-0.81
	c-2.81-1.94-6.17-4.3-5.37-7.94c0.92-4.15,4.14-6.89,8.87-6.88C103.46,55.83,114.87,55.8,126.28,55.8z"/>
<path class="st3" d="M90.42,99.46c-9.13,0-18.25,0.05-27.38-0.02c-4.86-0.03-8.99-3.55-8.99-7.46c0-3.91,4.11-7.42,8.99-7.44
	c18.25-0.05,36.51-0.05,54.76,0c5.52,0.02,9.09,3.19,9.1,7.79c0.01,4.07-3.74,7.08-9.11,7.11C108.68,99.5,99.55,99.46,90.42,99.46z"
	/>
<path class="st4" d="M154.82,91.92c-0.03,3.38-4.07,7.7-7.06,7.55c-3.01-0.15-7.61-4.51-7.7-7.3c-0.11-3.42,4.06-7.5,7.73-7.54
	C151.49,84.58,154.85,88.06,154.82,91.92z"/>
<g>
	<g>
		<path class="st0" d="M1.78,133.49c1.93,0,1.93-3,0-3C-0.15,130.49-0.15,133.49,1.78,133.49L1.78,133.49z"/>
	</g>
</g>
<g>
	<g>
		<path class="st0" d="M1.78,133.7c1.93,0,1.93-3,0-3C-0.15,130.7-0.15,133.7,1.78,133.7L1.78,133.7z"/>
	</g>
</g>
<g>
	<g>
		<path class="st0" d="M1.99,134.33c1.93,0,1.93-3,0-3C0.06,131.33,0.06,134.33,1.99,134.33L1.99,134.33z"/>
	</g>
</g>
<g>
	<g>
		<path class="st0" d="M1.75,134.37c1.93,0,1.93-3,0-3C-0.18,131.37-0.18,134.37,1.75,134.37L1.75,134.37z"/>
	</g>
</g>
<g>
	<g>
		<path class="st0" d="M1.86,134.58c1.93,0,1.93-3,0-3C-0.07,131.58-0.07,134.58,1.86,134.58L1.86,134.58z"/>
	</g>
</g>
<g>
	<g>
		<path class="st0" d="M1.86,134.65c1.93,0,1.93-3,0-3C-0.07,131.65-0.07,134.65,1.86,134.65L1.86,134.65z"/>
	</g>
</g>
<g>
	<g>
		<path class="st0" d="M1.83,134.59c1.93,0,1.93-3,0-3C-0.1,131.59-0.1,134.59,1.83,134.59L1.83,134.59z"/>
	</g>
</g>
<g>
	<g>
		<path class="st0" d="M1.81,134.51c1.93,0,1.93-3,0-3C-0.12,131.51-0.13,134.51,1.81,134.51L1.81,134.51z"/>
	</g>
</g>
<g>
	<g>
		<path class="st0" d="M1.78,134.51c1.93,0,1.93-3,0-3C-0.15,131.51-0.15,134.51,1.78,134.51L1.78,134.51z"/>
	</g>
</g>
<g>
	<g>
		<path class="st0" d="M1.67,133.41c1.93,0,1.93-3,0-3C-0.26,130.41-0.26,133.41,1.67,133.41L1.67,133.41z"/>
	</g>
</g>
<g>
	<g>
		<path class="st0" d="M1.51,132.97c1.93,0,1.93-3,0-3C-0.42,129.97-0.43,132.97,1.51,132.97L1.51,132.97z"/>
	</g>
</g>
<g>
	<g>
		<path class="st0" d="M1.56,133.38c1.93,0,1.93-3,0-3C-0.37,130.38-0.37,133.38,1.56,133.38L1.56,133.38z"/>
	</g>
</g>
<g>
	<g>
		<path class="st0" d="M1.64,133.59c1.93,0,1.93-3,0-3C-0.29,130.59-0.29,133.59,1.64,133.59L1.64,133.59z"/>
	</g>
</g>
<g>
	<g>
		<path class="st0" d="M1.64,133.7c1.93,0,1.93-3,0-3C-0.29,130.7-0.29,133.7,1.64,133.7L1.64,133.7z"/>
	</g>
</g>
<g>
	<g>
		<path class="st0" d="M1.7,133.91c1.93,0,1.93-3,0-3C-0.23,130.91-0.24,133.91,1.7,133.91L1.7,133.91z"/>
	</g>
</g>
<g>
	<g>
		<path class="st0" d="M1.68,133.91c1.93,0,1.93-3,0-3C-0.25,130.91-0.25,133.91,1.68,133.91L1.68,133.91z"/>
	</g>
</g>
<path class="st5" d="M212,33.67c-0.03-12.83-7.38-20.02-20.25-20.02c-41.74,0-83.49,0-125.23,0c-1.78,0-3.58,0.15-5.22-0.19H35.69
	c-0.87,0.31-1.87,0.4-3.07,0.16c-0.21-0.04-0.4-0.1-0.6-0.16H21.55c-0.34,1.95-1.72,3.68-4.1,3.95c-0.42,1.43-1.42,2.66-3,3.16
	c0.38,2.1-0.43,4.44-2.4,5.47v8.25c0.13,0.65,0.21,1.34,0.21,2.09c-0.07,28.81-0.08,57.63,0.07,86.44
	c0.05,9.61,5.3,16.28,14.47,18.44c3.34,0.79,6.96,0.5,10.46,0.55c9.38,0.14,16.65,6.29,17.6,15.65c0.57,5.61,0.38,11.31,0.31,16.96
	c-0.05,3.72,0.46,7.21,4.09,8.95c3.6,1.72,6.7-0.04,9.65-2.26c13.71-10.34,27.52-20.54,41.2-30.91c7.42-5.62,15.43-8.66,24.98-8.48
	c18.86,0.36,37.73,0.13,56.6,0.1c12.59-0.02,20.31-7.63,20.33-20.22C212.07,92.3,212.06,62.99,212,33.67z M117.75,98.74
	c-9.01,0.06-18.01,0.02-27.02,0.02c-9.01,0-18.01,0.04-27.02-0.02c-4.79-0.03-8.87-3.32-8.87-6.97c0-3.65,4.05-6.94,8.87-6.95
	c18.01-0.05,36.03-0.05,54.04,0c5.45,0.02,8.97,2.98,8.98,7.28C126.74,95.89,123.04,98.7,117.75,98.74z M147.67,99.11
	c-3-0.14-7.59-4.32-7.68-6.99c-0.11-3.28,4.05-7.18,7.7-7.22c3.7-0.04,7.05,3.29,7.02,6.98C154.68,95.12,150.66,99.26,147.67,99.11z
	 M160.88,71.23c-5,0.21-10.02,0.06-15.03,0.06c-17.2,0-34.4,0-51.6,0c-1.83,0-3.76,0.3-5.37-0.79c-2.79-1.89-6.14-4.19-5.34-7.74
	c0.91-4.04,4.12-6.72,8.82-6.7c11.36,0.03,22.71,0.01,34.07,0.01c10.35,0,20.71-0.01,31.06,0c1.34,0,2.69-0.11,4,0.08
	c4.44,0.64,7.43,3.75,7.36,7.49C168.79,67.24,165,71.06,160.88,71.23z"/>
<circle class="st5" cx="21.55" cy="22.97" r="9.5"/>
<g>
	<g>
		<path class="st5" d="M18.11,31.53c7.66,0,7.67-11.91,0-11.91C10.45,19.62,10.44,31.53,18.11,31.53L18.11,31.53z"/>
	</g>
</g>
<g>
	<g>
		<path class="st5" d="M17.99,32.47c7.66,0,7.67-11.91,0-11.91C10.33,20.56,10.32,32.47,17.99,32.47L17.99,32.47z"/>
	</g>
</g>
<g>
	<g>
		<path class="st5" d="M18.21,31.25c7.66,0,7.67-11.91,0-11.91C10.54,19.34,10.53,31.25,18.21,31.25L18.21,31.25z"/>
	</g>
</g>
<g>
	<g>
		<path class="st5" d="M12.12,27.67c0.04,0,0.04-5,0-5C12.08,22.67,12.08,27.67,12.12,27.67L12.12,27.67z"/>
	</g>
</g>
<g>
	<g>
		<path class="st5" d="M12.12,27.68c0.12-0.01,0.23-0.01,0.35-0.03c0.18-0.02-0.11-4.99,0-5c-0.11,0.01-0.23,0.02-0.35,0.03
			C11.98,22.68,12.18,27.67,12.12,27.68L12.12,27.68z"/>
	</g>
</g>
</svg>
